<mxfile host="Electron" agent="Mozilla/5.0 (Windows NT 10.0; Win64; x64) AppleWebKit/537.36 (KHTML, like Gecko) draw.io/26.0.16 Chrome/132.0.6834.196 Electron/34.2.0 Safari/537.36" version="26.0.16">
  <diagram id="Ht1M8jgEwFfnCIfOTk4-" name="Page-1">
    <mxGraphModel dx="1434" dy="1671" grid="0" gridSize="10" guides="1" tooltips="1" connect="1" arrows="1" fold="1" page="1" pageScale="1" pageWidth="1169" pageHeight="827" background="#000000" math="0" shadow="0">
      <root>
        <mxCell id="0" />
        <mxCell id="1" parent="0" />
        <mxCell id="758x6OaIiu2QK4r-ina4-1" value="" style="group" parent="1" vertex="1" connectable="0">
          <mxGeometry x="66" y="-515" width="1037.75" height="1098.5" as="geometry" />
        </mxCell>
        <mxCell id="vJHTSsMNeUDx-gvT6hu4-12" value="" style="rounded=1;whiteSpace=wrap;html=1;fillColor=none;" parent="758x6OaIiu2QK4r-ina4-1" vertex="1">
          <mxGeometry x="120" y="248.5" width="890" height="640" as="geometry" />
        </mxCell>
        <mxCell id="OQNFjYG3NnmVQZ2DPFW_-1" value="" style="rounded=1;whiteSpace=wrap;html=1;dashed=1;fillColor=none;glass=0;" parent="758x6OaIiu2QK4r-ina4-1" vertex="1">
          <mxGeometry x="160" y="484.5" width="320" height="204" as="geometry" />
        </mxCell>
        <mxCell id="f5d-xMImJ1Jx3HIkaDwR-2" value="Terraform" style="shape=image;aspect=fixed;image=data:image/png,iVBORw0KGgoAAAANSUhEUgAAAQAAAAEACAYAAABccqhmAAAABGdBTUEAALGPC/xhBQAAACBjSFJNAAB6JgAAgIQAAPoAAACA6AAAdTAAAOpgAAA6mAAAF3CculE8AAAABmJLR0QA/wD/AP+gvaeTAAAAB3RJTUUH4QMQATQMtSuaIwAAgABJREFUeNrsfXdgZFd1/nfufW36jHrX7nrXvTdcsDEdQkIwhBACpEAIEHoMMQYChEBCqIEEQyrpJJBAfiGU0I3BYGNjG5f12t6m1apL09+8du/5/fFmVHYlraTVFtv7ybK0o5n37rvv3XNP/Q7hFE56XNT726hOXYlZxehrvxcZziAEYFkMppA0A4I0Bewh0jWqh2Uer++CGzzCABiUArg+f7zb3sS48pMA7gD+6G0PJHfO3pEveVNtQVTvKgdT/aHyhhwjcx6zesg2UvemrMLegfQ5I3/8vF8u9Z0HffO/jeP1X9sKaB8AkEucKXqS51Da7GCDkkwQAIhDN4BIRShzCQmVwL1Tf3eip/IUDgGd6AE80fHc7W9EhTJgacGCC+0KMADBgGImjQjMGpojCrQPP6pSNZrhsj+CSmMXA2Ap81CqNH9M/UaG+MubAd6KTz39EutHY9/OVYPxfBDVCvWo2hOo2kCg/D7FQX+gGt2R9jtC3ejwo3p70iw4jpE2AAg/qqMaTnsJIztly8w+x0jts0RiV8LMP5C1u/a0232TL9r+a7O1wFQPl+7DB28/H5dt+RiK/gGMTP8TdacuoTZ7gBwjxVLYTCQhJTG0QEDteKj9DThr9qP48f53n+jb8ITFKQFwnHFJ3+8ix504iFF0yU5EiiGEIMU+NaI6/KiKajCLmcbP4atpvdwx9G7GVaftRBJn4bdfpM3vPfSd1ExjV76qZjv9sN4Varc70O5gqL3+UPldEfv9ofI7I+1lQx1kIu0ZkQ4Q6QCKIyjtg6HRkdiGvNOrptxHhdKRbk8M80jlLgMgSLJgCBuWTMCSqdCWyVlbJg/aRuoRW2Z2Okb6kZRR2N1pn77/6YMvmjvo2eHe8l1461mX4OL/NMBQAIC8da7oSZ+LjN0GS6bYZuZErgs1t4jSTAn31j5zom/REwqnBMBxwA68BQN9FrayhXtqNSTSJjRpKgcTdLD2M06aPSzIwMHKtwAAD3yIcfaN8Wc/8PTdzgPjP8pWwqmCG1Y6vLDaG+hGX6j8vlC5vaH2eiMddoW60RFqP6d0kIx0IELtQ3EIzREUh2DWABiARvwLcXz7FWyZ5970WZqh6GD1QSPSNUhKYEvukmis9pBsRHOIdRIGwBR/CxAkDGHDlDZMkYAlkzVHpsctmdxnG6ndCSP7QNLMPZKx2vdvyZ0/9ulPPLuKa8Gfu34cr/zvPvCXGKe/+iWiwxriyJX80/Kf4dqBG1Cci3Cf+8kTfdueEDglAI4RnjP8PkzWxpBzkoDhgBXI13Wa9vZgd+lrDM28Pf8MCAic1fFLnbVwpi/iqBAotzNQjX5fuUOhavREHPaGqtEVai8f6SAbaj8VaZ+UDqE4RPwzQrywW4t88QInBkDNW00AgUAU78iM9sQW3Z4Y0nPeqJxxdzf/boARYjBzYeQrV0y5DwmCBUbzUAAvnEfzglAgAiQkmYu0hURgyeSMY2RGbZF6xDHSjyTN/IOWkdxvSXv/yOx9k3PeXmRT3aIzeToc6eieZC8m6gewu1zESPmvT/StfFzjlADYJLyb3ovvDdagqAg7SEObSbBWVA1maF/pdpSDB/Vdv8G45J/iKX/pWZ/vOFC755KKN/FkxeoZoW4Mlv2JpNJhNtSeDHUApYP5Rc5LFjjFzr2FRd68j62frfvKy4yUAEQQZKEndYZKmlkeqz1kuOE0CCZ4/pEI0Z7YqtJWB/aX75SAXOXqW5/h5riYAU3xH5gACUEmLOk0NYVEmLW6inm7b69tpP7yjPyV/zNRdysz3kOYbdwjulKnI2HmtOWkUXdn4WiB74792Ym+xY9LnBIAR4GnOO+G2zeGaM/L4HR8GTAtgiDMNkbo0eIPmJHiXzrt3bi052XIm2PW10f+87SZ+r6ra+Hsk+th6VI3nNtRDWasrN2lDWFhvHZvc6fVrcXN8aJe2L2bWGWBrwRqvj9Cxurh7tQO1YgqYrz2oNAcNXd9XvReBdvI8ED6XDVSuccIdQOAWOcMLdYWeJEJEVF36hy2RAG1YI47kgO3553uf+vPbf/yD/beeVDpOtoTERWSA5QRfboQbcWYug92e4QfPPzRE33bH1c4JQDWge3b34jhRhqhFDg78RTsbHwPzLFqP1Xfjb2l7zHgxroxM15+zr+1j1bvv6gcTF5bD4pX1sK58+tBscuLqgh1A4wIQMQ5ezjKWF0Yrd5tEgzmDS3w1RAvaIJEd2qHSlsdPFl/RFaDcYp3drHCuRjD2YtVKRgXZW+UYg3haMbUetw0tuYuD4venCz5Y2RRilJmDvlE18Ntid5/6k4O//tXd9+4m4iwPX895Zw+KiQ7dMZpw6w7jjBo4Mdjp3wEm4FTAmANeNI5b4JTziBvbUUJB6CDhqiFRdpTuoNLf3qP/uw3qnjt/2WAt4N+9Sv/1HWwdt+ltXD2Ojecu7wWzF1YD+eyjaiKSHsAFMcONdG0xSNKmZ3ckRzG/vLPaHNvycKub8ss96bPVICg0ep9MtI1LNj1K302RGfydG0Ii8dr98nV379WMAxhYzh7iRqr7pO+cplArKFIkklZqx35RNeDBaf78z2pbf/ytd1f32chREc2SR3OEHUkevk7+7/IFw1cjAyG4Ng2vrn7fcf+IXic4pQAWBXvwxW5WcisCVNYiEJNs95uPH3re9hTo7h0+Bfg1setb+35t9Nm3L1X18LZa92wdHEtnN3RiMqWH9WhOADAOp5q0XSULV5EGo6RQ2/6DLW3dJfc7F0fYOSdId2V3KqL3piYdh8V8V/lERZz7CtImu3cndyh9pbvNI5+bPExU2YHdyXP0CPlh+TSv2mtoUmSSSkzh4LTvbvg9PxrZ2r4i//3qpseoHcTn9n5azCREHmrj88Z2sEPT+zEdK0EPd2LB/C+zbz5TwicEgAr4Olbb0S9QegWF0MZNYwHt4lysJ97Emdz2uzvn/X3X9CISld5kXtlPZw7rx7MdbZ2eUYIgHSsWtMyi34xNEyR5IHseeH+8t2W5hBHe1sIBEYEUyTRnTpdWTKBg9UHpa+KAEwsaAZHAkOQgeHcxdF47SHDi0oAjDV+dqVxhehIbFeWyNNY/VEhYR5yvAVBICApZeaQtTumC4nuL3cmh/7+qf0vuutJPedFb77lRWQbBcpa3WznEjw5uwc50Y1bD35o8x6CJwBOCYBlcO3QO/HDkQ+jkDwN2wvPpJo/SX949Rf0wRLMLz76lhc0wtn3Msvt4/WH7Wl3D+KdFtxc9M0FD1r7IjMxlL1AjdUekoGqYv3OthYWVP601c29qTOUG5bEeH3nMo6+tR4vQn/6fNVQVTHX2E1HZwbExxvIXKAaYShmvYNkrOhXIACsNRQIgpJGlgqJrsm83f319mT/P1zed/2PupPD0c0/ezmZskBdqW0cSZ+3nv4M7Hvo+0gZzinTYA2QR3+Ixw+uG3wb2p3LkBSdGMxeTqaREtPuTuScAd47N7btloOf+OBY9a73alZ9lWC/SJltoSUy3IgqxIiIYIjmbr8OwUpgMHJ2DzxVQahd2thtiRcXgdCZ3K47k1v1pLtbzjQeFXFoT2L9O3dsRhjkIGUWuBJMiKN/ZCTaE1t0xZ+TofZBq+9BRJBEAALtcS0opmtB6aJ6WP7lg5Wdpx2oPFi+ZujXx89suzLaW/4RpmujIiyWUT2QxG0978V3rQClxmnw9b1HOebHL05pAAAuocvhdD8VZ6SeDTNk/NT/PCkOsL3wFGbS7SPlu145XX/wtZPuA9tCVect+WuD/eVbbYLkntT52jbaebK+T1aDMYp37/UuNoXB7CVhyTtoxJ55c52fB4AIjlHg3vQZSrOig9UHZKTrOHrHnYYlUzyQOU+NVO4xIu1j44+Nhi0z3J+5QB0o7zI0R+s4FgHNqggAIiHTyNrtjbzT9d32ZP/fndVx1Tdr/mz9/ulvE5OgnNXHnifZzmagoyISB9P4vv6jo5iHxyee0BrA07e9D4OJKzCSewCmlUEtHKPd4Q/FPZP/wBOvuoduvu/Lz9xd/O5nD1R+8qrpxs5CqGvaNnKUsXpF2T9Aka5TJTggAl2jntQOlTJ72FMVobgBgoG1PdzxLps2O5hZiUZUIlrzbWmp/BptiS26N32mLnpjcqLWUvmPNmwXn0NxSDm7VysOyVflo9BQFNJWJyyRRsmfFLR+U4cIRATikH2uhyWr5hdPrwelF0y5+58c6IY8rf3SfW3J7kbZG6ditEekRYKyIsEXtV0Jcrqxo/Na7C396Cjn5PGDJ6wAuCz1Toiki5RdQDufjWpjQlSCSXQkz+Jz268f/ujdf/3OA9Wf/PFY7WdnuuFkMwWPhSPzSJrtKPp7m2mzEoEqUyUYEykrz52J07RikKeKTR/AkaaYAGgkjAIJMlAPp9coAOIwnSQbvemzVdbu4tHaA0bVP0ix8Fkptr9exKaFY+TYkgnUgqmjEAAaBadfK81UC0skN/74NQWBYMUh16OKUQuK29yw+gsVb/YyrdnbWrhgtD04x6v5JX64+lMqypJI2R3cm21DV+ICOHgKZrxbN2F+Htt4wgmAczrfh+3ZyzDAv4B+4ynY63+bysF+ev7QJ3lr7tzE/sqdL99TuuWvD1Rvf/5s4+GkYp8BQxCIAI2k1cW2kdYlb69YcNZJaA5RDUaFp4rUmdyqctYA+6ohIl1rTvPy2gA1d8Z4gTlcDSYFHTHtdsHRN5i9QIXsidHKvTJQrdj+ZqJ5PhLI2d267E+JOCV5I2aAQEdyq64GFREodx2azsqDa2oEUBxyPSzLqj97Wi0svmDWHXt2aFSdwfZt+y2RrlW8WS75j1DdZ2GEST6ttw0dyXPREV2F8WAAwIObOmuPFTyhBMA1A2+HIUpImGnUrUdod/Df4u7Jv+fJr95H7//nP3naz2f++88PVH/8lkn3vq5AlZsefSEwXwSjkTZ7WJKJSjB6iENMABAIdZUq/gFhSpO7k6drQ6TghkVqZeIdCmoe15IpnTCzXPEnxZGEhSCJrtTpqiMxrCfqDxuzjd0UL/qNh+hWB0HpkApOv/ZUVYTaxfofHQ1LJlFwBnWxMSk1qyM5ANc1wFgQSCiO2I0qsurP9dfC0nNL3tSzDGm29ee2Td5+8DOzY7U7mK0s+SGLFBX4ki2vhzAfxdbU5Rip/vgYzN3JjSeEE/B5w3+ESTWLjuRZMFSAA7WfirI3y2e2/xZ3WFbhodLXXzdR//lbpxu7Ovyo2Izftxb+4qmK0J06nwkSE/W7afkF19qhFWxZ4L7MxQrs0Hj9YelFswAMEMQhefdxckxnchv2l39GvOIxI1gyy/2ZsxVAdLB6nwxUdRMcfWuBwkDmAuWrGk27j4j1nTM2V7J2n+5MbNf7Sg8ax3asxAzNDE0GWZSx2pB3uh5qS/T9bW9y+xe+suctBwCgO3U1dSfPpPZkH2cTW3h87l7YiRTk/h/j+/j+MZ7PkwOPaw1gO96I0/uehO+N/hnGwtuRo34qBqP0ou2f5bM6rrUfnvvyr+wqfeMvR6o//o1pd2dS6YYGDMKygfh4p847W1SgqtSIZmn1eL2E4gaVvf2CBKM7dYayjTzcsEiMAIdOvRAm5eweVfEnRVyqu7iwT8Xntod0X/osXfIn5HjtAaE43CRH35EQj0EKG2mzncv+hFjf3tGau34NNkQpmCZxbB+9lkZAGko3VBXVYLazFhafVQmmn78ld23/Rd0vPnjP1OemJ927WVCK6n5RZJ1O/GDkHuRxB04buhHZchemH+emweNWA7hu4J1woxoyVi80PCr5I3Tv5D+yhOanbPnARWPVu9856T74gpK3z1Dc4KadfoTkHY3h3LVh0dsrK/6IOHJizYI2YIgkupPnKsfs5hl3vyz7Y/NORIaGIWzekr04HKneawWqjgUBEWf09abPjAxh01htp/SiOawvo28zoGHJFAYz50UjlXs3UB2oMZy7NKr5dbl6AtCxwNLswqSZRc7uGm9LdH+5Pdn3+Yu6nnl7ykyHX9z5frKMArU7g2wm+nlm7h5kkjl0jezBF/HF4zTW44vHnQYg6X24duAy9CTORNrsxVjjp6Lo7aFtuev0uZ0vbktY/a87UP3Jxw5Wf3p1JRihuPRWCqxBGBIE8s4WqofTFKgqrX0BSGgOUA0OCs0+ulOn64TRjnpUIs0emiYH5ZweNKKyCHWjaR9HSJodPJi9QPnaFaPVn8uwGds//iAoDpG1u3Wo/eb1r/XxYUhho80Z1kVvWkY63Ez7f63jJ4IkANrXLteDYtYNy5e5YfWXJ2q7txS9ybF3XvWZyT//5Av0e//uo+QGUyKf6kY1kcALX/9pVPeFGCk//qIGjysN4LqeP8D3U/+I7vAcbIvOI1fN4t7Jf2FmxlMH3/u0g/W73jPd2PmUin8AmsOmur/WrD2GJAvDuSfr8do9ohHNNFNr14Z5ygxEMEQCncmzVNoc5OnGAVnyRikukX2SnvMOUtnfR4IcdCS2qZzTw1P1R2XZP3iE0t1jjdiO70qergSZNFG/f41+gJaPo527k2fpkcouybzYxDkRaKUZaxCIkkaG8k7XVN7p+kZ7ov+fnj3wG7c8qfOM6I9/dhMm3L2iIznMKjA4xzlU5SwMJ4Fb9j0+kooeFwLgyv4bIVkjbXQg4ghTwS4xVrmfc3ILb+u88PyJ2s43Trk7f3W28Ug20nVu7bhrW0jUVLQVTJnmocxV4f7KD6xIN7B+FXxBDABAwujg7tR5itnCeH2X0Z3aEdbDOVn1Z8RQ9oIo1D6N1x+S4XFz9B1p7BGSRgd3p07Te8t3rmn7XygA2qYd2cGjtYel3FCm4zEDtwSBI5PI2O1uW6LnG+2Jvn/pyWz7LodcHqvdR8VgmtoSWxkH63z7R2/GZX92AwzLwA8PPraZih7TAuBZW96NOnsYKlwOqRR2zdwivLCKq7v+UCt5MPnzmf/+jQn33hun3V1b3HCqSVclBVYsPlm8pFsEmjz/qm3keTBzhTpYvdNQHIA2vBvH59IcQZCBjuQOnTb7NcNAqDwCNFeDWTnT2NOkAjpS6e7xQlwdGJOF7mxWB64l0SnEQObCyA+VnPYOHGf7f+0XF0cOmByZppzdHuScrlvbE/2fPb39Sd+o6+na3eP/SwmjkwpWPxNpDtiFCpK4Y/KxW4H4mBQAA3grhvoAn+dgGWkItmnO20c7Z76kAeC6ofdeM+Xe//uT9QeeV/T2mJoDDchFZbmLL7spF3AoA7eEIRzYMsO2kWFJNjJWF6fNPlkLp8GLeHs2CgKBmaGhYJDFGauHpXB4vLaTxmr3NhONjOYuejIsmNZiviiqh0VZ9PauuTpwa+4yNeNOylpYhDhm+QqbgnlBYIsk5ZzORlui5wd5p/tf+9On/4/P9fJMfYQIAgohEwFFl7Br7i9O9Lg3hMecALiw8DZk0hG6nDNQDcqYDR4Ro6V7uSDP4DN7nzqwt/yDt0zW7/+dOW93LlBlBiQIohlbX36xC7JgihRsmdaWkYEjc9oQNgkyOdK+UOxzxuplU2S4GkwZB6r30GY6sZg1TJnA1tyVKtIKgWpACsFFb1SW/THSHOD4e/0PR0udLzjDOm228YHqPfLIGoCGJdMYyFwYHSjvMhRHJ8ABuKGrXZRLYFLGatedyaG7OlL9/96dG/irtuRA/ZGJO0mzx4IIY0XgkdrHT/Sg13+VJ3oAa8V1uA564CrccuCDICI8qf/1oupP4qr+12hwmL5/5hu/PuU++KYpd+c5tWCsudIFAWrRNYomO22aHSPHjsyyJdNsCIcAINI+QuXCUxURqBq8qESARl/m0khpCF812DbSGKv+TG5W1l28qAJ0Jc/WpsizIWzMeZMCzOhIDihBwKw3IkveQYrzAU60RhBX9A1kztMj1btlqFYLBy4kABXsLTxSeUiKDXMdHE8QGBoMDUkGJ82cytodsIVjRByi4HT/xeUDz7lpe9eV9a888AlRV2VNECgYeXx75LFlDjwmBMBTt/wB3CCEY+QAhDTX2EPjtbt5OPtk7kqee/aB6m3vnqjf9ytz3qNm7N0HAUSCLFgyzbZMw5Y5bcsMTJnUBBKaQ/ZVTfiqAi8qCS+qQLGPhTx3hhQJDGWvipQGjVTukO2J05QtMxir3b1J/HjxeQiEbfmro9HqLpm1O9kUKR6rPSgFbGTtTt2e6NeafZpt7BeVYILiMZ5YQbA1f2k01zggy/7BVchCYwHQnTpTC6QwXt8tTlL7H617oaHBYJhkI2MVdN7p0lIYqAUlUWyMw9cN6kgM0FD2zA9/4MrPvPM5X4a6euBtYszdqwUZGE5sw/ceQ6xEJ70A2EFvRFtP/NAYZKESHCDHyHEhMdg7Ubvvd2Ybu393zts9ECpX20aWE0YelsyQJZJaCpM0Myv2RRBV4akq+apCoW5A6QYOT/UVzTTdEEmjk/syl0Vlf0ZOuzsFoNGVPFcTEU/W798UAdDa/bPWILcltql95TsNxyigP312tL/8gKE4bO1CyFqdOu90aUDRbGO/qAaTzeYerbLj45lUE6IndbaSwsTB6j1HmAvGcPbiqOxVZCmYpJMsAoBWlmIzEoCEkeG806kTZpYjFVDJmxK1sEgRhxCQaBKYos3po6Hs2R+/uv9X3v3k/qc3/vLum8iTLgshgGkPd9Q/e6IvbE046ROBzt3ydAjJMIVDF3e/BSGKWT+ae8mU+9Cnvaj0Us1hJmv3hwVnC5JmOwhCBKqGWjghi94+Mdd4VJT9/VQPJ8lXJYp0A8wRWsQd1CziabL0ghGh4GzTfenL9LS715jzHhZEFgBGxuqG5ojccGYzKtmaIHSnztRlf1Z4qkKRDpC1u5iZ4akqyWa2YUOVqeLPCAahPTmkC06f1gD5UaVpGqwpl2lTxhtXBxLl7B5d8qcEr1gdqGGKZgGQt+kFQEd9HQwGQ0GSgZzTpbtTW1TWbocfNWjGPShnvYOioWpEEFhUukwEATeqwI/cq0r++OAB99HbetPb62VvUsxGE+wnGedmn439lZOfd+AYF2UcHa5pewdC5SNJGfrOyB/xJbkXGMXGo++vhONvaoRzFGkvDHRdlPwRy48qiKvUDvXmtzzpMXjR/zG/b1Hzd4U2Z4fuTJ6jD1TvM9xwEgQ77ncDQJDBgXI3yYhtZfq1wZQprgaPNP0KIWrBLGWsNi75E/MjlE3VueRPiGowI3J2l+5MbFcFu49m3H2iFk4fJ9OAAQg0wgoBgCNTaCxLFtoKnSaZQQiVjw0QgGwyFtR8gGGJBLJ2u87aHZpAqPgzsuRNUcAeCAICAkYzBHvIfJKA5KI/oVHBb4BID/af+4ZXnPWH9X9+4I/FbaOf1w9jDNduuRE/2Hdy5wmctBpAZ/JVyOUNvPyCj+Obj35U9Kcu46lgz6+OVG57/4HKj82St19XggOGG06LQFURs+kevqsfGc2mGSTQm75IZe1h3l/5meFFc1jaD4+RdwYiLyoLf11psKuftyd1tvKVT5VgYp4HQHFI7YkBXQ8rIs43oEWfiunG3KhCZX9aCLLQnhjSObubQx2JUNdx7DWCOBqQMAosSKIRzS2jEcXXl7V6tSCLSsGMOMYFQEcYL6NVZJUyctyVHNLtiT4thESxMSGn6vtlLSoSgyGbQvRIByUINFSVvbB+UTmY6o1A3zu77WovVFocDEd4ikZxsfMyHGz85ARd95Fx0gqAJ3U9CwYT7p74qjir8/k6ZXVs2V363l+N1e7sU+xpgMTSxb6Rhz3ehQ2RwFD2ykhSmg5U7zLifPvDnVUFe1DXwlkR6vomCAANW2bQntiuJup7pOKQWkJLsYe01c6SLNRXoAiLX9NwoxJVvBlBkOhIDquc3c2amWIhpbEaGcnG0eIlMJGxOlatDuxIbuVG1BBuVDkaBqANjhHz3nyTLBScbt2dGlZpu429qC6m6wfknDcmfOUequav+SQEAU/V4Ef1i9yoeEZDV+4oOB3FvNEv9pW/wgfNn+DKtrdhtHrbcbz2teOkFADPHnw/vj36AWzJ/yJ+OPondP/0FzlhdPzhaPX25/uqpGP23aMDzS/+FIazV0e+isRo9S6pOVajl6vzzzsDXAtmRbRh5t6l525LbNUakore6Dy7UIsghEhS3u7RZX9arHYk0VRRXVWmij8rJFnoSA6rjNWBQHki0nW0BMFm29+aNRWcPl0JZsTh+f1x7UR7YkiX/RkRap+OhwnQukYNBQbDkSluS/Rzd2pI2TKBsjctJ939shrOkuYIosnPcDSnJEh4qsZeVD8bwOndqS3f7s+fUXO4Xzy35085Y3Uha2/DSOWHx/z614uTUgAUsufgYPvt+Gjj0+Lsjuv11uxTnzFSvfVP5rxHE80hH3UOXmx/d/FQ9uqoHMzJyfp9Aity6TEIEnmnj2rhFMXMuEf3MBMMdKfOVDONUXk4FTghVB4VnF4dKJ98fWT6LNEsK65HZar4M9IQDjqTW1TG6uBQByLUNcSCYLNMA4LmEFmrR0c6oEBVFl1DrCEkzBynrW6ea0xsYsejlREr+REEBNJmgbtSw7rg9GiAabZxUEy5B4SrKhSTpK+VtHVtkxELgTo3wtrpoQp2ZI2O7/ald9QfnPmOgG7npNGOrHUaxuonF+vQSScALu/+A0ht4u/0/4rh7NVakrFtX/nWm8dqd27XHOmYqedooZB3tune9MV6yt1rzHmPijjTbpWJIhM5u48rwTipo+jeQ80wWs7uZ9so8Iy7Vx4qTAgCGj5smUHCyHA1mBFrJQolSGgo1KMiVfziIo2gkxUrClR9U0yDlhZjywzbMoVaODUvpFrUZVm7h02RoqI/eYx2/9ZuH6v5lnDQ5vTqrtSQSpk5uGGVptwROeePU6A9EhtT89c8GIIkX7u6EdXOCnTjQpJ0p5TGdNF/RDh8Gvv1LAbz52K0fvJoAieVAHhG9x9AJcpwrC788MCfYufM/6MPf+DTfzxavf36RjSrAUNsfCdpPewKHYmzVHvybB6t3GvUwnE6cn09wxA255xeVfIOSt4wKWZrHBrdyTN1NZgTcbbhcg40huKICk6frvpzIu6Qs7Zz0iJB4EYlqvpzwhRJtCeGddpq59g0aEVMNioIWrkHAjm7S5f8KbH0bxptiWEdKEW1sLip9v9iNR8AkkaGO5NDuiPZryUZmGtMGFPuiKhFRWLWTafe8YlAiFgIqEZY3a5ZX9qR6L816eRnpvyfyeF8DztWEt2pczFSOTl8AieNAHCslyGfdzCi7gf5gdzR9hz9j5+45Tkjlds+OOc9Yh2d6t9qj03oS1+iMvYQj1TuMnxVXmOZLcMUDjJWty56B45izuJdM2EUkHeG9KS7VzKvdG6BSPvIWd2sWMFTtXXnHtC8j0ChFs1R1Z8TlkygM7lNpcwCAu1TzFrcoi9f7/QSNBS1OQO6EVVEXCLdaooi0J4Y1tWgJAPV2IQFuODUU83YfdZq567UsM47XTrUvph2D8iZxkHhaxcbdOptCghSBLqhGmFtkFmf3+0Mfz/rtBcP1ncJk8FSCAymr8B0dS9CVE/IGFs4aQTApZ3PhaEN5KmXLu35Xe3IfMdDs//z2bH6z047OtU/XnRSOBjMXhUJStFI5S4j0o018um1WHvTSFltXPIPHsWTPB/6074KUA3GxUqpGC1TQQqb0lY7V4JpsXEn3oJGUAvnqBYUhSmT3JHYolJmG4fa36BGQGAOkTLbtRQmFhKkNCyZ5JzVj7nGpGDoozI2gJZTD7BlAu2JftWdGtK2kUYtLIqp+n5Z8qco0iEEBDYvSWvjELEQ0G5Y2RJq/4qUmbszUGKiGE2LglngRqDQlTkXtrBQ9PedwHGeBHhq3/ugkw/ClDZuO/hRfOZnF2Pn7H/fMOnef2WkXb1yDf/qWLBTc9iSvTbywkCMVG6Xccvu9TXKFGSQZiUOTzRaDxQsmUHCaFMlf1ysNv3c3JUrwTRZ0mFbJI8yuYebGoGJUAeYcveKkfIDRqAU9afPj4ayF6uE0QYgBOZJSY+0bGMzoB7OiZRZ0Av7iYYjM1CsEPER+/+tcORW0k4EAMiYbTyUOTMazJ4ZWdLBZH2/sb98v5xpjFKkQxgwsVBodOJTjZv5BKIRVfVI5cEr9pZ+/vmkJa5OmQk95o3IZNKBY1nozV+OJ5/+jhM2zhMuKtPpN6EjGWCqthOKSZzZ9nz+h0987xkHqrf/6UzjoeRGVf9WWm/K7Oah7JOjsj8jp9wHms6+9RB5tDzaebZlmirz/f/WPx4gQiGxRROZNNcYEUc+joBmHxmrgwGBRlTelBTklmmgoFAP56gaFIUtUtyV2qZtmUGgGqS4Pj+Glad/4fW808vVYEbEDlJGzu7VzIKq4dw67P+lar5BFnJ2l+5ODauc08GNqComa/tl0Z8QgfZwjJ16mwIBSSEHyg0rXcTi8r709h9lrOzEdH2fTNndbAgTOgowWhkA44HjPr4TPnuXtl0Dgy2krEHa0fYctmSyd3fpuzeP1e48Q3GwAdV/wdmXs7fqntRFesJ91Jjzdgs6gqd/5eMpJM0ObUibY7V9Y9NGZKAndZaaaRyQoTpyLkHLm04kKWd364o/u6ka27yzkCPUwjlR84uUMHLckRjWCTMPXzVIsYvVW5wRIh1QxurUEQfkN8OB7Ykt7IZ14anaGijAlzr1HJnmjkS/7kwNaVNaqAQzcrK+X5aDGdKsNiN2f1xBECLiQNXDck+kgydnrM67degfmHMPiITMcRT66E9msb1uYx/2HdexnVAB8JThd2Mq/Bnyzjb84MCf0P3T/wFLZt93oPKTlzSimQ14/ZtJNCB0Jc9TbYkdfKDyc8Ntevo3Rt7VamrZzQSBWjguaJ0lFAuhvz52jAJPLxP6W+3TofKpPTGgAuWJteQEbOQa4646AVXDWVELSsKWGe5KbVFJq40XEoqAw8cdazamSCJhZFENJsgQSbQ5Q7roTcvVOwAvpOgKksha7dyd2qJyTgcrHYqZxkE50xgVjahKwKbH7o8rBIQIOdD1oNyjOHxmPtWz22s0dpWiadmRHoAkA1G2GyPHuYDohAmA525/HzxVRdJshxvOiXM6foW35J5y9UjlRx+ebezaQMJPy9Mv0Je5VGWsAR6p3GkEqhIX9BxV+DAWAIBGPZxatwBoCaau5Bm6FpRFIyquI5NQgBEgYRZgiiTXwtk15gRs5EpbgiBCLZylelgRjsxyV2qbskSSPFUnzS0y1MWmQTMc6PTqkjcubJnmtNmFYmO5FOGF2L2Ggkk22hI9uju1VaWtPNeCopys75elYIoiHTwm1PyVZnPpd0xHozhS9bBcAOjJA4Wz7k5Yib1lb0YmrTwDjOHctdhfOX704ydsZrutSxApBQGbnrPlYyxhZB+Y+c9PHazddf76Vf94FxJkYyh3VQTYYn/lThln7B0tc0+8eDNWD2kdkRvN0PoEQMsRmUfeGdZT7t5muvF6Ps/QrETB6WuaAUeTh7CWM7YEQYhqOCvqQVmkzAJ3Jrdo28jCj1qCAE1VPG4hXnD6dD0siqSRZVOkUQqmFgmrxQU5QMrIcUdiQHckB7QUBkrepJys75fVcG49BTnH5OqXW7wrYenGws1XeL4GYfF308QREfu6GhTzofKuTRn5B2d5bvdsfZQKRgduOfhTXND2fEwepwKiE6JPnW+8B7khDyY7+O7e94P/k+nSN7z6vY8Wv/3esr+Pm3z9a7yA2NnnGG08kLlcVYOymKw/IBaqATeDtSdCX/oC7UUVMeftXmPuwOLPh+hLX6g1S56o75TYECmGxnD2YlXyZqgcTIrjSazJTZYcW6TQluhVKTPL9WhWzDUOiDiXIq5HGMicr+phUThGWislaaoxIgyY85l6prCRNvM6Z3dqQQa5UYXK3rRoqCoWL/q1hWZXH/Fqf+Nl3suHfI6bUZPF51zgjW4JyWZvYhLN3wULiPjfFJcTCxIgkiRIaEmSiQQTCJqZLWmbbYneWsZuf7cf1j6pOBTt6R06DOdAfg3fn/r0Mb+3x10AnHPO+5CrlhGKBkLPE2mzRwsSz9hT/N4XRqu3FwA6lLZ3lcHHiz9t9XB/+opotnHAmGnsos0n0FQYzF4aVfwJWfZH1syEG4NhCBtbcldEB6u7ZCMq0Xq1khZzUHtim07KAh+o7ZTHv7SWwFDgZoivIzmgUmZWl/0xOdPYLyJdRs7eqvN2LxMJnnVnjGo4AwEJUyRQcDp11m5XmlmUvClR9qco5KBZdS+bM7V0Nz10oS5enotfWU1TaC3U+d/mFytxc5ESUbxQBUkmktz6XUBSvICp+R6pJRlakODmcZpM05AEYgJpEHH8DDMAkGYtNGuhOILWiiVJTpgZtmVCK47Yi+p2xmo7UHB6nyYFPepGNQFJGgyYbT6+f8+fH9O7etwJQTpLAQAHBifoRWd+UI+W78t8c/+7bpxyHywArA/vyrv8bY1vf4ScvYW7k+er8dpDRiUYXbQ4N3N3JAhIVjquAVj73h/XzeftbTpQARpRq2BmfWNr5QTUglmRz/RFJjmIDuEJOPZgUDPJxld1jFZ3yYRMi/Zkv96SuyyqBJOiFkyTJROaIeBFVaSMPOecTnZkin3l0sHqo6YbVcCI0KpObBXwLFmkSxZqLCJauyqRYEGCBUkICBYUL2AiGS9jklqQ0PFiFvN7NEACBBCEIoDjhRrfJmYWDBYMBpg5pmrXzGAwa2jWpLSmkH2h2RWaFWvWYGhiZjAzaWjieLHHn0Hrp4KAhGOkOGMVYBoWGlGVZhpjZsWbJSGE2pI9ZxA8cePPpm5+NRHpawbfTdIImCvH/v4eVw3ggp53QPMo2p2z8fPJvxW2SOm+7BU3PVr81p+sXfVf8PR3ps5RWWuID1bvM+JWXUfj7FvtjITh3GXhlPuw4YYztB4VPib8vCqacg/IajC57t1/6XVHGMpeqGpBhea8seNqBiyHlmmQNHJccHq1YzhsGykiSHKDik5aOR0oT1T9WeErlwRJSGGQIEMLCC1aCxoiXqcg0Vz0urmjLixSMAEsmBkMaIbm+HcGsyYNbi1A1qyxaJGCWRMzk2YF3VyUmlXc26Fls/OCVtG6rpXvw6ELZ8E8aH1eQMCWSc7YBZ0280wguFFNVP050Yhq8yFPWyS4L7Nda6W5OzPwu1Nz+z9HUogtvefrKHKhXR8/nP7kMbuHx1EDeB8ydh1+pFHxdovLen5PRxxcvmvuf95U9kewtp2x5emXGMheHpmiQPvLPzVC7R6zxR9vFgYAkpoVrSdNFgiRsftZM6EWzG5o9198NAajEkyLnNWnS97kho+1WYg1AqARVcitlaQjs7wlfx4njAQFMiQ3qErNim0jrW0jA2YlNGvSrEizkqEOOF6IurWLovl3yayhWn9rOddaCx4sF2i6+PBhLf25qi1/6N9bDtDVtKvDW8ssCA2TLKTtvM7abdoUNvyoIWbcMemGFUQIQfNGT5yJqjgigFHzy4YUxnu39Z63C5F5W7kyK4JGSqezhO70OzFZ+5Njcg+PmwC4rKuMyDfhGEN06fDv6vHq3YX7pv/9ppnGrh5AryHmv8jTn70yUixob/k2yayBY0w1LUiCQKTnSS/Wfq6c1afLwbRghNiY8y/GghkwR52JrewYaXajCp0MPPsCMmYaIAFT2DxSfljMeROyxVGwYK3PX3tza1/cmJWWWZKLX1n8/4WvI8/byv868nyvBGou+WbvABhImTnO2u06YaRZs6JqMCcrfpEC3Zifo8WU6K2fmhU4Zp1Uc/XJ4aSZfvdFg1f+2gXpJ1Xu2v9dEsR8dpvCZO19AN636ffuuAiAc9KvQiZrw0QnvvXoO+nW0Q/xxT2/88bx2t0v8KIiH2nxt5x9CaOD+zOXRbWgLCfq94sWB+Cx3QkZggwGQSmO1jFfCrbMwZIZHqvtkZszToFIu/CiCuXsDu1GpU067tHOUOwf6EoNK2YtW+nArfqDw910dNhvhzr41nreE3Gt3Mw3SRppTlsFnTIzDBLUCKo0Udsn3ag6b/uL+eIqXna8GgylIxjColpY5pna+HN3jt/7poOlf/2ArxVd1Pcc/va+d+Lpbe/Ed4qbfz3HRQC0t7cjQhnl+pR46tZ3aa31k3fNfvXNc94eHOkBbi3+rDWge9IX6Rl3xJjzdh8DT//yZ4+prQwQwFqvjQiEmh7zgjOo62GFFDdwNLv/oUcv+mOyO3l6ZJCNE99qi6ARoT0xoJlBZX+WDGHO/235a97Icj9x17fAJAzYwkHayum03caSDPYjV8w2xkUtKFPszGyxCS/WSlcPS0Y6kKawICBQ9YuYro3dsKPrytvA9N3Zxqjo73yVrqc94BgIgGOuPz55+B0gSoAbHXTnS/5OP7fvD62J2s/fNtN4uA3QqhlGWWHi0fT0b+Xe9GVqrPqQMec9uojA4/g8PoLkvP25FgEQN/NIIGm260qwMmHm+tEyA4rQHCJp5vTRkZNsxoiaTDyJPjXbONjsEbB4vI9FLGQrKoQgAGkjx/3p09RQ7owo63Toml8UB8oPGaO1R0QlmCMASyoS16adxOdRHLEQsvVw6VJjJj9TH393IdPTdVH/NXqr00EmLFwzcOOmX+kxFQCXDL8Gggk2JfDA3H/Q4N8/GV/c++ZXTtbv+6VAlbGy6h97+gFGT+pC1ZU8V41U7jZr4fgxdPatMklkNkuBj3ze+ao/Z4AVa7hh+aicf8sfP0QtnBVZq/0Er7C4h15HckgFkSdqYZFkU1g+VtEKSzIYCZnmnuQWNZQ/O+pKDahIhzRa3W3sKz1ozHhjFHHUXPTG/Gc3dD4dshRSxzMqRKB9nqmPP3VkdueNrzj718StBz7EFgzyx+dwVe61m3q9x8wE2LLlt+B4BYg5jen8Q+LCrl/XisNr95ZueVfR2ysAwUudQC20KKcN9GcujwSStLd8e5PAYzP68a0XDEOYvCAAjpwaSmQh5wyoGXdUxLX1m9cOq+UMLPtTYjDTE5nCQaSPd04A0GQDQsrMc8rI84HqQ8Zjs1DncBU/Y7fptJXXkgQaYV1M10dlI6wu8eK3VPzNaA8X6pCIBMVt6RgCAjW/hOna2Bve+b0b7nO7Gv/gqwZdtuUsftifwzPbfh/f2rs5nYiPmQbQXRsGzz4F3G3RW6/4nD6v+/rUVP3BG6fcBwcYkY479x4+GS2e/uHctRHYpv2VO5o5/SeuqaQUlo5ZiY6kbsfjz5gdDBaoBjPi2DjpJAJVQ6g9SpsFzTiUkvt4IHbydSQGVdmfEZ6q42SISKwFdJiKT8habTyQ2a6G8meGaSvHZW9ajpR3GQfru0UtLILBG1Dx1zKHBMWRIKLFLecJIF1uzFiz9ckbB3Jbt57dfbHe400LgzW80MCL8eJNmYtjogE8qf2NcBJTSKZGcX/pG/T+H97ObfaO35qs3/cLXjS3bMLPgqe/nfszlzc9/Q+IhcqzE6VWMiSZHDfu4DW5HbNOny75U0JzgM3c/RfmKn4Aq8G0yNhduuRPHOf5iR1/GbOdTeHgoPeokDDmd9GTE61Z01DQEJBIGhnOWAWdNLMMaHLDKs01Jk03qs7vxPFOD2ATdvuVRqV0BCKKCGQuSm8WEUd6zp08c6y856Y/u+Yzr3vmf0FdN/Au0mDe1zMETBz9+Y+JyDaSWRh2AbPh3eLCzlfobdmnnz9eu/sdc95eAHJZ1Z8RIWMN6IHMVWrGHTUm6j/fxIKeowFBkjlPTbU6FGyZhy2zXPLGj9Huv2AGVJt0YQkjy3xcF5+GJBNdqWE12zgoF9KST17bXzftelsm0Jno18O5M6Oe9LAWQtK0Oyr3lx+SE+5+4UbV+USdhcKkYxtp0qyYwRBCLhEyAoLcsIap2sHfeu9Pbnh1lp6BB6buQsJ0kHAIF6Vef9Rn3/SKkmsG3g8BC1pF9NHrPsbTjULi7ql/++ho9Y6rFvj9Fi4+hkJbYofuSV2kDtbuN6vBASLYx3DS1wNGzu7nUPvkhrMrknG0nHPtiW1aMVAJxsSxjbLGdGEps41N6RxTnoBDr1RDoTM5pCyRoMn6XrG4mCdndyKue6jhRLH2LFbxGRqCJDJWgbtTg6ot0aclSZS8GTntHhDlYIZC7c23BjvevpRYyICydjuFoU8Rh4vHQATSgfIMIeSFZ/Scd0d3emCk4s8JzcR20sFp9jOxz/3+hs+/qU9oP14ISRU41oW4b/Ij9PKvfo+7kpe9fLJ+3wu9aA5LVf+lnv6MNcQjlZ+ZjWjuhHj6VwZBkBSao1WfjPhBc5C2OvVEfZ88XjZ5OZgUnYltSpJ5XLzvDAVLJDhvd/N4bY+xUDZ7ou/X8ip+zm7XCTPNDKZaUBJT9VHhK7ep4stjruKvaU5ZA8wshGRWh8XFhWatZ+uTA7ZMvOvyrc/81aHC2bXv7voPMrTBbHhHde5N3TLO63s+GnoW9WC/GMhcrQuJHZeMlH/06Yn6vW280JcKiz39A5krIlPmaX/lLiNQNRwLm1kIASLa4AIhtDmDyg2LwlcVLL/Lxrt/W2ILmzLT7PZzPHZjgUA3KGd3c6SjDfUOWO9cMDR6U9u1rzwx6x0kY9H9OlEawGKiEVsmuc3p5s7UgMrYBYQ6oDlvQs64Y6IWlkhzNF/VeLJAQyNntSmltAhU47AuSgSiUAesdLTDC+ret3b96w8m6vtFb2aIvzd4EFf6T8WouzECkU2bhWu23ghDEmzK0W03fYK9iWutb41+8lOj1TuuCHVdAbLJ8RV7yi2Z5aHsk1XETAcqd8m4ueSxqG4jMLtg1pDSXufx456AbcnhqOJPrtoVmGCgN32eKnoTwlNlOh4CoMUTYAgbKatNx70DjtV5m2E/I8dtiX49Xtt9WFOT4yUADlXxTTKRszu4M9Wv2xLdGiAqe9Ni2j0oKsEMhdrHQqOQky1UGQvVlJWDgEFeVF+hGzTBVx4R0QU7Os//aVe2f2/ZnxUe38E92I5cfRhTfP+6z74pJsBzBt6N6foM2sUv4ED0N/SkD72SDS68ZKr+4PObqr9o5YW32HsGM1dF1WC26enffGdfvOOHyGYLePvb34nPfe5fsGfPPSDKQkoLWus1aQRxTblAbAIs9/DEu3/K6uHYMXesQn+HY8EZOCtydq82yIFaakNu6tkIQEdyUJf9aRFo75B012ONpSq+hIGUkeWM3aZTZpaZFVXDkpisHSBfuwBw0qj4R55ZQOlI2JQ80gToYmO6LVXLvHdL+1mPdCeHRhPlnNAkdbbvNODA+s+9KSK6wh4CFaKIr4uzCi/SHc5F28frd7+j6O2RgJgPnsee/n4ezF6tpty9xkT9vuaOdWxtyNe85rdwzz234u1vfw/S6TSUmgORghBH2i0ZgiTiOvTVvex5e0CX/Smh+Og7B68PAr6qINQeZaxjlRMQ7/45u0ubIsFzjXEh19lY5WgQL/uWFz+JrsSgHs6dGXWnhzURaKK219hbflBOuQco0I1mEc7i7LyTc+HHMxuPMuJQCyHV6u8lEShfT9fGn3KwvOemL7zydeK2gx/WScMiJX8ZF7fftO7zH/WTelXhBiS2mMgl2unFZ9ysk1Y+PVK57b2T7v1naw40zXf10ehMnqN605eqg9UHjLK/b8NU3euZXmaG7/vIZNL48If/CPfffzte//obYFkGtC5DSgGxCv+oJAPMLNU8vfWhI46r/myZ4aLX6vZz/B44ajpTq8GUyNgdTMfg/C0+v87koJ5tjMromGkZC1cFtJiDNQxhouB066HsGao/c1pkG0nMuuNyf+lBOVbbI+pRBQSCAXOR2XHyLvrFiFOBCJEOIITEke6fgKBaUMJMbfx3r/rE215+Sc/rMVHbT33hKBLJKp4xtL4uQ0clAJ6V+13onEb/5DUYq99N/3D/i/Fo8bsvnarf/1I3nAbBpHhHUuhNX6xy9jbeX77TiP92PDz98fFlM/IYRREGB/vxl3/5YXz/+9/AFVc8FUpVwFyDlPIQQRAvdkEGM1gvx2/f8mdk7V7diOrNJhrHN/QVz6GBajBLlrTZlmlsZk5Aq7KxLdGvQh1SyZ+mY7P7L+4KFAIA0mZcgLMld3ZUsDu5GhTFSHmXMVp9WFSa7MFxdt5ynIKPFTSzAXUkBAm5hmxKIghdaswas7WJm3ozW4fP6rpMT+LHgjmBhl7fvT+qp9XN5yBY4eHG18XFXS/Tp+Wfdtp4/ec3zDQekYDUjIgEGRjMXBXZsh17Sz8xfFXF2ppybj6kjAtVlFJ40pMuxQ9+8L/493//d5x99kVQagbMjfmIQevmCGEwWC8rAOIQmI202aVL/mZW/a0XMU+Ar2qUtdvVZlYIaihYIsVZq4On6wfk2noGrg8LBTgajkxzd3JID+XOjDpTg0pxSGO1Pcbe8oNy1pugiEMIGEdVgHNyodl6hiMiIkUkFr264ieEbmYJjpYefXdvaovzh8/6sDaFTWmq47TCm9Z89g0LgEsGbsJTBn4HhkrSTw7+hb7hst+Ue8q3/OFU/f4zNPsaUMI2crwld12k2KD95Ts21JRzsyGEgJQSWmtIKfGSl7wQP/3p9/CJT9yMwcFt0LoMIg0jDlpAktHsTHuoeRbv/nmnnzUYbji3qVV/G0HZnxBpq8CSLBxdE9MFMICu1JCuBSVRj8pNT/pmUK0vqPiWsLnD6dVD2TNVb2arMoWNucaEHCntNMbr+0Q9LDdV/FavgJPJrqc1fi83ty0qMSDSIROgBQmo5lfs7lz4WugvoAEQuWEN07WDv/2jka/d8JzPEW4Z+QAayGB7eu3LekOiPGsP4PzO6zGceBbuLP6tyFiDOiFSv7Jr7qv/MuXebwPghNGOoezV0aw3Zsy4Dx0nAo9FF9aMAmQyeezadQd6e3vAzIt2d4CZobUGEUEIgXK5jA984OP45Cc/iTCsAZREW2KrThmdfKDy02Vi+4xt+aujojcpit4BcSxyGNaO2GG5JXdJNOOOikowc5SkoQthv/7MGWpv+X5D6dVtfw2FoexZqAVVzHkTWExd3kqrbT3ABplIGBnOOx06YWQ40j6V/VlR8ecobHYUFvPMwdikeaUjvrryuVaiKV+NdGwxbTkt+Yr/i+nIAUCSRH/mdOX6NRlEnpbCiJ/LmDi1+bXAeNwiVAXDSFrpIJsovADA/0UqlIaRUj/cz1B4/xFnZENhwLOyv47AZ+zW3xRntT1Ph9rdsWv2G++Y83bbAHTGGqDe9EVqsr7HKM07+04mqR2DiJaYBdlsFh/5yB/hhS/8RfzJn3wCX/36lxEEdUoZ7TGzNLcEWDP0Z3axIJMrxzH0t+K1QEBzADcsiozVzpVg+iiPyBAgdCYHVcmbEuEGwn4Liz5W8QUkHJlCM3SniQhuWBUHq4/KRlSLsymboTtgoc9O62jLjXGlsR/eQ+Dw9y/HS7SUwuxQmvJWo49YPAkhuUlNDiIJETcJIQGJhYUq48/Ex2jSH5OmuLcAa60hhUG2kYAlHOmIlA4ijwnE80zFHDMeM4NYa6lYccQRwAyllZZsOJEZXKs0/58fNZAhgYt678Od40e+R+sWABd1vx6dvRq1okPf+9mH9d+8CuanfvRr7x6v3XtJpBu6K3Ue5+yt+mD1AVkPJ+jkSutdHosFgdYaV1xxKb7ylX/D9265BX/+gc/zLbfcRuAGpMxBa4VW+kBbYlCX/Smp9GZSfm0M8ZkFSv6E6E+f0+QJ2Ki3foHmyxA2ZhsPryvs19KydDMkaQkbGbug01aeJRnwIpdm3IPSjarzue/xbi+XqMXLXWHrt0N5fJcs2FYPgebvYlEvgdYibvYToLgByMJine8lQCSa71WEuJtP8yzErcaIDB0TejIzMyHuMQBmFpq1YNaslUbU7BHArEnHi1lq1oh0gISV4Y5kt9K+JjYZEoauuWXpRw1a0H6WuUFo5dNqGNJEKkpf3dnWa7dlOvx9449QGs9k4OtruNPrwLPPeR9q5Qp+5H4c58gXyaTVrizKvWzX7P/+40xjp+zPXB45spNGKj+Toa6dMGdf6yE8kgmwEpRS82YBa+A/v/C/eNd73otHHrkbQmQBkjApgYH0JdFI5X4j1N56p/IYQmE4e7Gq+EUq+mNCbEAwcVwCjW35C6LJ+ohRCWZwZAEQRwsGs2eiGlRQ9CaRMds4axe0Y6Q4UJ4oeTOiHpahEADzi35hR22qvLyw0wo0d1BqLmCWJLUgo/k6gSAEHaIet8QA4s6qLeYZzYwWsRuBNcWLlCnuJaBY65jau9lHoEVRjmafgfiTvND9L6aJ08tqt3zY7LR+UsuGR2eqV+ftTlWrlaQfNkRbtluzJrDQeroyZsQ7zcpmMxFBs+aUnaF8uqPkWKlnCBJ3MStRrtf1lgtMfO3W1duLrUsDqJerAAhXOTeIM9qep7yw0vPjiU/+ftkflYPZqwJJabmvfIdU7J/QxX+0kE0HYEsQvPjXfhFPe+ZV+PjHb8anPnkzavVx5FMX64AbFGoXJ7jL+jyomVZaDWdE2urQxQ3wBND87j+svMilShC39zryvYwDeMyMrNXGBadLJc2MVlqRG1ZEoDwkzTRn7AIkGUo0e+QtarEVr2fETUGA1npjQty5Z35RNvsIgOP2IGCOSHMgNbTUWnPcDCR+f6sxiGYWzGqRbrHETIh37/k5wJLflm8F0pqtQ+nJV/czKESwZRKdqT5lk8PF8pQZqgCGMEAkud6oimQiRblkQZXqM3K1dOpmYxOKdKS11vkw9K+t+6W7BAlkkt0oHzjy8l7ztnVR+5swvKMT1TGm74y8h/mtLM/7l5d+dKx651ty9nAQaCXHqvfIVnrqibb3j0YDWDrJAGsd96whwu7de/HRj/4lvvnFnWrf7P2CRUQEA1qfCFae5aBhigSGshdGo5VdRqDddeXkMzQsmeSh7DlqtLLL8NWRPk9ocf/n7W7dn9nBUtioeSUKVcCKVWxVE4E1Cw0d77g63lkX7aRN9Vmj1V7rUA59LPMKsPzSXPht+QYgK13L4pnYPNC8ppB3Org92a18zxM1tyRa1ZREhPZcr6rVakKpiAr59qjoTgvXr4hVhQAYprRUW6ZLCiG/vb3n/Bcm7ER17+QuimoG31H50zVf8Yq4DtchGrwMPzzwEWzLP1s0wpIeyF74iil312dNkbSL3jjNNh4R8a5/MpSGbp4AaEHr+OFs5QnsenAfv+WGP6RvfONrTXMhOe9DOLGCIHZQDmYuUF7k0XRjZF3RAIbGQOZMFemIxut7xGqOPwJBIYIlHHSntkaOTFHRnZDtyb5oqjYhG1GNWpltR1qwhy/bI1GvLT/6kw3xHCkYZKAz3a+SMs2V2pz0I29JU5emAIjcuiu80BWOlUQqnQ5nKmNGEPlEq1yzEAYX0p0EcLEt1/0iVvy9IPJFMp3SQnfj+/veuuL41rQ1lPJPh5o4F1f0vV5syV2uz+58ztZqMP52W2aS0+5+zDYeFbGn/+RY/McCQiyNGJxx9hb63//9B3z5y/+Gc8+9EErNgdmHlBIblDGbgtapK8G0SFsFFmvWxuKwX9pq44SR5dnGmFhZ9Y/PEiFExmrjLblzIwlDjJUfleVgBhV/TranupVE68uY/5LNJJ5W04xmE+1mia5YRqVeDrzC98mE1hxFSJkZDOS3RxYczJUnjSDyD+votFRACvhBA4EXyEKqUx1JGGqtCEAQRkGh4dWffsfY93H31I8YimGYs6uOck0CoPsSD2b3Tnrm8Af0xd2vNkve6J+EKjxvtHqfLvuPypYDaCGz+WRQhY8NFicSERFe8IJn4yc/+Qo+9rGPo7u7H0oVAUSQUpwQQbCokzBJEpwyc6zXVCAUE2R0JodV0ZuUgfZWIPmMBQWRQG9qq+pLbVfF+pQcr+4RmhUMWCg1pkgQkLJyOs7wW3CcnZyLdbPRaqXO6Ez26Z70cOS7rihVpyWzXn59tEJL1PohUHMrglhSLtWmVuNbbHY1FkpF8AL3Gb941ku7f/mcV7CKFM3Mrd5NZE3eq67iJYjMQO4p38IjlR8/j0EfDLUfgQSSRkczfEMUp8uGaDH9tKIlrdjqcb0FFBfJ2LaDN77x1chk0ote36zjA1prmKaJq666FK985a8hlWrD3Xffh0ZjFkLYcSSBj7dZIMDwYRtZJMycrgQzq9qRC46/AWXJBI3X9gixwqMRU4HneCBzhjLJoYnqXsONKiSx0A2o2X2XCsluXfcqa+qn8HiChoZjJNGbGVYJkeJSdcbwo0Zz11/5OUg6GRWFkYhUNK/yh2EgsqmCjjhEqIJlTQEGw7GSzKwRqqDbMO3bK27xoUZQF/l0gdvqV2Jc/2jZcx5RA7iu90YEloHx+gO8r3IHamHxrLI3CUfmlS3zIEpyV+pstSV3ebQtf6XqTV+g884w2zKHFk8eI8CCYABOlFDYbLTyB4jiiEGhkMN73vMW3Hnn/+H6638VQAilKs1Co+N9rQJlf0I4MgWDrFULhOLMPBsFp5dn3FF5aC3B4iy+dqdfD2bOiupeWR6sPCojHcJYEmqMNYmaXyTNEWUTbVpj1SrXxwVac6SgkHfaeSB3WsiBprnKpKF0tCbK9EPNLYqLhFCr12Qh1aVMafLhJllsdisdkZSGCkLPcv3aM+4cuwV3z3yHWQBmZ23Fcx5xVCJtwzJAt7z42/rmp91melHtSVPuHgS6AUsk2Y9qYk/pp8b+ygNytjEumA3OWP26L31BNJx7kurPXKI7kmfotNUDU7QID4JVhMJjDy1BAMSC4LTTtuBLX/obfPOb/4Urr7wOSpXBXEecB3Y8RhSbAW5YRsgepVblCYg91O2Jfu1FLtXCEg51GipEMIXNg5kzVZvTqycq+8w5b5JE02Zf7qFkMIqNCZF18toUJ38y2NEhdoZKYaAnPaTbnR5VKc8a1UZRrLWLcTPBYJkjC/hBg0I/lPn0cv6AZjWhUkIKg0IVwvPq1/zSOb/Z8eLz38pREFK7tR1YoY/AEU2ALZmr4am6uPXgI3zX5K1nH6ztfPu0+2jOkkmWwhYJI6ttI42yPyZ8VaVaOCMq/pSoBLPCi+rEINgiwxm7S+edfs7ZfZw022GKFAsyiaGhOQQQ4VBhcDRawrE2AVY6pxBinm3otNOG8Vu/9WKcfvqZeOSRUUxO7gORgJTHPmuwpX0JMilrdepyMCOWVx81kkaWu5LDery229DzzUYX0njzdpfuz5yuw8gXE7V9MtQ+jCOkkBAkfOVSwkyxY6a5HlTEY1XAHwkaChk7z72ZYSW1RKk6Y0Q6oPWFX4FkIqOjaKkJADTpwEKPknaKpWGwF9YPmUuGIMEJO63qflkKkh1SyB9XveIuL3RFba7CV+0Yxs6Z7x923lUFwLX9H4G0PUyU95CvGhxo9zmT9Ud/sxGVyI8aImd36xl3VGbsDl1w+rgSTIk4qinj7G/dIC8qUy2cFmV/SlSDOeFFDSIykTLbOGf364IzqLN2j3bMAgmyoFlRLBBCYJFjcb1C4UQIgMXnJqL5RKILLjgbv/M7L0V7ew9+/OM70WhMQwgr5oE/pky+BKVDak8M6HpQFst3Emb0pXeoRlQXJX+SWnz4GhEMYaA3vU21O308VT1gFP0panns1xpZ8FVDtCd7tBd5FC+Kx4cQaCVdAUBnqk+3J3pVvV42ao2S2Kg2m3TSWkVaRCvY+mEYimy6oEMV0KHvESQoYafQ8F1oVtK2EnN3THzza+P1B7Ct8zxUFXCg/MPDjrmqAMgkt8KiBN0z9Tc8Ub8Lefv0N0y7ey+JdKAVB0KQgZzdxQcqDxoZq03nnV6uBtNCI8QC1ZecP43mCKF2qREVqRJMi7I/LdywTIqZTJHgtNWp806/zlq9nDI72BQpIpLQ0MSHORgXhMJyAuFECoD5myJip4/WCkIIXHnlJXjBC56LalVh166HEQRFCOFACMKxkQOt3gHtTCTgRuVFhJNNmi+rU2ftLh6v7ZatNa2gkDZiR5+EQeOVfYav6vNFOms/u0DIAUxhImXluRaUHzdagIJa5OhLcqk6YwaRt65d/1AknYxWkRKRCg8TAASK05E1KJ3KKi9whW5GFFrvTNoZDkIPoQqEbTr2lcPP/vL5vdfUql6FEEY4UP/xYedcVQBc0PU8NKK6uKL/Vbyj7VmDI5X7bpzzRrtia0VQI6pQ3BeeadJ9VDoyx92pbdqNKiLSblMIHJoC0hIItEhLKFEtaGkJRREonwgGEmaes1YvF5wBnbV62DEKMGUSLZJORoQVTQcCTrQAiM+HeaYhZkZHRxuuv/45eP7zn4PR0SJ27drZzB9oMRavrQX5ms7dLBchIsrZPbrizy55OgUk+jKnqzlvXNbDMqGZmtuZGNDdqS263JiV0+6oYNZYez7BUggQvMiltkSXDlVEgfYfw1rAgllUSHRyd3pQRX4oyrU5qVmtK+NyOSTsjFZKiSgKl50jAiFSAVmGA8dJqoZfm6fZ19BIORkVqVD4qkGGMNulYfy0VJt7sOZVRTab5bHKz6A4XHLMFQXAVrwPyYyPij9JvqpzI6pcN1575LX1cNZohvcIUAh1gK7UNl3x50QlnBIEA/2ZMyNfucJXZaJVbcVYINASLSFEqOvUiIpUDaZE2Z8WtaAoQh2SIRykzA6dt/u5kBjUGasbjpFjgiS9xJfQ6q6g4TgJvOENJ04AzF9p0yyIswUZPT1deOlLX4BrrrkKjz56ECMjOxGzwbQW2maNkxBqn9oSgzpQDfK1SwJyvtrPEglM1PcJAHBkkoeyZylHpjFR2WvUo/K8SbDxswtECCEgKJ/oVDW//NjoIHrYdcQakylM9GaHVdYo6HJl1nCDGq3d0bc6kk5aK8UrCoDWOILAo6SdYWEIboSuEBBgaCTsFCmtKIg8BiAtM1G//rpXf/UVz/kd9YN7v02D2Wuwv3zLkuOtKABOSwzDdFK4b/q7VAtK7BjJV0y7e58azLf3iuP8gapT2mrXCSOLajhHXlSjUHmiJ71DRToiTxXX2aziUKHA0BwgUDWqh7NU9qdFJZgRXuQSA2yJDLJ2j847fZyxenXCKMAQDoiIIh3AsiTe+MbXnHABMH91RBCCoLWG1rGj8GUvux4dHb2488774br1piDYLCEgwAiQMgtsiaSuhnOCQDCEhd70aWrS3S8D7VLB7uG+9HblBXUxWd8vFUeQm9Q4SkDAVw3KOR0aTY3gRLUNWz/ie6CgkLZy3JvZoigiKlVn1hzeWyuSTkZrpUW4igAA4icjikKRTeV1EHoU6ZAYgGMmmYi0FzYEM5Nl2Km50uS3frrzRzMNryZMI+J95duWHGvFlWls+W3kdZ3+8Mn/zU/b8kr7u/v+4V0zjZEtDL3oyYxjkL6qU2dyi3ajqoh0AE/VqRHWqDe9Q0lhUz2cberkG52spb4EZtXSEkS1aTrUwzKFOhCGcDhptnPW7tUZ2cPt2X7+7de8SKTTcQjyRAuA+StqCgKlNIQgXHXVpXDdBm655VuQMgFmXtTR6KjOBIChWFOb089Vf04oBOhNnaZCHVLZnxYDmTNU3u7S07WDsuRPiVZ4bxOvFhoRNGtqS/aoul+WGnqTz7E+xCFZsaoTtkWISkRNR1+PdutVeTSOvtWQdNKslaYwWt1ZSiAoVoAmyqRzygtcoTiCbThsSpMbQV0CmgXJDtO0dpbqsz+tNsqUdvIsahejxLfPH2tZEX8JfheJ6kPwpEFf2PlRVjo6ox6Wzmty3i8aWRxv9qIyzXmjois5rPZX7pcSBtyoTPvL9xsD2bMix0jRaPU+GWfEbZS2+lBfgoFWqwgGI1A1ClQF1WBcAhKCDAg2uSfRt6k3abMhpUAUxT6MFg8hNeketHYBEKRMzpe+rlcriOfIQD2co4h9SphZbWqbkkae57xxuS1/YRiEDTlaelgqjo5Rs484Oajqz1LGyot8okPNuOOSjkknqCPMBxGkEHCVBwWFxLJNaGPHskKEhJlGd3ogIiVQLE8ZkQ43ddc/ZJqw1vsrIOD6dTJNU7RluqLJ8qihVChsM9EUXGA/dMn1a7/w8l982193FvrDv//vD9Bwn8N7Dyw+zjIYet5VqDVMVPxJTNYfQckbu8SNym1xwvKhW2gsBOa8UWEIkzNWByuEkDARag8j5fsMgslD2YtVzH8WbZLkPLTTiwBggmABTZsoQoXK/jhpPrkz0ebTilkDUIjbpEV4wxteh/POuwBKTYPhgwQD847PtX0zIhAUAB9lf5Kydge3Of3akDY6Ev2qVJ8yxmv7mo6+Y0vYSiDMuRMyZWU4Tg46fi3NiQiGlIgoQknN4swdw7jp7a+ENJYWPLXCexoR8k4H92W2RmEjEOvJ6NsY5qlK1rw4BASq9YqQsCibyKsgCiCEVC2OhUhF8ILGJd/+4RdO//zXP4Yw8qgw/dRDjrEMxu+8G3bSwa7ZL/LPJv4a1WDuGi+qIeZM4GWHojnAbGNEdCYGdPwgxZ5jxQoHKg8akQqxJXeJinnrj137qqUPsATRsWzRvbmwjCSATqStDljI4eW//iu4865v4N3vej+62obB2kTSbEPW6ULa6kDK7EDaan13rvidsjqQMnsAsEibOSokergR1MR4ea9RCWYpTuo59pWcAhKeqqMRVUQ+0aGOV3agFAKaNEqqhFw6hXe89TX40c/+ES/9jedARRGAhW1NIYIhTPRlt+g2p0tVKrOy6pXWkdF3VKDlyEdWAzOjWivLtFNg07CYtRYy7nhFDGYvqHeX6tPXzsxOo1atYbTjv5d8ftnVYSZthEFELzvn8xxEtd7bx7/0pEA1sLINHzenKPljIu/0RJ3JIT3p7hES5vykHaztkl2JLXpL7pJotHq/rIczdDxYg45Hy+yjRzxHKdmGDuxAwcnA4wChB1imiT/+wNvxht97Ff7h5q/ic5/9HxSLFWSzacRmgj7kKLTiORgMx8gCDFI6ZIrpt0ijFcI6tkIgJr8QmHXHxUDu9CgZpLkR1o6ZQ1AIARCjompIm0m8+Xdfgbe98zcwMNgNAPD9cH7GWl0H01aeO1P9KgoCUaxOGZr1Mdz1D5uhdUsYAiFUATy3IXPJdsWsSQqpA+UJArHmiHQoX7nDeN6/mbZVPuDeSc/Fl/jreCGAFQSANoFaZZZGSvcyBM5zw/LWWKU0aOUHJJ7GKXevHEifG5X8SRGoxnxsVEBiqrFX+KpOg9nzorHqQ2YlGMMCY/ATGfH114ISZrAXQTUPN/IQcQAACIIQXb0F3PiBV+AXX3IFbrrhE/jat74HBpCS6ZhFRx+aQ7D0WdLQcGQSNqW4VJ8TKSfDA7lO5YYlKjemRSOqETdt9WMpCAQEAu2hGhRFW6pLHSzVN11FEyKm066pOhiM5153Nf7oz34Pl15+NpgZYRjBNA3IZn6GgoKERFe6X6fNvK7WytILXZJNWvLjCNpI5EdAoOHXyTBNkUgmQ+EJMykyyNu9IiN6ORH0XFqqF88miB/bold8HS9UC589BMPiX0ENgftnv8h3T30FVX/2ykZUTgBHajfTKkApUjWcFp2JIcWHeHoFTJSDaTpYecToSZ0edSS2a0YrMeHk8M6fSCzOalw8bzERCaCVxjnn7cCXv/4X+PKXPo3LLjgfVVWExx6kEGh1lYlxqNOUYRtJ1szsRXWarU2KmfK4IbRF3eltqi+7I8pYBQYw34jzWIDBkJAouZNCECFt57Q+0qO11vlrFmV57KOkijjvjB34j3//MP7n25/CpZefDaXiGo1Wq7jYoxLBkQn0Z7eqBKV1qTxt+KFLx2/XXzQ3rTYCG7l2CNTrVaGiyOpObhfb7KegRz8JGX+HlmEOzNTFzCBt4qn48vznDrvKM7f/AIpDeuWFn+dfPuvdhVo4+xRP1bB27z1hqr5HOmaS02YbKyxuqcWQMFANZ2mkslPm7F7dlz5Hx7LlRFNpnUw4fB6EIAgpmkQkAr90/dPwg9v/GZ/9yw/izG2noaorUKTiSML8x5fer4SZ0kHoi7hURyJUAebqsSCIAiU7EkN6IHd61Jbo0YYwmx2RjoUgEIg4xGx9TOaddr0Z3YaklNCkUVZlnDY0iL/4+Ltw652fw4te8oyYPVfrZRvBtjmd3JfZEkVeSMXqlBHpaF5rPf6aKR9VlFpIgYTupjb/Ijh+Hyi0YxOYFAjYBuKmGRgsuhOHwI864EdV2lf8GQ6WHzy3HhYvUDoA1ljIShBQ7GG2cUB0Jgc1HaJOclMI+KpG+0r3GpZI66HsRc2eaCcLseaJxirdYZu5AUopGKaJ17z+Jbj93v/Ah/74D+A4JiqqBNACs3GrM7MkA7ZMIs5Xb9njBAEDihUq3hxNlQ9K13VlxuzkwdyZUUdqQJnSnm9LFWNzIjgCEtWgSArhIs6A9R9bSgEShLIqQxiE99z4Wvzk3n/GG976a0gkHSi10PlpAfF5HNPhvNWhytU5WffLgubzHw6d/+MlCJgXkROvA3Hkoi3VjzY+FxwaYIpah2rpFVuAeBVHi6Z5iQBw8EwoL8J4/WGMVu9H1Z++rBFWVgj/rXAJ8w7BcUFEnLd7WB8S+mvZmhoaB6oPGgDxltwlyhAOcMwiBI8fUHOBt4hInISDG9/9O/jerf+EX7v++WCpUFWVJn1ZHBI1pQ1BBofKP8TOXBAEAFAPqzRdGZPlWtFIyQL6szuirvSQsmWS4/BYy3w82nsUf77oToq0ndMGmVhPP0Mh4t28qmoIyceLn/csfPuWv8Iffeh1yGSTzUpMrEDNFq+JKIqoVJ02IhWQoBPPZN1M81jnIOLFn3TSaJdnQ+os4kRSWnhDfPR+IRgi7i+0MI+LD/WU7usByTT2ie/pXX/6n6IazD7FjcpYOfy3yqA4wrS7V3Qk+5UpHBzKadbyCGvWOFDZabhBFVtzl0SOkT+GYcLHFxYzEmmtccFFZ+LzX/oYvvv9f8Kzrr0Grq7D1Q0IIqSsjNZaN7sFLYdWb6F4F3TDGqYqB+VcZcYwOUG9me2qL3uaylj5eT9BcxQbHH28CdTDEoXKpbZUt9JreMZa19zgBmq6hmsvvwRf/7/P4Av/+xFc9qRz56Mi8bysPrZmF58VSE2OLxb1JFjXQBgMw5DoSp6FRDSAZkv7RUecv0FD2hO29qRe3MZ6iQAo5v4dkQ7oVz7yGbzgY58arofFiwK1kZ73sUOwGkyJRlRGV3KLZqhla9Fb8dVJd7eccUflcPbCMGP1MCM4JQTWiIUuRs3WZlddgK9/72/w5S/djMsuOB91LsM0HFYcLuLnW52cs8XWGyq/6SeYMFQA0ZEc0oP5M6K806kFiUUOw43cK24mB43LpJXWjhFrGStdoyElFCmUVRHnn3U6/vMLH8O3fvRXuO7plzZrK/Qh7d0fW1iYx3X0XyRGW2oQOX0mYupJhhCtvI74Lc2fQ2wixwYvCTYuWtnvw9wj56MezWHcfRjT9ZEL3LDc33TObWBGY4/2tLvPSJlZnTAyUKvYeQImiv44TdT2yr70mVHBGW4KgVNYK0TTyaVUzJnw/Oufim/+4G/xwffdiEK6gPHqJCmKnWErOQoPxYKfIELZm6Xp8pj0PF8W7F7d33IYktEUBOvP7CNIeMpF1Z+VcXLQ4Wg5+EqqhFTCwbve9lp869bP4voXP21RPYWY9+4/ZrGuDrqx6p9O5tEuz4ZQSYA0wNSMBh22cnIk0E3Nou9fSH4RwCIB8JzOEtq6k/j55H/xPZNfQdWfuaYRVQUAvZEEhZYW4KsKiv4YdSaH1erXxs0w4ZQ4UHnI6EhsUV3JM3Vc87+Z5bGPf8hFgiCVSuKd730NvnLbh+Wb3/RichwLRVUBCIuISo/03LX8BDGDUewwHDNq9aqRMTu4P3dG1JUaVrZMcquX/doRm4JFd0JY0kTKzHDr80K0HHwVCAN482tegZ/c+8/4wEdej3wh03TwPQ4W/uK5WONey9AwTQvd9jlwoj4sRNF4vjkqFsKKDIIDxtbWa19zY47A+ZkrSYKgkN5++a38qrP/PlML5568MfV/6TABiRl3vzSEyTmrk/Wq9n0cIXCjMu0t3WukzDY9kLlAx5NyKkKwXrQcYEpp9A114IOffD1uvfvv8dLrn4MAIWq6Me9Fj7G2DahFGR77CcZkqTpnmEhQX3aH6sueFqWtXNNPsLbIQcwcFKLkTcl8skNJEjCkhKtdBAjwol94Bn54+z/izz/7dmzd1t/UcHDCei8cK/D8jzVQ3gmgI7UVGXU6oA99f9yufBF07GHkLbEDUNPzE99svrOJ0FcIuUE/n/4GHpj7/uluVN6hee3hv5UhwAgx1zgg2pMDWtDqBSetMKHiECOVBwxJlt6SuzQyhIXNKyR64iB2mgkwx4JgxxmD+If/eh++/NWP4slPugCzqgyP/eZiWq8giL8C1Zj3EyCSoiu5RfXndkQZ+9DEopXcj3FyUNWfJVMK2GZal9QsLj3/HPy///lzfPF/P4LzL9yxJJHnsWrnr47W2j9SF2aNTKKAdjoHpMxY9T8E4tAamNgi72+dyEfcMEQAwNP6boJhAJPePoy6O1EJJi93o3KhOaKjnOmFsKDmkDsSQ1ofYSHHEQIJzQoHqjsNL3RpOHtxZMrUqQjBBhG3NltgLH76cy7HV275c9z8yXdg62A/ZlUZAcJDdtW1CQKCgIBEpEMU3SkxXR4zAj+SHc6AHsidHhWO5CeguBQ6RIC9xV3yzG3b9cf/7CZ860efxbOfd9V8z8XlEnkeV5gvBlxtbcQ0d53W2bCiDjAtn0BHy80TY4AR91tuyQwBAAfcCkzHpo9c+3X92+d90q6Fc0/1wirWH/5bCTFB52T9UZl3OrUj0zhys4jY7gQD4/WHZdmbEVtyF0dpq5NPCYGNoxU/VyruaPS7b3ohfvjzv8PH/vStaCtkUVQVaOJD7Oq1PQMtP4FmhYo3S1PlMek2XJk1O3kgd2bUmRqczydoCYJWGLOiysimM3jnu19FX/3xh423/sHLkUol5h18j+uF38TiLsgrQUqBruTpyOodq+rRRPJQMwAABogZpPV8gxEBANva2xEoj/71wT/Ht/f8zXY3LF0aah9HZ/8vHRBgoBGVqOxPUGfy8DqB1SBgYsYbEdP1ETmQOS8qOIOnwoRHicX+gUw2iTe/46W49Z6/w2t/+1fAklFSNQhJEHJ9ZkGMRYlFQZWmKwdlqTZnOJSh/uzpqiezLUraGRaCUFUVaBHhlS97MX7ys//Au9//WmRycSJPa5xPFCyk263cwCWX7EKBzwGUhdUSp6hJ8NosMGgdsItNkWRTMov4NQEAbuCj1BjHeO0RlLzxi92wNNR0um3iCos5BGcaI9I2kpwyClhaJ7D6ZwVMlPxJOlDZaXQmtqr2xDY+VUh0dGj5B4BYEPQPdOFTf/92fO27n8Kzr70CFVVHVbkxfdY6HYVLE4sE/MjFTG1CzFYnDZMckUGvcnSHevqV1/D/fu2v8Hf/8gFsO21wkYPvyIk8jz+stqdrOLaDDvNsGCoL0JGc4tTUAJZIlC5SVCBFIG4KgIs6bwIz4+Hif+q7Jm5GxZ9+aj0sSRyD6hyCgNINzDUOiM7UkFp7g4l4CgQM1MMS7S8/YOTtPtWfPq/p/zxVSHQ0WHAUxozFVzz5PPy/738c//4ff4InXXguKroOn4MN+QdaECRhSROuqmNP5RGx5cw243NfeK/45q1/jac98wpozWDWj2MH39rAKzzHUgp0Jk9HKtoKXuPzHjsCl7yvjYCO1n27Et+AKGQ9aET08nP/FS8++2976lHxck/VsXHuvtUuLjYF5rxRIQjckRjgIzkEDz2ChAFfN7C/fL9hiITekrtYSZLAspmGzU89JkhBTjyEWCAqZWa84Fefim//9DP4u797D3q7OjCryphPJJrHkQWBlBJMGnOqjI58Hjd/6p34vzs+hV988ZUEYmoRoz4R7PzVscI8EqMt1Y8Cnw3otdYstPwAAmg54QCAeZDikiNKWiWIIEjCDSs0UnkAU7U9Z7lheStziM1V/5dcDQCNaXe/KDg9y9YJrH5Z3KQai3Cg8qARqABD2YuVIexlIwSLK8FOCYK1YXEikRCEl73yufjWT27G77/uZbATFuZUBRA4oqOwlWNQUhUIk/Dm1/wavnXHzXj1G18AwzAeh4k8R4fDA6Wx3Z9w0mg3zoFU2WbIb21LM+5FIVt+gNb/+ptEuvSd4NcgoobCgdq92F+5C2Vv6sluWE4C0MdOACzUCdTDOepMDK1QJ7D6MRZTjblhBVtzl0YJo+0QIUAIwxClUiX+VJNU4xTWhpY6rpXG4HA3Pnzzm3HLnX+DX3/BsxFwgLKqLesfIIp5+KqqjoADvOA51+E7P/4sPvLZt2DraX3QSq9SqXcKLcwX+iTOQrJZ6LM+EMRCJKD14cFW/c01xn9AwAzpc8+6Q3/o6m+YtXnyz81X/5cb3KS7WyatrE4a+XU4BJdCQGLS3Stn3FExlD0/ytl9zAiaGQwSjUYD1133K/j4x/8aURTNk2os5tI7hZVBFBORtITn6WcO4R+//H584/ufxi8+8xpUdB0e+813xxZsgBAlXcXTr7kcX//eX+A/vv6nOO+i7dBN00KcVHb+YgamEzymJR57ahb6DCGvzwTrjdG0xaS4YtFxsTVmHiNtUgShEdLf3vdp/NODnxh2o/K5alOy/9YwMAhE2kXFn6COxIA6GoEjYKDoT4ix6qOyJ7UjyjtDTSEQRx6mpsZwww2/jxc87zX8s588zADmVdxTgmBtWMxIpJXGVdeej//4+ofwmZtvwnBvDyIokCAoaPR1duATH30r/uvbH8ZVTzl//jPipEvkiYlAW/ULhyYpLQiFxd/HHi1q8lQii3axqNBn3efnZkLQoj4+wCAJAgmwBEHUoklMNnai6B+41A3Lvccr555bdQKNEWlKk3NWzxHqBFY/WotqLC4kGlbdqbM0N6nGiGwIWcBdt+xTz3rya/CS69+CB+9/dF7FbTm9TuHIEELEgkBpsNb47dc9Hzf98W+jgbiuwIWHt7/vN/F7N/wqhIjf1/rMyYP4GZPCRC7ZhbSdR8JKwTItCElx/wWKewPE36pJj6YOI57fTAHR6gvAYFimiS7nLDiqF3wUa5IQE6QuCi90KS8w0dAsQGQ8OP0fDADndLz8ukZUBiA0wMfpbsX9BGYa+0VXaruqh0Vj+R72a5u8uJCoQvvL9xv9mdOjwewFfLB6v9TaR87u1/lkB42WHqH//J+v45vf/BF+6zdfhLf8wW9g67YBaM3NNt7ylF26Bggpmp2KANNcaBtOAGzbXPK+kxUWZbHNfC6UFUCTD8U+FHxEaMS/s4+IPYTsQ+kAkQ6gdQilI2iOtUeGBrhV6bBYCCx+ipd7oA4lbUW8SBkcF/psQ1adAWixMZawRccmYYBVRDHZEHWSabQz0QTAZLzsnM+zryq9d0185bJAr8b9fywQhwXL/qTI2T26PTGgJ93dQmywX0BLCEQ6wEj5AaM/c0Y0mDlfHaw9KAt2ny67s5JZIyvzCIMQn/qrv8d/fvEbuOEPXonXvemlSCTspn/giZWBtlG0BOWh2lNLMJw8dv4KYAERpSCQnh/rfGt5YhAxtIh3flCECB4UvFhAwEPILiLtxUJCe4i0B8VNAaEjKK3AvKBd8sIZcCj7c3xeAsCUSbShnc6BUA74iAk/R4YgufgIBRAKDEwABONg9T5o1me5YfkM5iNx/x8LxGHBKXePHMycp0r+xJJ+Auu+pwBa7a8PVB8welLb1fbCk1QQBqLijxJBIFIRBAlkZR6zxRJueMcH8V9f+Cb+4F2vwi/80lNgmsa8b+DksllPUtCq/zyJwfOVdNz0sTEEiJs7OUsIjlvNCQDmPO16HEhnaIAUtIjARgiNAApBU0A0ELGPiF2E3GgKCh+RjrWJWIuIoHXsg2CtoHUIYRC1ybNgRh1rTvg54u2JMwJpEetgL4CdICbj1tF/xbkdz7zODcspgDQB4vhaw60GoyWqBFPUmRxWo9UHpYBcpxYQ38FWkZEtEsjaHSohM7AoTabBuj3ZyxVvVoY6gGBCpABTGLBEDrfffTde8KLX4alXXIk//vCbcfU1F4OZ52PhJ/1udgobBB3+r8UvUcyuxItyaQA0JQYBbEKwCUISC309mu05KX4imRRgKGgKodESFLGpEaGBiD1E3IAmj2yRQSY4rXUSHL0AWCAIYSgNggTTcHOcZLzukr/Ofu2Rm690wzlgSUOIpc6NpTyyC//fHMRCYNrdL7fmLokyZgeq4WyzoOTIlFUttloCIWXmuM3pVSmzABUy1d2ybLhj6MoM6Lzso1y2M6oEs1TypmSkg2ZmlUZSxu3Dv/+Tn+BZT78Hv/yLz8RN7/1dnHfB6acEwRMaS+36w7Gw0A95daHbL4tYm4AdU6kc+gyRBoihdQBLJRExQ3EISevdBFe+BkEGlFbcNG8GW38x7pu45SJD2BcUnCEoDhHpAKH2oHQExSE0h1hourlYOIhFv2+GkBDQ7KHkH6TO5KCqlYvySG3IuBm+MchC1urQObubEzLHURCJcqUk/MhtjoLhRS7pAFBRaOSS3SqVzUUlb0rU/KJQHAEqLpxIywy00vj8l/8fvv2d2/C2P3gVXvvGlyCbTTcdhTpuKXVKDpzCEhzhgYiZeJZ/opnAGhBIoCe/HYojTJb3I1T+ppmgJOSCAsMYIEkgAhuBbnQ1okpOkFS2TEIKQ0thRgSSmpkArZSORKgDEWmPIw4p0h4FyofmCIojxL4DvWjR07Lfi/PFDv2t5RCcaxyUWasrak/065nGiJBLHIItNT+OFNgyyTm7k7NWl5ZsUcN3xaw/RREHzVwn2VTcFOp+RbQlulWx7IpytSRt0+GOxJDO291R2Z8UFb8oNCtAxbxsGZlDtVrDje/+EP7ms1/AW274TbzyNS+adxSCT/kHTmG9WIXogzVyqS44VgJgwmD7GZitjaPSmEVM9S2OShsQJJteWQaItjJJsCBtkJCqHs7qucYeCzAZEEQQliADhrDYEKY0hE2msNmUjnYoLSSZWgpTAZAMBrPWiiMRaV8EqsGRDijUHgWqAc0KmhWA8BBaqMPjpwQBRoRJd48cyJwTVfwZEWofAqKZqKEgIJG12rnN6VMJmUMYRqJWqxl+NIOYY0DMc9YBLXEk0QjqFCVCJOyUbviu8EOP/NCTtmGjPTGkcnZXVPKnRNUvCsUKrBiSDGRkDvsPHsQb3voe/P1f/xfe84Hfw/Ovf9p8/gDRKUFwCkcPQ1jIJTtivZY1DGGgJzeElJ3DdOVAUxvYaPOSuDBIQJLmCAAG/KhuC0jf0FrZgBCAFfsHml+KAyjlk6+YFowZCECAICFISilMmMJhS9qQZAlD2Dpl5pUgKYkkCQilWQnFEUU60IpDEemQ4pBJANX8PRYQGtxsNuGGU1TxO0V7ol+P13cJBQmTbGTtDp2zu9iiFAdBIOdqMxRovylC4nEtj7jxgxtURNbp0J7fmNfh/chHUPWlY6e4wxlWGbtNF90J6YZV0qzBimELG45wcO/OnXjxr7wZ1//SM/GuP3otzr/wjFP+gSVzrEHgUwJxXSBorZBN5mAZDjRHICIwAwyFjJOHZdiYroyi7pebc7uRtGACkSTEAqDNhN0F4IDBrC2wFoe3Qlwpu6klIEIoFSBQNaqH3Fp5EiAJCAgyIIVJBplkCItN6ZBBNmyZ4KaQiJcMiUizkpqViLSvQ+2TH7nCjcqiJ7VDNaI+YcukytndTEpSw3NFJZgkxWFzt1/Lw9bsQuPVRMZp17aV0F7gCmqSWAGMhl8jzxeGYye4J3Wa9nQNJW9KuEGFVLNhZFIkoMH4wv98Fd/45g/w6le/BG+98bfQ39/1xBYEHJtZtukgowaRkV0ATrlJ1gaGFAbyzd3/kBAEFEewDBv9hdNQcmcwWxuD0tGGtIG4LsAHgE4CegAcMABt8qq8/6s54hZs+0Ptes0RtAopjJ2HcVB14TOiqUVAkDQFGWQIi22ZQsrKo+D0hZJMbcuksS13sSrX56haqUhfNZrlwEvV/LVCsULNK8qM0678oCEWWkJRU3tguH6d/EBKx0pwT2Kb9pwqFxuTshHWKNKqmT+QRRhE+Nhf/A3++R/+H179ul/F297xSuQLmWYiET9BEomaKbVSohODGHYuQuTmIFVqyd9PYSXEu38u2QbbTCFWz1t5+9xs8rGQaFVIdSFhpTFdGYUbVNapaTGEkARFGoAgoj6AITRrixdSfzfUAGQhQnBoeqMEwQDBBMEGYKJVacgIodiHZk2mdDhp5jhl5mFSkv3QF3PulNkIXIImjlSIhnIhIJuhwY09WAICNa9CEBqW4XCrQ+7i8uFW84u6X6NqpSqNMCn7UjtUb2ZrZBsJVhwhVBEEC2RlDuVaDR/88F/guitfgX//l68iChWkbBYaPUFKj1OyA314EpxGH3jd+RtPZMR+plxiud1//i3zUBzBNhPobzsNHZn+OHGJGWtNnW/mAzSJfrkfAAwGW+B5O3+TsODvj+OjLeEgYQgbCSPDSTOvHZmBIWxmBoUqoEZQF3NRkQLVgBQGClZ3VCxPG/l0e6RZo+aXxUZ2/sXjUqxQD6oi4WR0UPPlQuMUmh/xEkHQqJL0DcOxM9yXzqpaNEvlxozwVYO00jBIwpZ5PPDwI/j1V9yAp332Srz/T9+Eq665aJ7OGqBFXXgeT2hqAFESAulF9/oUjox4988n25GwUtC83GaxtFcggcAcpwa3p3vhmElMV0bhR401agMEIsnNY/QBDAPM5tFL7JYZ0FroCq0Fb8okJ4w0J408O0aWJVnQWpMf+VTz6tSIJinUPlr94QXidtZZu00LNsgNZ6CrkVHIdEaRCsmPXNpomnBrode8kkhlc5EhTY5USHToJC+afIKE1gq1RoUM3zSSTpvOZNp1NSqi1JiUgfKglYYjHICA7/7oNvzwujvxohc8Bzfc9Nu4+NKz1+wfWBrufCwhjnE/Nsd+oqBhCBOFVPfKGtOyvr4mCyZHSNlZ2O2nY642iZI7hbWEC4UwSOsAAA+zIhga2mReb8rh4Quem1n4hkjAMVKcNHI6aeZhkM2agTDyRdWrikZYm1/wNP8lYCCuIGsdJ2XmdOD7UkDAjzzUGxXZnulRU+UDRqQ33iGIIBDqAJ6qU8JJ6mq9LBdP7ELd5OKW0bGrUekIVbciDM9EKlHQ6UwuqgQzVPZmZag9CMg4kYg1/u1L/42vfPW7eP3rX4a33fRKtHfk54lIpFxei7Gkg+NDxnIscGrhrxUEgtIa2WR+3vO/4vzF9UHLVAQSNCsIkujKDiBhpTBdGT1iuFCQbOUrDyeSLA3NuqUB8OqjaL1l6YKXwoZjpDlhZDlhZNkSCQYkwsinmlcTXjRFgfKgmsk71Ow/b8Bcki3Ii35a0oEj06iFFWppBXWvQoZhio5sfzRVPmBoXntfgaVoagGNkuzKDIayIaXWiyuuaMn7Fo8tHnssCCr1srAMW2QTPTqdbY/K/qSoenMiVEGcqyDziMIIH/r4Z/DfX/oObrjxt/Hrv/GLSCadZneexRWH8XnSTl6l0E6aG08ED+ITFgyGIIlcsn1l23/Ru1f+ezMxjiNknAJsw8F0dQw1r9TkAzxUheBFnYN5wAtkSjCrZUyAxeE/BhABiFOCDWEjY3Xp7tTpejh7UbQle3HUnThdJ6gNru+LieqocaD0sHGwtkcW/UnyVZyOK2FCwDhkUR1+XoZG2sppUoIiHczrGgICldqcYKVFe6YnOpobEPPUN+ArVySclOIV3rW4ZHNpdXcchQijAJVqUfjV0CjIfh7InRm1JXuVIIFA+SAGsjKH3fv349WvuwlPvvTX8T9f/u48DXcrYtBC3a/IrGjXCSvukHuq8cnjEQStNTJOAY6Zbtr0a8CqDbrjcKFp2OgrbEN3bhiSZDO/5rDGodTUEAqSuNdgZqtlAiyo9S0bPt7hk02nXcLIskEJ0qzhRx7V/YZshNMUaG+RDd9qENVqTnjkdkeLrjJWo60CB74nGHzIwiOUqtOiPdfNhVSnmqtPybXlASyPcmNOdqUHQulJuTI12FL/wFJLPVbXQxUgrAXSMizknV6dzXVEJW9SVP2iCFQIW9hICAc/37kTL3rhG/D0p1yNd/zhq3Hd0y8HMyOK4shBI6yiqCfl1tR2VW6UDOYnRhThiYXW7t+xht2/iWZIcNW3gJrhQkY+2YGElcR05eByyUMUlweHOQ0eMBjaiHP544i9JAuWTHLSzHHSyLElk0yQCFQgXL8uGuEM+aqxSKVfsOGXFgBthNBDwzYSbIsEV4MyrbQDlqqzsi3XHYUq0FWvJDYiBAgCfthAoD1hW452vZpY2bm4WBs6XAy0XgkiH0HNF46VoI7EoMrYHbrkTci6X6IIjIRIAkT4v1t+gFtv+yle99pfx9vf+Up0dbcDAARLeJilSA2KNrNXMfhoQh6ncNKhmfWXaIdjJXGsBHycPJRAX2Eb5mqTKNYn4yzNpgNakNQqrr7rNTQrxzbSSJg5lTILZIq4GCFQATWCmihFJQq0h4gjtFTxeIdv0T4tteGPZnIYjJSVZyhBkV6eHzB2oIQo12aMQqYz1DoO6wmsPzOKwag0iqI90aManrsGKbKyf2BxMpEXNMgPPMMyHe5KbNGB7XLJmxL1oCwYGhmZgVIKH/uLv8G//cv/4pW/80L88Z+9GU7CBgBM10dFwRyIklaGcTwYWk/hOCHO+iukurHudN6WFrAGerBYG4iFS0emD0k7janKKPzQbTZaNWJ+ANbbjKSR7+hJnYGKNwfXbwgvmqVA+U2abp5Pt5UwDtn5NttTHZ8rbea17zXkoer/0gsU8EMP5eqs2ZbpjqJKSEHkrTs8KCDQCGoUJQJy7IRu+HF68BruxqIxrywI/LBBQehJx0pwV2KrDhJuVGyMy3pQISD2D8yVSvjgRz6Jr37lFnR0FGAiiSD0MRMcNFifYip9/ICgdYRcsgOOmVjBPt98KI6QtDIYbDsdc/UplOoT8VNLEsz6HIPIuJO0fFHRmzI8VYOE2XyED1/wx/JpbHr/2UIC1aBER1qIAhJeWIfZsGR7ukdNlg80beb1hTMZCnW/TFm7Qzf8tWgBSz/fGv1CWvHiv8aHawQueUFDJpwU9yRPU65dRtGbko2wSpIEsrID9z/0MBgMB078GdQQaI+AmGPvVFhgE3FC0i0YggzkEm3zHqWNHWZtWkAL1AwXEhE6M31wTAczlTGEUR1aq35B4FuJaKovvQ0GLF5ctX/8UjqbPOhWlqHRLPQ50gTFDsNqo0Q6UqIj0xtthDddQKLuVwWEhm06vLFrXi5asLTMGSDUvRpVyhXDjFKyL7Vd9WS2KksmOFABbLKQEIklc95oePO/P1HSio819KKYj/IIxHHizLGVBbHnP+3kkLBSG7f9N8wOvJA8lHEKGGjfQdlEF9JO+4AY6tixO1ThHrBEe7JPqXW36doMtNT/gg4Df12chAICpdqMkDCoPdMdrX8BxyGUWlAWiURqjTGZlSZ5qSA4tLGEgACzRq1RpVq5athRRvSnz9C9mW2RKRMc6QVKNgMGXvvK9+FjH/ocgiA81dHoKME67nwsJEErxrf+dhyfefWjyFqFOHvumO51sec/n+w8wbMQawOGNHmg7XRs6brofvGFn79+yjLshyreHHJ2h04ZGajj1BxkYXoYlrTZFkn4oXdE9X85lKrT0pFJ5JJtSq+LTTUWPnWvIoQELNPeoBawMMmLz730WhYEgWaNWqNCtXJN2lFG9qd3qK70oLKkw4ojCBDGpqbwtps+gOdc+xrc8n/3nOpotAGwjnd9aqZh//w7RXzohQ/gb9/4KKZHGrAtG2kjewy13ebub+fgrJjzv57DHTkkeKTxMMet2MF8n9iRezmSZvrnDEa5UZRdqeFIHNd01Jb6n2NorOj9X/0IBM0axeq0kXEKnLIy3GIHXuvnQx2iFpSF4yQ2aWWtlEi0WCOQUKxQbZSpXnGNFNqpP3O66kgNaEESEgI5sw0/uusOvOSX386/99KPqZ/fu2tJ085THY2WBzPiJCsChCRM7G7g07+zCx/+lQfx4A/KSBUMmI4As4JjJpE00li/D2lNI4nj/qnOY3DsDaOZDsw/F4P5rUha6XsSZqpa8mYkseDu9LA+fqZAbIdnrDYd+L7YqCQmCIQqQKU6J9tS3coxk+vayQmEaqMohBRsSPMotYClR15NELTSpiIdoVIrC7fSMDLoxFD+7Kgt0atroY+EdFCPZsWXvvBt/OLVb1W/9+r34dGHR+abdsatzY7ZDXrMQStucjYSpvd7+Kcb9+Dd192LW/9tCqZNcFISWjEWNmONtJlFwkxhgYt/9b4+a8NC1l/CSm9u3H/jWkAr+6gGwgOikOxExsnvto3EiIDAdG1Mps2Czlh5biX7HEvEyT9JdkSKg7CxIfW/daQ4MuCS26jIzkxvZEprzQu5VSTUiKoi4ST15quES82CpY9XSxAIRDpCtV4S9ZJrfPwvbsQf/v5bIlNn/3977x0n6VXdeX/PvU+q3Hl6ZqQREgIJEY2xwYsDNgZsbDBmLWOwwbbI0XiXNWAbBGZ3vQSTFmy/JngdMAaBFy1gMMFkMEhCQhEEEspIk6enU1U9zz3vH/d5qqu7q3NVd4+kM5+ame6qep5773PPuSf8zjluPmuTxsdtJWroe997sT7yEb/BG/74/2N+poW1xqceZ/dsKeCZ2tv5rXnH/3vrbbz2sd/hE++4jXbTURkOFjSDpSSOWjhEbEuouiUiYLOU2/6VPtv+hTNwc4+7+NbtovZG8/RHvIz/dOavH4xsdH1gQppunuOzh81E+UC28eYcG55JDv6pOTLMVrL8irkVRT+azXk7Wt2Trf96PpQ3Mz9lgjBQK4MA4S3tHbfUP+ALtxqxzOs8p581ai78iwuCiy5+qz7+kY9Pm03cXTO323PGH5jNz6e89X990D3l517pPvSPn/aZYVZ86fJ7mCBQ509zY317rUs+cYT//itX8U+v+SGzJ1JqoyFiWHNdRKAaNghM0LM818bIn/6VuE4cDgL1t+mmIQVLX+vaOm1e8tEnmr/5jz9pxUH58tBGGISp5lGTZY7xyulusFpAx/uv8825Tav/S8lgODFzxOAwo7XJbCNawHw6R8vNSSmpDEALWLjTimaBFhqBIUv9pvmFX/kxe/FX3hxc9OF36oPv90B35PBJxqPTs32j+/Tyq66Vlz/rr3nBY/+ey79wR97G2wuCu7t/oDjN83bXfP9bU7zxqdfw1qdfyw3fPkm5EWADIUt1zdOygHMHxlIPR3xBmOKZbG50GDEMVcY7ULG+0pZYUgCukkAxe6sHZF/1DJKwckVkE6dgBNHDMz8K6tGIa8RjAzMFCvU/IqHZmhXTx3sYDMdPHjaRSRipjK9bCACcnD9u4iTOfNbUIGmlaEH+u7yKUJY5bCA88fxH2k9+/W3mwjc9R846cF+dPyFy39qPy4Pqj+PqL83y0sdfzB8/5dNc962DnQpELtO7nX9AdeE0N0a49ZoZ3nXBd3nDE6/iis8cpVQNSMp2XXNfHq5VIhvTiEe6Cs5u9vRvUIpqued/QIfoxn0BRfezaxAwcVDWemmEalT/QWTjI4U12nZNjs8dNRPl0zMrIY5+qzC5+h/WVTMkW60owmbXBuXE9GFbjRtaTRpuPeFBg2G+NSuptiSJEqd9n/fydVg93xvfiQjfh6BSjeX5r3iS/YdPvzp41rPON/H0fTlxQqkmMXEQ8LmLv89LfuFjvO/CS5mZanu1OPcPbJcgGJjXSLscfFZozmR84p238YYnXsVXPngIGwjlRpB3cFqrpRyLNa/0lsAlAABBXklEQVTOz74dd2xLVMMGm67Dj6FeGh3M6d+ZxIav61N8Pbj0RhRMIKLnjD2Qs0fPuyUOkhuM70emBsvU/FHTbDdlT/VApn3PT/c2dzUacq32xsA/614fhDRrcXTqUDBUGnOlsKJuHRgHh+PE3BEbJ4nbfPmxzY13xfckLyAiHhW4/8AEF773Kfzvzz+JxzzxLGaaLWabLRqlEllb+es/+wa/99AP889/8R2a89mCIHCDlwKDEDTqvAAzVsgy5XPv+xF//DNX8I+v/iHzs9mCg28d/o+lAK1OeXjx4VX/zB3lsEIlqG3Qfi9Qf0NU4vpgT/+ue653GfN/bxaV74sKJsusvv0/flv+8tJXzkRB6arQhHS3JT48c6ct27rWo9G+mgKKEtuSxlKi2dqK93+tpbG00nlOTh+zo9XJLLKxrnWqGwyzzWlpa1OSuLQNWkD3eNd4XyQP/3lmfsjP7OFNn3wib/vkk3jgwyc5MTdPljmGyyXuvPUkb3nFl3jeT36Uz3/oB6SpYox0vOWDmoHpowO1G8iTZcolnzjCn/3SlbznJd/n4E1z3s7P0X3rGZv0Ynx899wi07X4JF5DJQkqG3CGe8//cHVie/I4ZW3/xqLBefoeRk9gVExb2ty/8avy0LHHkITJVYGNKPqdCoZMU47NHjLj5dOyoG+mgAf/lKNGrv5vHPyzfvLhwbn2tDSbs2a8vi+zZq3oRt5JqDll4jhxuwjA0SFjpMPMzimP+uUDvOtLv8YfvvmnGZ0oc3R2ljAwjJTL/ODaI/zJb32aV/7qv/K9yw51vOX9FASCL1EdkZBElS1fr3Oa50Ce2787yzuf9V3e+vRr+cElJ6kMh4SJ2ZCdv5j5C8YXTOfU7zYFiqiMUo+GiEy8DqeqP/3LcZ0k3ALmf3BUtAC52mOBxBgX+gSBRmmcUlS7OrLJbAETKsJqJ1snTDtrs6d6Rtaf07AA/wy71gax/1u538nZ4yZrp2a0ujddXeD4ec80T4oaRxRsFR48ODJ2QRDEJcvTX/Ew3vft8/mdlzwcscLR2TmSKKBaivn6Z2/iBT/9L7z1xV/hrltOLhYEW5xeUVWyFo2yFedpd5zeWOHIbU0+8Kc/5MLHfYdvffywd/AtA/L0puV2fpcoyGvmFYKArneXCnwRqEfD2E54cOVVEDEMlccGa/v3Wv31OQNzB6BcU/xsLr/1XcRBSceqkwyXxq5PwuS2vPa+LnxLODx9Z1CyNR1O9uhWUYKKIwkrWjIVmlsC/2yMBPGJQ2pkpDqxhjDzSUIzrSlTKld2nShfSt3MPLKnzMv/90/zvkvP5zcueDCpOqbnWlRLMTjhn/7ycn7vYRfxV3/0DaaOzGOsbBlIpDhKcZ1SXNt0noJzCwi+uZMZ//eNt/Cnj7mCi99yK+2mUq6vz8G3oOoXp3o343t1Xzrqfq/EreWzs8bSiIZXaUWXe/6jOuVts/07t14v5YytV/umvurMgyeehzHCkx/xO/zqI55xMAqS7wd2saQTDKm2OTJz0I6V92eRSbZgCnj1uhoNOZch2Saw/1tdq+PTh20pqGi9NLKKfZ8nCTWnjLXidrMW0Jlbri4XXv/7PGCYV73vMbz900/mx35qH9NzTVppykilzNx0m/e++RKe98iP8on3XkcrdxS6bHOCQLDUSiObGncBXjJGyNqOr/7zQV7/+O/wwQtv6gB5zDqAPH4ci0/xxQ6+xYxfvL96JKYzSiIbUYuGVnjfO7Ub5QF7/lej1bWAYkBHjDO3GDWIipqrDv4NkQT6on94snnNR57bToLylaGNl6g6uUrcnpLZ5ozsqZye6YYy7lh2rUrQ0GZzbhvU/6XkE4eOTx8OGqXRrBzVVgwPCkI7azHbPmn7lyS0DTPMwUDFqf7wn9/HO77wZF77t7/IafdpcGRmFocyWi5z+81T/NlzP8/LH/txLv/SHd6kKIBE6/QPOHWUqROFiYfRrnNbqPPMb8Tf84bLTvLmp13Lu57zPW7/3izVkbAD5NlYPL/4TbeDT7pO/C7BsIE9rDiSoEQ1XJ496NSj/rb99O8swJrPqgMBDv5g4qA97Lt2GYC2OM4aOZczRu5HElYuj2zSpkeHCoPh6MxdNrZVHUomNGPjp3cB/gklln6Df9a9VhhaaZMTJ4+Eo9U9zicOZSt8Vjgxd9TYQPqcJDR46kYFhqHhib93Lu+//Hxe9oZHMzxa4ujsHKE1NEoxV/zHHbzksR/jNb/xGa795l0eSLSGf6B4cqFNqCdj60YeLsrUM8LNV03z7ud8j9f/0pV853PHKNeCDTv4Fof18pNeBCOmyxzYyIm/EjnKYZXykvCgwTJcncTIDtdu0jXeUa5qv/tO0j1q2031TUGtWipRjZHSONWwfl0clm7LbZ0llxMyMo7M3GnHy6dlpaDKRtJuF9T/YefamaQDAP+sd5XyxCGmZ07YsepkFpiop4PHZxk2mU1nTCkpu1Oxa083M5drIb/7pz/O+799Phe84ieQQJiaa1ItRSRhyKc/+j1e+LP/lzc+54scum16sX9ghalHYYnAhGuHynRxpt7UwTb/8Oobef0TruRLH7gLY6Vj56/tQF/q1e+y5hc5+Bb7ALbG/AsTqYV1kqCMol2ov+rW8/23QrJqfoCiggrfwQEOOZbGnsuDUAmDUM8aO5f9QwduiWxyYw4IWnYNg2G2PS1zrVnZUzmwQWvR29WVsK6tdnOHY2uFp39KWq2mGa1NrhAZKAqGnDBBGGg/Y9yrUbGR+3a9wj+AZ8LRvWVe9OZH8fbPPImf+vkDzMx5INFQuYQVw0Xvu4oXPPr/ctE7rur4B1Z2FK6tFxWnubFCljo++/47eN0TvsMn3n47LoPqcLggIFZdl+40qiUIPjbj4NsMKYhSCxuEJtp52399VKgm13v+Rz9wcMz/craV4dTpu7/1VPnbK140FQfJ5YENV5yMwXBk5k5riXS0NLlugJDiiG1JIynRas/viPq/fC6WqZmjRlRkrN6745AgXUlC5cECg8T7KMq2RhSUB3B5WeQofMij9/LWzz2Jt/3rk3jgj+3h+OwczXbKcLnEoTumedPLv8hzf+KjfOEjN3YYeCP+gY6dnwuQy/7tMH/6hMv4m5dcz+FbmlSGA1hPph4rI/iksPNl0Iy/aGZYY6kGdSrxUNfpv8N7WujlDCwgwC2B6/IV0efuOeoFwNdvfTPz88qDxn5fHrnvOSRB+dtREKOrdKp0mnFo+kd2ONmblWyVtSG2ufofD6lL3Q6q/71GJhw/echGkshwdXzF8ODJ+WMmjhNnJNjgHdZPqkoYhUyUHkCktc4I+z7nwj+Q+YKYj/rlA/zl136d173vcZx5zgjHZ+cIrGGoXOIH1x3m1ed/ipf87Mf4+idv9l2Ozdrouw6QxwhXf/kor3/yt/nz87/DDy6dojoUEcRmVdOi+/n0hO4WJ/62Mr6/iyqkWUo1qXFg9EzfiisXdt2+kO3f4braL28Uo7eJUUTQ99z1zk7/LsRCSSrUomEy574X2eSEQGPlRbA0s1mZbZ6Uicrp2S1T37Oy6pP0dnclbLjWfHPXdbxRVY6dPGhHG5NpM553080Ti5qN+B4Cs5KWW8RR4uaaM+vsIbBBEsdw6XRq7bNRN3iHUrdZEESGX7ngXH7uqWfyt6+/lH/566s5PjtHLY4xRvj21+/giif/iKdc8EAueP0jGNvnEX+6BCtZxOmDyHDsziYXv+NmPv2e22jNO0o13x/St8Rb69RfXk+xo/RLtzEgSz4/QMZHSV2GNQF7RyYZq48Th5ZMU+bbKXOtFvOtNq00JVNH0dpBhNwv4WmwhoIuLRdQIABvcqmZBYwEmYPXLaAapufmsSbSfY37sqd24KbYJrcsBQQtvYnBcnTukA0k0fHy/lVrBxTgn8RUaG2y8OcgyXccSjl+8nAwXBlzpR6RAUU5OX/MJqXE9X/8eWPU8jBj9sGYrASyfQ4lYyWvM6hUGhEvfdujec83f4Nf+50H0nbOOwqTiFIU8uH3foeX/tS/84ELbyTLlLhkOqeeKsQlL98//Oc38kc/+y0ufsfNHQefOoVs9bVbjuAzWwTy9Icyl4EaauVxzpo8h30jk1hjyRSiMKBRTpgcqnNgfJQzJsY4fXSE8XqdWlIitCGokDklc8pAe75I56+ldK2IIsZ7AyFHBgE84fRfY6rd5hM/eAVXH/r43L7KT/70dPPEgzPNVFaJ7CqOVtaUscq+bD6dMS3Xq0OP39wjpUkXa1lmmic31c9v0CQYUtdGncpQdTydb8+ZzKXSde7QTltSSWrOqKWdtfsmyBQlSUrsLT2McnqALEt53DMPMHmfCqoLtQEGOn9ZuI8qjOwp83NPPZNHPu50jtwyyw+vP0aaZoxUh4jdKJd/7jCXffowx+5scddNc51TTh187G038/l/uAPnIKkGKF5TQMFIwEr+n97q/s4yvlOHIlRKI4wOncF4fZRqHJBbOF5EGX9SFmwdWEMcBFSTiFq5RKNcplpKKIURobUYjBcErqjnuMBl/ZmJLElGEgHeg3AFYCVuuW8cfvuCALj62CgTcZkw3Gv2Vn9ck6B6znTzxGNbrrmqAMhrB4hgZag05k7MH+65VQXDROV012q2bDtr7ToNYGGcQitrihVrauWhdKY5Zbv1qbxtt1TiuptvzvXNDLBWmKyey5B7AKq+4u/jnnkGk/cpb5sA6KxBHkZT9eG4PQeqPO4Z9+OMc4b54VVHmb2rQqVSoToccPRHTW65dpoo8QVKrRV+eNVJThxsUR0OEWFJSE8IsMsiHMuTdZbY+UuAO4Nn/KJ8thKHFUbrpzNc20McBJSChSaxfr3A9jBqFSh8pSJCFFhKcUgtSaiXy9RKCUkUEVi/xZzm/QtUFwmFTc2ycAZK4QCUtgh/jnAHAuNHTtPPz71+4RhWLuLgkVlGS5OMlfdRiipXhTbOWMURWHzTYDkxd9iIGkZLe5eZAg5HEpY1JKLVmtsV3v/VyGCYmj0mWTu1vqTY4vdmmlN9TBLy2tFQeZIhPQ9ctJlCD4NZhy5HIQKPe8b9eN+lv8Hz3vgwkqrh+MEWQWi8al/UqVRIKgFRyfZE8C0Nb64E5CnsfJ+ptxjII9vA+JnLsDZmrHEGe8fuT6XU8HMLwCwRXqqsCZYCz+CZWxAKcRgwXC2xb7jBGeOjnDE+yr6RYUZrNSpxQmAs6iDNzYZNlnjrIADVcWOOAdDbR64DukwAgPHRUWrhfhmu7NHQxtnx2UPnz7ZO1mUVo6L7Ps10XsYr+1wzmzVNN995kIpjuDTpIpeY2dbMhpt47gQJwnxrVqpxXcMw0bnWtCk2X0aKNQHlqKbN1vyWtABFqZRq7I0fSZyOA2kO2tk5DWDZWuQzd6qEccB5jx7m0f95D6VKwA+/c5KZqZQw6nqm3brw4sn6VrOyoMJ3n2/dCL4Fz/52qft5+TWXEdiYodpexuqnUUqqqHqvfzmCKOg9NWvXl/6/9CNa+OtECKzxmZtJTKNcolYuUU0SkjAkMBafcLRcQ1jjjs4vpHzFWt5vLOIc+r9vOAtgMSeOnl0iMKE+/LSf4aH7f+qOOCjdkFdIXVP0GCzNbE6m5o/LZPXM1FfV9TvBYKkEDW21mqdcq+tj04dtOaxqozziigSoAhhkrGi4BXiwgg/5JQ+glO5Ht7kj04YoD+dBDiTan/CMC+/L//jsI3jIz4/QbjrWRsEKpsuhtzxhZwHBtxTFN2h137kMVaFenmDv2DkM1yYwJkclqmf82K580vfDp+ch0l5LUIXQGqpJxHi9wv7RIc4YH+XA+CiTQ0MMlcskYYhgVg4/FkuW1wDI/PUNXdGlRQHtK7/Z5CcOGH3Dvz9e4LS5h4799LWBiX42de01F187psARWwor2Vh5v7tz5iZjsCQe+89sevSUOP0XFtFvjONTh4Lh+njaTlvMtE4aKzbvITAtpaTs2jMnNhXWNEYZK9+Hut6f3YAhWdeaCIj1jr607Tjt3Aq/+Kz9XPG5o0Sl5R2Sl81ZuhNwFphbZKlQKP4e5KJ40BWqlJMhGpVJktiDrzJXdHwWrIFSsHrorp9O/U6oMNcOtHA2ipBEIaUoBMpkTmmlGfPtNvOtFvPtNq00I3Ou0/BUcgEgwlWFgOjWWBcJgDn+DXUP4ZyhJ0sprGocJFfEQcJcOmNknYXIFeXQ9B12X+M+6UzrhJxoH5FqNORc6ozveXfqCIBisVpZkxPTR4OR6kSaura00qYIhpPzx+2eWr0dzIcm3VBEwLclb5T3MCYPw6RlVIrTf3fY/2vOwCxgCLJ0HWPO1f9uD34vxi/WvPjfgEaPqj/x46hKo7qHSlL3wyycdvm9DVCJoGCA1eY3KOpehUIoQCEQAkpxAFrCKbSzjFY7Za7VzgVC26qiRuR6AZyqfvXwJZ3rLYO0xSainoxQT4Zx6q6Mg+SwIGPrH6yvKHxs9rCZqBzI5k/MBNVwSFtz8ztoxW6NfOLQDMFcYMdr+7K7pm4LsqxNK51nLp22paTsTs4ct+vdsIqjlJTZEz2UsD2CUqAiTw3mX0rrUf0RMASLHHwLLFZ8avAnPqo4zYjCMo3qJJWkgRGhF7JZgXII1qx9wu/Uk9M8elCsWhRY4sBSK8eokqWZs1nmPn6i3b7MobK3VHJV93C+MeU/v+zRNTGENtJGMkI9GbkpCpIf5imO656jwTLVPGraaVv218/ODAHN9pywSLIPPn7bx2XGYJmen5J2u2XGapOpiEGBk3PHTRBtrJOQtcJo6WzK2enohrIpT0XKLX41C/b/Nnv2C1GTuQzE0KhOMjl6P2rlIcidm0tJFSLrX+tR73ey98JSDSGPNqgqNrCmXS4Fb5islthbLcsj69fxrltHO59fJgC+cdubsNby0Q/9AR+78A/vioPy1Sulyi5aABSHw+F73FsJmGvPmGo0pLEp2yAICQKLGEUlw5HiyFCyHtfenULBYDgxfcTgxIzkbcea6SzNbE6SeJ1JQqKMVE9nRM+DLGALLZ5OKRIMRuy24/bBM76qUK9MsG/sXEbr+zBiu0qLLQnrAYFd2+5f9qVdpMAJfjOq8q4s5dJ2qnaigvvXg/fhUDvqfG6ZCZC6Jharpz3qKaaWDLl63LgsCuLfb2ZzYjCLmFXzP4JgJSAOE03CiktsSQMTEYg15XRvUGrvZbTUpi0zpMzRcjO0dYa2myd1TdpZk8ylqHNd+dSr4bt3bqUF4fjUITPS2JMNV8ayIzN32en5Y2a0vC+bnZ8xq31TyaiXx5gwP0aQNrrs/rsrLTC4EUsOLd8GGz934Oae1UpplEZlgiQqLQLnrHR/I171X9Pu76KC/3fJ03T4EP+3RHmd8ZNyt5+EPe3FGaY909oqmTBW20s9GUaUq0Mbz4KWfWqDExCsWEIbaymoaDmsaBQkaghwaSrtVtPOtI/LcPk0Su0DmHaFIAiJxedRIxnOtNGgTSZzXjDoLC2mvXDI5rxwyFpkLs3hkq7TsFF2WDgoyomTh+3I0J60lbbcdPO4aZTbkkQlnWvN9nQGKkoYhozHDyBu72HzJdVORfICYCn2bzB38oyfqSMOywzX9lNOfFalV/XXimZBOVif3d/zy7vjkUo+nNcgTGVgRby++ewrFw+wpwC4Q++iEgzpRGUf7ax1Q2zj260E9wtt7JKgJElY0cjGarCimSNtt2Rm/qRN0zZOMxwZtWSYIT0bacdkNMFlWJPXGFBBshghxlIjEkAUFYeaFGdbuKBJKnOkzNDWOdo6Q8vNkrp52lmT1LVwLvM4bV1Q5ZYLh0GsrpC6NidOHrUjtYk0zVpycu6oGS5NZvOtuZ5rKkYZq5xFLbvvgDsu7x5aHOVfHP4bBKlCphlRUKJeGadaGsYau+aJ3/39OFi/3b/s+wOb2YYow5/+fyeGzwDWzZDZCrzgy8tH13Oz1uNRWk3HfcbOA+Wum49+75bQxPez2Mw5F7TbLTM3NyNp1sZp2pm45E6eJCwxHp9LMDuCbylmcJqCCpYg1wKKEmX5SajkgiHCEhNQI+pkRzgwGU5SXNDChfO0ZZZUZ2kzR8tN09Y50lxrSF3bAzucdjGbLBEKW0vMFAzz7Vkx0yYcq+1LD528PXDSJolLbq45uwQdqAxXJhmTh2LSBJXdUwthO6iA/yxG0PeXnHNYGzFUnqBWGSOwOUBmnY+3Y/eHm9chd0ETVsUz/53An+R2iaqAtnp/oacAOC/bxyXzN+sXv/sRk8SldiVqfGJ+duaxx2aPhoqTxQy/GNkvBoZLp1FqnrYAbslhi861QcCaoAvvvmRDiAJu8UNQgdTkGkNCQKOjNSAOlQw1LTI7TxbP0cYLhJab8cJhiWBwznVJ682bEwbLbOskQRCa4cp4OtOcstV4OJtrzpriWoqjXKowHj6YsD18j2N+vwodSFqf5+6BWiI+RbdR3UMURh1k3EbuZfB2/1aCsbtAAGR4nn4LcDtKYCA1CcysEGzqKQD+zx3f5AHpmcT7rTZq42TOfeT4yYMvAu4nGCf0QvPkTq7SOA13P2iHPZJaBKepP9AXCYHl1+r9qyXCQQvNwSKUCagQCiS5hqGS4kwbZ5tkHa1hhrbO0tJZ2m6WNGvRdk2yLPV+hg6wVxapsIvHpZ1/i45DQ9UxjaOyU3ESBbF6sBAEgWEiOZdyevo9zO5fWKr+V8oVnGagQimuM1TdSxL74iQLjL/+de7E+zfg9Ot5nZ0VAAXzfyW0vDsSmMvIHHDpnfC+7/dej54CYC79IEOn/Tc0jPTb133JxEHltj2jey+aa8788Xxrlt5OLkcclRi15xDMDqGrZLRlmnbywje+5KsJB+20qPKvEEOIpUIoQkKBqcw6voYsaJIxR5sZ2sx64eBmabs5Mtcizdo+QqG6pNfbYn/D1MxRO1Qbz4IwdHHsaKUtiyijlTMZ0geCs96U2QBa8O5C/cv+lI6QTuI69coE5bi2BMizsXspHuMfBX3C8294BH2hQvWfVviv7ZT5tmCM99ivyPywggAAuO2u40yc1uDMyXOplRtkLvvw9OzU7zRbcwd6zdMYYTS5D0lzn3fKrbEKnqnA2s0IgXXSIj9DsVTiX1mEIcZSB4FSXunV+xrauKBFZuZImfXCQWd9hMLN0nbNRREKcufTsamDdqSxhyQpudm5GVtOaozZh2DapU2o/rsssLwJ8onoZsvVjQXBoajLCGxCo7qHWnkUI97G32x/UwUCk9v9fUrm2SEJkAGBwputcAlCEFnSZgZPvxResMoXVxQA17ffwz73pxC09TM3Xojerlc+4mEv+dTM/NTzW+35RUVCFEe9NE4tOwtNTe+TrsfCeHNAvCYw0PJXvbSGQmPoevIdX0PS8TXEnQhFhhovGJw0vbZAHr7UGVrZLO1sjrnmSRtFMdVaRUfkXInaY94BypLi2Z1CEXTe6/ZG+LDZKa4F5Pj/zXLE0hp8jeok9coYgQ1yxt8atxk88/cThK26vrTgPpLD8/H3A3i785ZRZqug09CYW30wq5a3bWdzmMToT+75A/Pz/+m1rlpu/MPs3Mmnttrz437NRHxTyCqj9lzsbC1X/de/Aplrg/EOtZ0phCE9fuwVoTBIlmApEQhExWfF5b6GltcamKednrS1MGQ4PQ8rCWJ9bwFjTOdENNJVyrpIg82rOIlA2nKEQdxziKcOba23QeYyjATUyiM0KnuIw3jJib+1hSlFEGzR7t9F9JoMpjBYJ2QnTsBLv772+qwqAL5221/w6MYriKqxfvHmN3D9/9JvPP0tL/74zNzUBe2spQISWMtYcjbJ3N41VP+V5WyWRweMteyux7FGhKLjhAwxRFiEACiLYaJ2BuVqDRXnT0FZuGZvmFD+R50XPDY9dfm+a/U2nv1Z2PlQSUZoVCdJomQJgm9rpPjKPpuN96967e3dvkXM/yOB8iEHpiVkEfD9m9Z3gTWfTjhepnks0Z+YeIl5zrtf5cpJ46IkKrcAozhtlCapts9AM7My86/jZM/Uh+jW2ed8B6kHdj0PRzpSBMdoZS9xkFB0jM1bMXcciU6dB0xplv9/8UvXVYJl91OBC1nfZxdKcYW2xMTwmUyM3Ic4SnytvD4yf2C8ABjEGm/jcyscf4dEeG0m4AR+NOkF5VvuWN+6rykAbjn5DWqnTROFZf2x836B+x4470ulpPpVI5ZSXNFhuT/SKvfFhs9ce3d0V9kw+c1rJWS8ejqlsErq2j77bGWp2PVed8DxVJt7b1ItavutRX7tvJ0fM9Y4wN6x+1MtDa1aa2+zZPBJPgOb9+Au3fNWAq9V5ToFS4o7cCe88Kvr30NrLsWNd32WSX00YdzSL15ykREjc6Wk9neVSvUxDXOGieYnVNWtpzjZuihzLSDEmN1mDqxEXmUNTcJ49TQiG+M0o6gmZM26ywTcrcg7MteeuMtr8DXKY9TLowRBsCEE30apHHoNYGA7a3u2bKH6f+Gqp/PX9/04UjlBlhpoxhu70Lpk4W2HruPs086hHu73Di01XxsNy8fj+X0jmknfnXeZa1PUgt8tFXJ7k2f+wERMVE8nsBFZzvwAqh51uPt8G9uzNmYV7cfl2lG1NMpwfR9hEG4KwbdeUoUkhHBAqn/nPoO7dDcVqtXrHvxBH2xRS2aB//L5ja3dujw0t+iHaOkc4dR+Z+74SbE/evwNpZmzvmraZRA3kPhd6loeeLNrfQJ+E4cmYaLimV+7mL/4TObSex7vU4B/lj47LzCdc5STISZHz2Z8+AwCG66Ym98PKnD+g7L7l95swPco7Mr3KHxZwUhGhsALNqD6F7RuF+1Xb7sJM3o7IkcFbkRbwX9D5UfAwI63jhDYdTq0Z/5SWGNP7QzCIEG1t73vtYDN5f2fso5AXX7+qyrOKVFYZWLkvuwZOYtyXOuy8wf3jIv8/u3aRQN8bkWe/7UivCa3sJQEwls2uTbr/+hFpNN1mLzJEbatMXI9Km/IT+j1aQGbWJjUtVC3e4SAdDH/ePV0rNgVmb/4xqa0AIEgzJ/w9rUI3BwtAy1Kbv/7CEjmMqyJvINv9GyqST0vXbU9Eq7UB5z/LqM/UuUuFIui2oZn37w5/thQkDaY3YM5eBbiApdQIpDo/cDlKJb1CoFNUEcI7Lg5IGQuoxxWGavsz1Nc1xZOXu1dvxYg+BZRh2/1OZzGCM7tXo3AmACRokHoQluvzGUIlkZlkr2j96deGQNMF+MP9nl28vsH6fRb4b4DoKJL18dU+CQGo45MLISlzV90Q/Xsb8z+hbP0KYgKbdOyjrStyC2C/Pai3NqelNuEm3zmTh3G2C3jyjdPgnOOajTMWHU/RmynQtF6SNE8DXrlTxSfA8UY+M5nT3DnjfMceFCJ6rD316p6bMFuUIhUBTFw5/ccV32qDUGbNPMOXEtIrTzGWOMMauUxjLGL4M4DHxsQWq/6bzeJ8c1C+zwdA5xQ4bdQjqCIvRnVEjz/K1uDQ2+IbuY4BIK6NEOMAfkU8AFUBAZZ4lZJs5ZvL73tu9+r/bXYM3+h2m5o9BvUAhDfgeeLf3+I1//idXzsTXcwfTTFGN+mymW7SR1QQpvQKE1QjupU4gZ7Rs5mrOH9Iz51d/uYHxZw/ju0HP2mQrt+iyjfMxDsCXD2LJja4hw33NHmKJ9iQn+VagiZ84qfCNeBPA2hyqr5UFs/uZy6hUSZbZIDzjlq8TAj5X1s5emurgUs1gBAEYG4bGg3HVd/YYrLP3Wc2mjIaQ8oeUHgco1gh7Qi37MQbv9ui0s/PkW1VqZRnaCajBAFpU76tCnafcn2lYEvhxDuYA8au6leUT2pU+DTBLzIGFqq6JzA90/A6y/Z2npuapi3cTFn8JswOqTMNS3IQZRpkF9BcPTSLCT/qw/PX9Uh22QOqFMayTgj5T39uBpifBJQr+VZUJEXahuoKsYIUcly8nDKty4+xve/OU19LGDPWQmSCwLY9iy0BQFwXYvLPzlDrV5lAdVoO0xf+AS2QwAU8f5kC6W9tkortQvfzHTwvNQGnuEcN6jDKN4l9idbZH7YhAlQ0Iz9IemxI6A4rcwy7Sp/DXwZL1QG2u1CUbKstdl2yeu/j4Ph8h5GypN920xZtnJEoDcMeEHlDxMhqVqu+eIUf/G07/PO3/0Bt1w12+nM47KdyyGIo3IOeHLsFOsVdn9pO+L9q42jf1iAQvV/B8LXBGzrhP/dK7/Vn7FuWgD8R+s1RKnBOFRmyrZqZxXkz3JP/cCVL819AkUx0X6Tc46h0jiNZNzbsP0at7rV8x1yTalXVoA6r5GU6pa4Yrj0E8f5H7/6Xf7x1bdw8nDa6dXnMt1WHrQ2IAwjujucLmgz20dGtlbUs6+09UEUqv+tanijA1RwL7vKoxmn2/1Z3S0pKgd4BtZmOBFFM6PqbhQx5wIPRjphiy7qv92uuLy0WJ+urT6Hb7Q8ST0ZZV3dfjZxD7NCjsCCCdD985LONbmbICoZ1MF3v3aSyz55nCAy7D+nRBibzmcGaRYUJsBd33dc9W9Nwli6mmvaPA16+0yAcrSzdn83GbPltXd498mrcF6zbma4b5/Zu7z3pse5lS9/kd/keOYo4R1RYg2grwW5kwEiBLvJZ5K1tn6hDgljlX3Uk7GB1e8v0oAXM0NXmywxC0zTVXlwKfO4zNdfqAwFHLujxftffhNv+KXr+OoHD5Nlipi8b/wOAIkGIjhXvFdXfv/2T7X3mLY2kCLZ5+IHfYW/zgLEKFkUwIFNIv5Woi27Ku7gYZxuhgFUVCzIYeAEyJOXOwRlQEeSLmgCW7i+KoyV91ONh8g0HWxq7qpaQC/BwIqCQBVsIMRly7Eftbnk/x3jhktnOO3chOG9vg9cET7t5/IXGsCd12dc+ekuDUAKKHAwcCeg4k/98m5R/XMS2TQWoBPzR/mdu87goFGMDVAj8Izv9Hf9+qAwvY5A8z5qijvqKqiTvwO+BksQgv0svrZ01dR5TWATPgEPrrGMV06jEjd8rcIBW7BOsx55Dl3MnpcMW2ihaVhcX3cxMxWOwqgkVIYCrvvyFP/rKdfzf/7LzRy+pen9A5Jn220Lp2wPO+4qu78/0y/45Y0YrjZgq76jOc//Uv/3ZF8sps9kz6KlQmrQETtjxWob5FWoFBrA9mw5zbxjcEPfASshE9XTqUSNbUw+Ul8KbdnKLGlvJgXjFyZBt1kAywSB84IgqVqyVPnc+w7y+sd5INHxu1oLQKKBaujShWcY7FoW9fx3G22ypnPh+LvUGt6Sn5cujeD43GDG2Te4wjn6674DoRgVnFX0ZkHuA/JjCw7B/EkN7IEJRc0+I2sV4iiq+ASMVw+QBOVFufyDJ8lj/L3wDIU3oNAGJHemFe8tNQuWL2qhnsdlS2teufJzJ7jk4mOEieU+Dy1jbAEk2rzVtKIJkI/eYLu0mP6aAIoP98W7yO5fSnbjjsBCYj5blesBq+DSDP7wm4PZl33zmX6GZzHt2hibAkZ9MQ95I3AUX3hkm3RP8ZqAay/0AOj5GUcgEeOV04mDUqeKz3aTzxTsPUb/dxfby4IGQK4NsJqjMDcLrIXqaMDJIyl//99u4u2/dTPf/cqcL8RqivBiv2emA3OiFnZ/HOxe5ocNOwKLqNmHWxmfzhzGGF/k4+iJwY2xf4BF4Db+H/flfNrhiJps1gKHQGaBJy44BLcLwruSJrBQwmuidnoOWd1cvn4/SFVzVGMvWbygB3SYvNAGRBa9s7S64DKNwIG1QhAbDv1AuORjM9xy1TyTZ0c09uSFoZb0Klh77KtoAEKuAdi+awBGoBptP/JxoyTGj3UdVKj+Nzt4pjEcN4K0chnyiksHN9G+CgCAYX0CFZmDLFBqbTFzwaUq+lMI9wOyPMa1DeTNAegWAl47iGyJidoBwryKz25IrVvdZFlgnMUawaIrLGL7lQSBqJCUS9hQuPXqJt/86EmO3tZm/zkxlWGvT6vLmWuNZVndBPBGgBmAAKhEvq7fbiez/kiAAqLK843hayLYwOICBy/aRJWfDY2x3xe8jOejLkQMyHRo1OIQeR0qRWxzG7U230TSO9sMqo7IlhmvnE5ggl3D/M5l63Q+dp/4+f8XRQsKk8CwOJhYMJ4iYlEnqFPKDf/4v/R3J3jTk2/lc39znLStmLxe/tYdhf191IpX+8Ntzu/f9HjXN8hC9f/MvOXDGRjjyLJtglH0XQMAeGjwQlo6D25OnTEW9BZBTgN+HMSxvnrRm6MeXnVfj99X8ZmoHvDMv6s69fpB+0rI66Fu08D/vOAoXCokFmapgDWh78wMnZh9VBKaM44rPzPDtV+aJUyEfedEWCurIgrX0gD8uDwicKsagKpv4LljKb6boHVgAYqYfxPhmYFyh4CcmEGDEF70tcHvz4Ew4sfaj6edHScJKr6tnn/obwC5g61oAdr9kq5X4RwzGGOxJsDaEGtDgiB/2YiR8iRGgi33lOs/+XoDuuEjdzGzyxKNABbWpYMmKGDTXWvqMg8kKjcMt1zZ5L0vvJO3nX873/vanHc5GP+ZjaPb+hcKtObUYn5Y13oVD/ydolxiFDttcEMV0Lu2Z4wD0QAAqvwuMa08K0QtcDyv8f2EnnkCPRerQA6azuY2xiDGYozFWIM1Fmssxua/MyZPufWnojEG5xyNZIxqPOy794ig2h1a2w3kGWXt8GWPNerhHyjmJkt+b4OkK+y4PHQYREJUEg7e2OJb/3KS265r+YpEo/5xFZaKyHp8AIUGkPsBtqABlPM+fqcardIWonD8XSnCc0SYV/E9J5vAH1yxPZMdmAA4xEWM8JuUg8wzW2YRq5cDPwNyFpD67VOcWl0MLosZ3BiDtf5fY5Y21Fw9qqCqhDZmtDK5yPKQDipxaw0s+0c+OuHr623u+yvhBzrvSkBg4i4HXy+93jN2GBvEKLdfm3HtZ8GlsOdsS1yWzudgPQLA5AJgcyZAgfPfzfH+1WgVLEDx22cpXANYBy4EXjxgx183DdSXepk+nXbqcJqpCcSIBk3BPsea4IbARkEQhGkYdKnpQYC1wQKzdzH6ZkkwjJQmCUy0LEGlkB0+f3s3CAH1uIAt6SW9zQIwGAkXTuMuv0HPRCOniBiGx6q0ZuETb5zmHU89zpfeP0drzicarYkdED+nzTKu4hN8Srs83r/qHFboh5v/+14xfEYEiyPDwUu/sb3jG3gwZUJ/D2sCVJwzgTFBEP/AmPAJIuaHIhIgkg7mzoJTRyVqUI5qeU5/r8wbRSSvwFN0+90xEpxL+1T3cIkgEMGasAtMZFYVBKpKFMQYCRCrVIYNJ+5yfOzPpnn3bx3nui+2OoVIVrN1tQsUu5GlVTzEd1fi/Dc4j15TAw6ivI4MxKEvPBOiEJrZ9h5EAxcAFyFkaYpRcFnLqWtaI3qDiHsyKtegEjCICkJ5s856MtIpV70aeR7wZSy8NrBTGoHitqwFLJpZ/rfpZEvKIufgApqQLkFgbUAYJV5ryh2FQQiVYeHO76X83Yum+PuXTnH0towwZhWc5+bYV/DMfwqE+1en5dMv9Ka3ItyugjUG91c3wXMHkOyzFm3bHX/OfoBS5D3QLlOjDifCiBj9F+DnEE1ZZ6/C9UzLuYzh8iRDyThON8ZQCjk8V3cMbRYGvt5ff84/RSQgCqog2jmV/cld1B90LJzXSjmuEgQBvfL6xfhTf25KqY8Zxs+y3H5NygKYcUHo+IyAGEvYET7rWf9SCMkpavd3kzEQLOzqIjnu35OIXw4DWjPziDpU5uD5l92NBQDAE+IPdqCRTrHtLMiscRUjejHCY6E/QkBViWyJPbUztoTvL/wCsu0NShVrfBizP81RFWsSAlu0cV9cgbhbEDjNCIOIUlJFc8WsW43vJmMha0PaVsJ4cVqz/7sQACGWeF0CQPGNPCrRqc/84IVlGHSmJsA08Ci848+o4pDBI/5Wom3VsP6t+XSyzLeNMGKzyGbWmHRGRJ+G8qncHNiyT0AwDCXjPqS2levk/gFV2WYnYd49t4+VLWVReHFJXqEUjkLvJ0iiau54NZ1P9a5IBGI9kGg1KtyAa63g3cXuXzYpT4Uq9S6FaxTsUy/FGQPRDrZ+G1gYcCW6wX2ESvZ4akGcp40bc+KMO2ZLx4Y+hOgBkIfnOIFNGOK+e08tGaWRjHbq0m+VpBMy207sgAeJrR8duPq6BDZZEk1ZjB8o+iyUogphEHn4xrI05O7vLhnqkvt1X9f/CTpCZuVR+pPfnvKG/2IyBieCBa5L4XcdtAT4wSTYGJ7Txxp/Gx7bTtz0Cn0utEr+ZBB1QzefZjTInFrz+8BfolKUFt/QQVDE/BvJWN8bTxbaANsWMvRNRdVtfR4FOrD3cnpB4M2mhCgqgWgO3y2SeOyy6MHq8lm7b77kriu7CkuBb+N9tzn9l9NrAzgZgo0EdQLP+fedDT/vmKz9lHsyYRqACqrqcAbjWlIaecJLBN6RmwMbKDLvgTT1ZJTAhAyqV+n2mgX9iAj4cmdreTNFDHFUpijlUdjrXSDiFVKQewmCXrkIKzcELez+aIfr+Q+CVElRjAgfNTN8JG0iJiBLFW4YYJ7/emnbTYBuut5dxP2zp6BBAcex0p6/XjJpfcoQOJDHIqvsnC5SVUphheHS5Iaadm6WpMueHiSSULVoJ7b5e1gTY0zIiqevKklUJgrjztp55GB3gtECxHgho7tXxmGXA7C7pqEEvkz4Uvgx3u6vxLsrO2OrJKAiZCIEIhy0lmdKzBGxmHKItjP44wHm+W9gnDtPT+LjtJJZPxxFlMwIZIq8TOAdSMeYX1FjEQwT1QPEQblvtv96adDRAp/YlBdV2gSFQTXPAFz+fVUlDELKSX2FiENXxEC7QohFxR/trvyzIKuXVjASQixRz/FV8/z+U+3wL2RyAZ/o+jmTIhsLZlzK76twEYLNQrIw2zmv/1LaFe6Wj/MkIhHE556qwTgjEljRdwIvRjsR5p6c7Zt3jpAE5TzHf3upG0k4CBXWuRQ26QuQIsFoBfYSEeKwvEYxkuL0N0t8AWYh+7DXq3PR3ngGxffw2812f8HYxvh+f0EAYZi/8v8HgX/PGJwxZLnDzwAfUeFBJuQiG2DEkAUZJKWdntUC7QoBAPDxud/k1qbgFDJVTZ2mvpodfwn8NiqtXBAsEgJFzL8ej6zecmvAVCAJGQCS0LcT20zxEl8AZKXvqSpxmBAEK5sH+exYlGgk3d59s8Kru2BJ4QXQrpF5uz+2O2/3FynPxnhsgw2WMPpiJmcRcnphOsXms8C3gF9qGZ5WvYybXBtTa+BqNV/l84LP7o7TH3aJCbCUHh//E3mMEIMJgFThVwQ+hGgFFuoLqlPGq6dRieqbZJL+0yCQhCJCEMQbvF4OAArKLFeeFGMCqqVGJ2lngzNcYGhdWgB0oX5hRwtQgyFEMChe5a9E2/O0FqnqfnhLVfatULHpDPBD4E2Z8F6FNMgwaiBp4swhmDkA41+G39wFe7SgPkFv+0uhCfMS3QCkTgkE+STKU4CLEB0CyVQzW44alKP6jp7+S8lvsiKvwIuyrQ5N1eFctmFfgC8A0jv8l0RlXxthwxGTxZWGOly16BNLaw4soAm7cf59O/ylSHlemdH7TAXjW2Ae+HPX4i1qmTUGI4LVgEwdzMdgz4QXf2F37M8ly7Y76TH8LVGUMNVqUZKAKLIBSorwn4CPKjopSLqndoaJg5IZdKvwrVC/nIQiQhgkGzixhSioImaxD8Bn+iWUkkrfoMYr3X/RTxogBB7nv5mQXzdj09P5th3U7ZDOgM8Cr3OOb+LrzwjgTP7Yj5+AV/W5nVc/afeOLKfHRx+k1k4Ax8mobZ1LMyP2QcbYTzSS8TPq8Yhz6rTL67orqSMEYEtMt/6IgGIkJMwTgLrJiKFSqiNm25o25UOyJDakvEppr1XVdNnRDVvY+UUs89vAK1uGz7k2EhtfJMmU0HkH5Vn4g0thNt3dLLa7R5fTE5MP86tmDy8K/4OnZA+yk9Wzs2Y2u9eKvUBxzwdOp/OAVKQQBLtudl3tszcpBBa0gLUFgDUlgqBEt/2vKJWkRhjE29rBF0DU0IhDAiOLTnG2/xTfKHXb+begvMEpf6/QMl6eygPOI5trwq03gU7vTGbfZujUGCXwBPvPSJIX7MgwQ6VxKtGYwzGJcS8Dng1MsLiyfVcNMJBdFGzailkQ2CjvLLzad5XQVjF2wcPvY/4R5VKN7Q+8+Wc3Wg6JArOLnsSq1K3ut4G/BV4n8COK2uuOjBTvCSjBCz5/yrAUcAoJAIBfCD7IfUcfiNOM2fa0KQUVsSZ06lQRnVD0mcBLgPsIql0cb3rBdrc/zXcxFfXzNjoOEUMYrOVCF6KgtkTNFyqlOtZuU3uGrvqACgQiDJcjwl0c9+8aeVG00wH/KvDfW45vWoNYMOpwxqIItKbhpd8+pVipQ6fcqF+8/5ucmA/YU64TScjBuRPGJxTgUFFEqxieBbwYOE88uqgIEZhi2ssdULmHegdWZOPagGJtvAojFwVAah0tQVVJ4gpJVBqs6r+oLwAdh6WqUA9D4tB0F8jYbbR0r1wpyn8Nq3yODGnNYRDUhDgxkM5CGsDLvnLKsVGHTtmRX7DvUoQIuWsek0E2ERkQERHnVFTVVYzw26B/BNwX6VT8K2qyLSb1aTPLV0e3ZZEWNJT1YQe8FhCvCN+1JiawFRCHogQ2pJLUBvTEZYkcWhz2VIXQWOqR9/6F4a609bvt/LsQ3ojwPoEpFItCGJKphbQF8UH4/e/uvklslE75GTxv+FLaRgmCBACnmQhi1KoziDplGKdPA14IPMRvvLVzCxZrCF0pLxsGzWyMFrSBte8T2AjTUwtQAlvB2qjzXqVUJ7BBfzv2LjKrVsY6qAr1KCSyBqceQrvOnnnbQUvt/A+o8FqUW03u8W81fWmkIABCeNEO5u/3m+42M3lW7ZsEpZjAKKENmG9nIorRzLlQA8VI2LbZ+SB/CPrjIiospBuvIyuyt9nQAwPTB1pftGA1LcDb/xZVRxKVSeJyf1T/dTJ95xNLTn9YVidvp6jbzgf4GMLr1XGFNYiCcYqzuR9prg0v/4+7Dbt06O43I+DZ+y+HeYNVIQtVwFmnWZZR10A1QOZ/UdDXAY/MfQQrmwarkOZNz7qTjzuVdPpw0mquWq8mBHppASImt/+LmH9jawVGu8wTH07ZwHUUalFEZEyXK9KbATu0+5ba+dcjvCIs83FtQ7uFRdDAt7OnncKRCF77xbslq9w9BUBBzxu6jiyew9e1DkREjSBORBSVUkb6GyAvBB7lgUS69FTYGHVKYy9BwG3RbFgtWmDEECzSAhRjIsLAF/UsxzWiMNqE6t9t128OyqwKkbHUouXInzCgq4rwtlG3nX8EeCfwLoSjeXMOlQCXAcbB87+8uOLB3ZHu3rMDQPnt8Uto2Aa1wHKoNSuCGnAuDe5UKxWhVXuCiLwK+BnxnUYL02D1InbruftSr3g+pg07wTpOyuXfXawFKIEtY01EFMaUksr6mX9pqHSrYVIV6lFEaJYjMKzxWXfbRN2mXgv4J4XXqnKrKCbvcuSK8otpCi/5xj2ANbhHCIAF+r3xKwgNGCNkDlHnDIhrzwUahpnRgJ8U4ZWgvwYq0kdBUFAnU3CRRr5+X0KvkOFSX0BoKwRBTKVUy1X/tQZUwPA6v9j6PBViG1CLgp6YfxHfaGTAG3ApfPeTCq92jqucQUIP5nGS5Y8lhBfuQHOOnaR71mxzeu7+b5M1hSwD6zehFTE62kjcobmWSCt7IsrLgF9ACGTBNOibIFhE2v3PYmaUFT5fvFOYF4UWIAKBrVIp1fMSXz0cfxt05G1uTiuf/gUFg4sGLH1eNwP/M2nzPmfJWhaLopnFOQeJwo++Dhe6ex473PNmnNNj+AL7GuPUShkGQzPNEGMsqFaDhotsyNHmwUeBvBp4oqBBjiwcnCDIqdOnY5kvYUl93S7nnDWWIIgQYynHw5RLy5OAtoXx8ad/Yi3VMFxVnxhQNKA7rHcCeJOGvEtTpiwYBUhxxRNMm/DSS+6xbHDPFQAFnc+HGR1+KO14FmMt2lZU1Kpz2jAnnNXjHNMzH4LIS0CfCZrINgmCbtJFTjlPvmTKghAIg4g4qlKvjmNs3r9rAOr92oMVGlFEYNbIvhDfELNP1G3nN4EP4PgzZ7g5L+RsRHAFFOLwEXj1Nff47X+vAOimF+y9mmZ7nmZrjiSuIGIsIipR5hsYNM0jBX0V8MsI8cBNgzVowbYuzAHD6NB+Skktr43Y5WjYptGt9/QvqA9mwNJncJnCK3B8Ma9IZhBclvoesXEJnrfDtfh3E927Ej3oyXIpExMJVgytZgsTihEDzdm2a7aUaiN8CMrLBZ4ukCA7Kwg8CZlz1KujNKoTeUnv7U+5EQz1KCSQ9eVeWutfm6Cl8fybBN5ohL8VaDqwqqiJvJ1PE15wD/Hsb4TuXZFV6A/s5RwfFabaQqWVEVeMVUXDvB52JtxfxbwgNw3GdsI0KMg5JQwSatURwiAhDGM6MKVtPP3LQUg5tOuu9iOSg4I2ON38X4PH6r85y3ibCDPG+oqkWUpWCsEJ3DEPF37z3q3ei+5dlXXQ749cj41mCUMhSyHL1AKI4gTRDDlTxP0X4PeAau8MxEGR74cYhjGN+h6sCfzPQeSx/4v8AIPVCARv+5sNghw2kBzUbednwL+gvB7xnXbz4KoT6+381gy89BQpzLFTdO/qbIAewxe4755h5hrnMj91A8OubQRE2+3MKdgovl9eoegCYHjwgqBg/oRGfRxrCob3qngUxf5jA4r1d5M//QPKYbDhWn+B9eW4V7s8izWrKwX+KFP+zfhSXMY5X4dPxLeXfvEuabyx2+neVdoEvbRxLSdKbSZnUt508jDPnpg0quqbGqEqwj7x2Ye/C5w+KEHgnFJKatSqI3m57S7OUwiCon7gwu8GpQ1s9vQHf3QHK5sB3fDdHwBvVMM/oDRFfY3xeAzXEtC7wLROnXJcu4HuXakt0HP2XAmi2MDHllwrMyoiDnGSOVV02Bi5APQVoJNdPoItCwLnlFKpTr06ykoVkUUNYRQt713YndzThx3QOf2DYNO6RQ8zYGlY7y3O8SaUKcVjnoyQCb5pkgIvvPfU3zDdu2J9oBeWrqFdmcVFNd+DrzVtVFQQnMmsIux3uOfi6xae1pWBCJsQBM4p5VKdamWUVdV59VWEV+z80w+NQH1CUj0KN3X6F9QVDuxmfAU+gfAG2+YSZxC1GOMtH1UgNPDcu1F+/nbTvSvXR9of/hX/uf4L3FU+TCUuIyeMgBox6hDUZQyJyHOAFwFn5jDebhV3TVKFanmEcrnOunohqCHqpQUs+gwsauCxgV2hCpUwpBSs3/Pfi8SgYbDMzn9lc5hP04JwBiOgzqCpwpDCW66Fq47eu4W3Qveu3gDoeQ+/FO4ImZoVTFMoDzmjqJCJC9qBpkFaxvDriP4xcF5ewHRV06Bgrlp1LAf6rK+4hyoENiRYF+ZWunHI6yr2EYihHkcbkhlLXkV3HQ1DRISbgQud4Z8VmoFiVBEtk6UKQQue/k0Ynr936/aD7l3FgZLynPEr0ECwImSpCuIzEC1WnUoDyS5Q5dnAAxGK/sKLipMUKcW16gilpL7h9ueC5BGBdT7u7pyBVUwDVaEaBiTWrmSIFOp88fZKnUoVOBKEXByEXIjh9qyNEUVMSibqW+2EBp79tXu3bD/p3tXcBnoMyv3HrqRtIQ4P026OiQhGDM6JqFFJnMueAbwCeEBX3UJVVRGx1GvjxFFZejD/2s+wExFYqwvw8u+xAphoyelfXLR7cCuBoZrAbSjXI1yDcI3CNQZuOm+MQ1cfg9hiVXFFWEMsvPBeO38gdO+qbjM9c/QKapFBxDCXZmJQI6gTNYpKlIk+HtFXAj8NqsaE0qhNEIYR6lyvJ9Z9wvZ6Ly/ML0RhLGvWB+h5leX+AVW0GoaaWCva22xR4CC+Y+61wJXA1cAPbcodaplXIHQglXwCPjETtbhMIWrDcYFX3nvqD4zuXdkdoOedcS3tmRQbtb16nwWCqAFxqQZqxAZG559qxD6jXh0bj6NyJVNXF0iAKH+F+b+LmU80LziiS4sVYkxAGC5UCt4YLZzzii4t9dUCDgHfBa4ArgeuF+H6oRJ3PPMP4d3/E1rj8P03QPUK2P8ejKQ+PVc8YleN9eULFDAJvPgeVpxjJ+jeFd5h+p2hy6mUfcSr3VIxVkwY4n7uZxv6tHeewT+9YMZefsV0GNhSqOISEa2iUlWhjEpV0ApQQamrUBekBloHilfVv7RmTFAJgyjrw7DDShjemgTmGlUuQ7hWlBvSNod1GmcbYELAQiWBk9NYcXkncvUtXLSNEsMXgTMy+JkW/Oer7t2O203/P5MlAzx63geBAAAAJXRFWHRkYXRlOmNyZWF0ZQAyMDE3LTAzLTE2VDAxOjUyOjEyLTA0OjAwwvuFhgAAACV0RVh0ZGF0ZTptb2RpZnkAMjAxNy0wMy0xNlQwMTo1MjoxMi0wNDowMLOmPToAAAAASUVORK5CYII=;labelPosition=center;verticalLabelPosition=bottom;align=center;verticalAlign=top;" parent="758x6OaIiu2QK4r-ina4-1" vertex="1">
          <mxGeometry x="500" y="45" width="80" height="80" as="geometry" />
        </mxCell>
        <mxCell id="f5d-xMImJ1Jx3HIkaDwR-4" value="GitHub Repo" style="dashed=0;outlineConnect=0;html=1;align=center;labelPosition=center;verticalLabelPosition=bottom;verticalAlign=top;shape=mxgraph.weblogos.github" parent="758x6OaIiu2QK4r-ina4-1" vertex="1">
          <mxGeometry y="50" width="75" height="75" as="geometry" />
        </mxCell>
        <mxCell id="f5d-xMImJ1Jx3HIkaDwR-5" value="" style="endArrow=classic;startArrow=classic;html=1;rounded=0;entryX=0;entryY=0.5;entryDx=0;entryDy=0;" parent="758x6OaIiu2QK4r-ina4-1" source="f5d-xMImJ1Jx3HIkaDwR-4" target="f5d-xMImJ1Jx3HIkaDwR-2" edge="1">
          <mxGeometry width="50" height="50" relative="1" as="geometry">
            <mxPoint x="120" y="86.5" as="sourcePoint" />
            <mxPoint x="570" y="401.5" as="targetPoint" />
          </mxGeometry>
        </mxCell>
        <mxCell id="f5d-xMImJ1Jx3HIkaDwR-6" value="" style="endArrow=classic;startArrow=classic;html=1;rounded=0;exitX=1;exitY=0.5;exitDx=0;exitDy=0;" parent="758x6OaIiu2QK4r-ina4-1" source="f5d-xMImJ1Jx3HIkaDwR-2" target="f5d-xMImJ1Jx3HIkaDwR-3" edge="1">
          <mxGeometry width="50" height="50" relative="1" as="geometry">
            <mxPoint x="520" y="451.5" as="sourcePoint" />
            <mxPoint x="600" y="86.5" as="targetPoint" />
          </mxGeometry>
        </mxCell>
        <mxCell id="f5d-xMImJ1Jx3HIkaDwR-7" value="" style="endArrow=classic;startArrow=classic;html=1;rounded=0;" parent="758x6OaIiu2QK4r-ina4-1" target="f5d-xMImJ1Jx3HIkaDwR-4" edge="1">
          <mxGeometry width="50" height="50" relative="1" as="geometry">
            <mxPoint x="37.5" y="531" as="sourcePoint" />
            <mxPoint x="38" y="189" as="targetPoint" />
          </mxGeometry>
        </mxCell>
        <mxCell id="OQNFjYG3NnmVQZ2DPFW_-4" value="AWS EKS" style="sketch=0;points=[[0,0,0],[0.25,0,0],[0.5,0,0],[0.75,0,0],[1,0,0],[0,1,0],[0.25,1,0],[0.5,1,0],[0.75,1,0],[1,1,0],[0,0.25,0],[0,0.5,0],[0,0.75,0],[1,0.25,0],[1,0.5,0],[1,0.75,0]];outlineConnect=0;fontColor=#FFFFFF;fillColor=#ED7100;strokeColor=#ffffff;dashed=0;verticalLabelPosition=bottom;verticalAlign=top;align=center;html=1;fontSize=12;fontStyle=0;aspect=fixed;shape=mxgraph.aws4.resourceIcon;resIcon=mxgraph.aws4.eks_cloud;" parent="758x6OaIiu2QK4r-ina4-1" vertex="1">
          <mxGeometry x="180" y="547.5" width="78" height="78" as="geometry" />
        </mxCell>
        <mxCell id="vJHTSsMNeUDx-gvT6hu4-1" value="" style="sketch=0;outlineConnect=0;fontColor=#232F3E;gradientColor=none;fillColor=#ED7100;strokeColor=none;dashed=0;verticalLabelPosition=bottom;verticalAlign=top;align=center;html=1;fontSize=12;fontStyle=0;aspect=fixed;pointerEvents=1;shape=mxgraph.aws4.auto_scaling2;" parent="758x6OaIiu2QK4r-ina4-1" vertex="1">
          <mxGeometry x="530" y="562.5" width="48" height="48" as="geometry" />
        </mxCell>
        <mxCell id="vJHTSsMNeUDx-gvT6hu4-4" value="" style="endArrow=classic;startArrow=classic;html=1;rounded=0;exitX=1;exitY=0.5;exitDx=0;exitDy=0;" parent="758x6OaIiu2QK4r-ina4-1" source="OQNFjYG3NnmVQZ2DPFW_-1" target="vJHTSsMNeUDx-gvT6hu4-1" edge="1">
          <mxGeometry width="50" height="50" relative="1" as="geometry">
            <mxPoint x="520" y="588.5" as="sourcePoint" />
            <mxPoint x="570" y="538.5" as="targetPoint" />
          </mxGeometry>
        </mxCell>
        <mxCell id="vJHTSsMNeUDx-gvT6hu4-6" value="" style="rounded=1;whiteSpace=wrap;html=1;dashed=1;fillColor=none;glass=0;" parent="758x6OaIiu2QK4r-ina4-1" vertex="1">
          <mxGeometry x="578" y="328.5" width="382" height="520" as="geometry" />
        </mxCell>
        <mxCell id="vJHTSsMNeUDx-gvT6hu4-7" value="aws-vpc-dataplane" style="text;html=1;align=center;verticalAlign=middle;whiteSpace=wrap;rounded=0;" parent="758x6OaIiu2QK4r-ina4-1" vertex="1">
          <mxGeometry x="669" y="298.5" width="200" height="30" as="geometry" />
        </mxCell>
        <mxCell id="vJHTSsMNeUDx-gvT6hu4-11" value="" style="shape=flexArrow;endArrow=classic;html=1;rounded=0;exitX=1;exitY=0.5;exitDx=0;exitDy=0;exitPerimeter=0;entryX=0.009;entryY=0.431;entryDx=0;entryDy=0;entryPerimeter=0;fillColor=#7F00FF;fillStyle=solid;" parent="758x6OaIiu2QK4r-ina4-1" target="OQNFjYG3NnmVQZ2DPFW_-1" edge="1">
          <mxGeometry width="50" height="50" relative="1" as="geometry">
            <mxPoint x="67.5" y="572.0000000000002" as="sourcePoint" />
            <mxPoint x="640" y="528.5" as="targetPoint" />
          </mxGeometry>
        </mxCell>
        <mxCell id="vJHTSsMNeUDx-gvT6hu4-21" value="aws-vpc-controlplane" style="text;html=1;align=center;verticalAlign=middle;whiteSpace=wrap;rounded=0;" parent="758x6OaIiu2QK4r-ina4-1" vertex="1">
          <mxGeometry x="240" y="454.5" width="160" height="30" as="geometry" />
        </mxCell>
        <mxCell id="vJHTSsMNeUDx-gvT6hu4-22" value="Ec2 Autoscaling Group" style="text;html=1;align=center;verticalAlign=middle;whiteSpace=wrap;rounded=0;" parent="758x6OaIiu2QK4r-ina4-1" vertex="1">
          <mxGeometry x="507" y="612.5" width="117" height="30" as="geometry" />
        </mxCell>
        <mxCell id="vJHTSsMNeUDx-gvT6hu4-31" value="" style="group" parent="758x6OaIiu2QK4r-ina4-1" vertex="1" connectable="0">
          <mxGeometry x="640" y="351.5" width="280" height="470" as="geometry" />
        </mxCell>
        <mxCell id="vJHTSsMNeUDx-gvT6hu4-8" value="" style="rounded=1;whiteSpace=wrap;html=1;dashed=1;fillColor=none;glass=0;" parent="vJHTSsMNeUDx-gvT6hu4-31" vertex="1">
          <mxGeometry y="30" width="280" height="120" as="geometry" />
        </mxCell>
        <mxCell id="vJHTSsMNeUDx-gvT6hu4-9" value="" style="rounded=1;whiteSpace=wrap;html=1;dashed=1;fillColor=none;glass=0;" parent="vJHTSsMNeUDx-gvT6hu4-31" vertex="1">
          <mxGeometry y="188" width="280" height="120" as="geometry" />
        </mxCell>
        <mxCell id="vJHTSsMNeUDx-gvT6hu4-10" value="" style="rounded=1;whiteSpace=wrap;html=1;dashed=1;fillColor=none;glass=0;" parent="vJHTSsMNeUDx-gvT6hu4-31" vertex="1">
          <mxGeometry y="350" width="280" height="120" as="geometry" />
        </mxCell>
        <mxCell id="vJHTSsMNeUDx-gvT6hu4-17" value="aws-vpc-dataplane-subnet-a" style="text;html=1;align=center;verticalAlign=middle;whiteSpace=wrap;rounded=0;" parent="vJHTSsMNeUDx-gvT6hu4-31" vertex="1">
          <mxGeometry x="40" width="200" height="30" as="geometry" />
        </mxCell>
        <mxCell id="vJHTSsMNeUDx-gvT6hu4-18" value="aws-vpc-dataplane-subnet-b" style="text;html=1;align=center;verticalAlign=middle;whiteSpace=wrap;rounded=0;" parent="vJHTSsMNeUDx-gvT6hu4-31" vertex="1">
          <mxGeometry x="40" y="158" width="200" height="30" as="geometry" />
        </mxCell>
        <mxCell id="vJHTSsMNeUDx-gvT6hu4-19" value="aws-vpc-dataplane-subnet-c" style="text;html=1;align=center;verticalAlign=middle;whiteSpace=wrap;rounded=0;" parent="vJHTSsMNeUDx-gvT6hu4-31" vertex="1">
          <mxGeometry x="40" y="320" width="200" height="30" as="geometry" />
        </mxCell>
        <mxCell id="vJHTSsMNeUDx-gvT6hu4-26" value="" style="group" parent="vJHTSsMNeUDx-gvT6hu4-31" vertex="1" connectable="0">
          <mxGeometry x="110" y="42" width="60" height="97" as="geometry" />
        </mxCell>
        <mxCell id="vJHTSsMNeUDx-gvT6hu4-14" value="" style="sketch=0;points=[[0,0,0],[0.25,0,0],[0.5,0,0],[0.75,0,0],[1,0,0],[0,1,0],[0.25,1,0],[0.5,1,0],[0.75,1,0],[1,1,0],[0,0.25,0],[0,0.5,0],[0,0.75,0],[1,0.25,0],[1,0.5,0],[1,0.75,0]];outlineConnect=0;fontColor=#232F3E;fillColor=#ED7100;strokeColor=#ffffff;dashed=0;verticalLabelPosition=bottom;verticalAlign=top;align=center;html=1;fontSize=12;fontStyle=0;aspect=fixed;shape=mxgraph.aws4.resourceIcon;resIcon=mxgraph.aws4.ec2;" parent="vJHTSsMNeUDx-gvT6hu4-26" vertex="1">
          <mxGeometry x="1" width="58" height="58" as="geometry" />
        </mxCell>
        <mxCell id="vJHTSsMNeUDx-gvT6hu4-23" value="worker01" style="text;html=1;align=center;verticalAlign=middle;whiteSpace=wrap;rounded=0;" parent="vJHTSsMNeUDx-gvT6hu4-26" vertex="1">
          <mxGeometry y="67" width="60" height="30" as="geometry" />
        </mxCell>
        <mxCell id="vJHTSsMNeUDx-gvT6hu4-27" value="" style="group" parent="vJHTSsMNeUDx-gvT6hu4-31" vertex="1" connectable="0">
          <mxGeometry x="110" y="205" width="60" height="89" as="geometry" />
        </mxCell>
        <mxCell id="vJHTSsMNeUDx-gvT6hu4-15" value="" style="sketch=0;points=[[0,0,0],[0.25,0,0],[0.5,0,0],[0.75,0,0],[1,0,0],[0,1,0],[0.25,1,0],[0.5,1,0],[0.75,1,0],[1,1,0],[0,0.25,0],[0,0.5,0],[0,0.75,0],[1,0.25,0],[1,0.5,0],[1,0.75,0]];outlineConnect=0;fontColor=#232F3E;fillColor=#ED7100;strokeColor=#ffffff;dashed=0;verticalLabelPosition=bottom;verticalAlign=top;align=center;html=1;fontSize=12;fontStyle=0;aspect=fixed;shape=mxgraph.aws4.resourceIcon;resIcon=mxgraph.aws4.ec2;" parent="vJHTSsMNeUDx-gvT6hu4-27" vertex="1">
          <mxGeometry x="1" width="58" height="58" as="geometry" />
        </mxCell>
        <mxCell id="vJHTSsMNeUDx-gvT6hu4-24" value="worker02" style="text;html=1;align=center;verticalAlign=middle;whiteSpace=wrap;rounded=0;" parent="vJHTSsMNeUDx-gvT6hu4-27" vertex="1">
          <mxGeometry y="59" width="60" height="30" as="geometry" />
        </mxCell>
        <mxCell id="vJHTSsMNeUDx-gvT6hu4-28" value="" style="group" parent="vJHTSsMNeUDx-gvT6hu4-31" vertex="1" connectable="0">
          <mxGeometry x="110" y="368" width="60" height="88" as="geometry" />
        </mxCell>
        <mxCell id="vJHTSsMNeUDx-gvT6hu4-16" value="" style="sketch=0;points=[[0,0,0],[0.25,0,0],[0.5,0,0],[0.75,0,0],[1,0,0],[0,1,0],[0.25,1,0],[0.5,1,0],[0.75,1,0],[1,1,0],[0,0.25,0],[0,0.5,0],[0,0.75,0],[1,0.25,0],[1,0.5,0],[1,0.75,0]];outlineConnect=0;fontColor=#232F3E;fillColor=#ED7100;strokeColor=#ffffff;dashed=0;verticalLabelPosition=bottom;verticalAlign=top;align=center;html=1;fontSize=12;fontStyle=0;aspect=fixed;shape=mxgraph.aws4.resourceIcon;resIcon=mxgraph.aws4.ec2;" parent="vJHTSsMNeUDx-gvT6hu4-28" vertex="1">
          <mxGeometry x="2" width="58" height="58" as="geometry" />
        </mxCell>
        <mxCell id="vJHTSsMNeUDx-gvT6hu4-25" value="worker03" style="text;html=1;align=center;verticalAlign=middle;whiteSpace=wrap;rounded=0;" parent="vJHTSsMNeUDx-gvT6hu4-28" vertex="1">
          <mxGeometry y="58" width="60" height="30" as="geometry" />
        </mxCell>
        <mxCell id="v2D35SXOGeGgdVKwu3G9-8" value="" style="group" parent="758x6OaIiu2QK4r-ina4-1" vertex="1" connectable="0">
          <mxGeometry x="830" width="170" height="125" as="geometry" />
        </mxCell>
        <mxCell id="f5d-xMImJ1Jx3HIkaDwR-3" value="AWS S3&amp;nbsp;" style="sketch=0;outlineConnect=0;fontColor=light-dark(#232F3E, #ffffff);gradientColor=none;fillColor=#7AA116;strokeColor=none;dashed=0;verticalLabelPosition=bottom;verticalAlign=top;align=center;html=1;fontSize=12;fontStyle=0;aspect=fixed;pointerEvents=1;shape=mxgraph.aws4.bucket;" parent="v2D35SXOGeGgdVKwu3G9-8" vertex="1">
          <mxGeometry x="47.5" y="47" width="75" height="78" as="geometry" />
        </mxCell>
        <mxCell id="f5d-xMImJ1Jx3HIkaDwR-8" value="Enable versioning for tfstate" style="text;html=1;align=center;verticalAlign=middle;resizable=0;points=[];autosize=1;strokeColor=none;fillColor=none;" parent="v2D35SXOGeGgdVKwu3G9-8" vertex="1">
          <mxGeometry x="2" y="7" width="167" height="26" as="geometry" />
        </mxCell>
        <mxCell id="pv6USToyfLzhzpdw-G9H-8" value="" style="group" parent="758x6OaIiu2QK4r-ina4-1" vertex="1" connectable="0">
          <mxGeometry x="260" y="510" width="200" height="153" as="geometry" />
        </mxCell>
        <mxCell id="NeNDxp4ALAjWKQrgcRx6-1" value="aws-vpc-controlplane-subnet-a" style="text;html=1;align=center;verticalAlign=middle;whiteSpace=wrap;rounded=0;" parent="pv6USToyfLzhzpdw-G9H-8" vertex="1">
          <mxGeometry y="3" width="200" height="30" as="geometry" />
        </mxCell>
        <mxCell id="pv6USToyfLzhzpdw-G9H-1" value="" style="rounded=1;whiteSpace=wrap;html=1;fillColor=none;" parent="pv6USToyfLzhzpdw-G9H-8" vertex="1">
          <mxGeometry x="10" width="180" height="36" as="geometry" />
        </mxCell>
        <mxCell id="pv6USToyfLzhzpdw-G9H-3" value="aws-vpc-controlplane-subnet-b" style="text;html=1;align=center;verticalAlign=middle;whiteSpace=wrap;rounded=0;" parent="pv6USToyfLzhzpdw-G9H-8" vertex="1">
          <mxGeometry y="60" width="200" height="30" as="geometry" />
        </mxCell>
        <mxCell id="pv6USToyfLzhzpdw-G9H-4" value="" style="rounded=1;whiteSpace=wrap;html=1;fillColor=none;" parent="pv6USToyfLzhzpdw-G9H-8" vertex="1">
          <mxGeometry x="10" y="57" width="180" height="36" as="geometry" />
        </mxCell>
        <mxCell id="pv6USToyfLzhzpdw-G9H-5" value="aws-vpc-controlplane-subnet-c" style="text;html=1;align=center;verticalAlign=middle;whiteSpace=wrap;rounded=0;" parent="pv6USToyfLzhzpdw-G9H-8" vertex="1">
          <mxGeometry y="120" width="200" height="30" as="geometry" />
        </mxCell>
        <mxCell id="pv6USToyfLzhzpdw-G9H-6" value="" style="rounded=1;whiteSpace=wrap;html=1;fillColor=none;" parent="pv6USToyfLzhzpdw-G9H-8" vertex="1">
          <mxGeometry x="10" y="117" width="180" height="36" as="geometry" />
        </mxCell>
        <mxCell id="tJokNtRFdrJTjC8cLDns-1" value="" style="group" parent="758x6OaIiu2QK4r-ina4-1" vertex="1" connectable="0">
          <mxGeometry x="93.25" y="898.5" width="944.5" height="200" as="geometry" />
        </mxCell>
        <mxCell id="v2D35SXOGeGgdVKwu3G9-3" value="&lt;h1 style=&quot;margin-top: 0px;&quot;&gt;&lt;span style=&quot;background-color: transparent; color: light-dark(rgb(0, 0, 0), rgb(255, 255, 255));&quot;&gt;Controlplane Routing Table&lt;br&gt;&lt;ul&gt;&lt;li&gt;&lt;span style=&quot;font-size: 12px; font-weight: 400;&quot;&gt;Destination 0.0.0.0/0 via Internet Gateway.&lt;/span&gt;&lt;/li&gt;&lt;li&gt;&lt;span style=&quot;font-size: 12px; font-weight: 400;&quot;&gt;Destination aws-vpc-dataplane via VPC Peering.&lt;/span&gt;&lt;/li&gt;&lt;li&gt;&lt;span style=&quot;font-size: 12px; font-weight: 400;&quot;&gt;Destination aws-vpc-controlplane via local.&lt;/span&gt;&lt;/li&gt;&lt;/ul&gt;&lt;/span&gt;&lt;/h1&gt;" style="text;html=1;whiteSpace=wrap;overflow=hidden;rounded=0;" parent="tJokNtRFdrJTjC8cLDns-1" vertex="1">
          <mxGeometry width="269.85714285714283" height="200" as="geometry" />
        </mxCell>
        <mxCell id="v2D35SXOGeGgdVKwu3G9-4" value="&lt;h1 style=&quot;margin-top: 0px;&quot;&gt;&lt;span style=&quot;background-color: transparent; color: light-dark(rgb(0, 0, 0), rgb(255, 255, 255));&quot;&gt;Dataplane Routing Table&lt;br&gt;&lt;/span&gt;&lt;ul&gt;&lt;li&gt;&lt;span style=&quot;font-size: 12px; font-weight: 400;&quot;&gt;Destination 0.0.0.0/0 via Internet Gateway.&lt;/span&gt;&lt;/li&gt;&lt;li&gt;&lt;span style=&quot;font-size: 12px; font-weight: 400;&quot;&gt;Destination aws-vpc-controlplane via VPC Peering.&lt;/span&gt;&lt;/li&gt;&lt;li&gt;&lt;span style=&quot;font-size: 12px; font-weight: 400;&quot;&gt;Destination aws-vpc-controlplane via local.&lt;/span&gt;&lt;/li&gt;&lt;/ul&gt;&lt;/h1&gt;" style="text;html=1;whiteSpace=wrap;overflow=hidden;rounded=0;" parent="tJokNtRFdrJTjC8cLDns-1" vertex="1">
          <mxGeometry x="674.6428571428571" width="269.85714285714283" height="200" as="geometry" />
        </mxCell>
        <mxCell id="v2D35SXOGeGgdVKwu3G9-5" value="&lt;div&gt;controlplane-dataplane-peering&lt;/div&gt;" style="text;html=1;align=center;verticalAlign=middle;whiteSpace=wrap;rounded=0;" parent="tJokNtRFdrJTjC8cLDns-1" vertex="1">
          <mxGeometry x="387.91964285714283" y="85" width="168.66071428571428" height="30" as="geometry" />
        </mxCell>
        <mxCell id="v2D35SXOGeGgdVKwu3G9-6" value="" style="endArrow=classic;startArrow=classic;html=1;rounded=0;entryX=0;entryY=0.5;entryDx=0;entryDy=0;exitX=1;exitY=0.5;exitDx=0;exitDy=0;" parent="tJokNtRFdrJTjC8cLDns-1" source="v2D35SXOGeGgdVKwu3G9-3" target="v2D35SXOGeGgdVKwu3G9-5" edge="1">
          <mxGeometry width="50" height="50" relative="1" as="geometry">
            <mxPoint x="312.0223214285714" y="70" as="sourcePoint" />
            <mxPoint x="446.95089285714283" y="10" as="targetPoint" />
          </mxGeometry>
        </mxCell>
        <mxCell id="v2D35SXOGeGgdVKwu3G9-7" value="" style="endArrow=classic;startArrow=classic;html=1;rounded=0;entryX=0;entryY=0.5;entryDx=0;entryDy=0;exitX=1;exitY=0.5;exitDx=0;exitDy=0;" parent="tJokNtRFdrJTjC8cLDns-1" source="v2D35SXOGeGgdVKwu3G9-5" target="v2D35SXOGeGgdVKwu3G9-4" edge="1">
          <mxGeometry width="50" height="50" relative="1" as="geometry">
            <mxPoint x="404.7857142857143" y="60" as="sourcePoint" />
            <mxPoint x="446.95089285714283" y="10" as="targetPoint" />
          </mxGeometry>
        </mxCell>
        <mxCell id="8zR94XIDTE6t9uDQv62q-1" value="Terraform" style="shape=image;aspect=fixed;image=data:image/png,iVBORw0KGgoAAAANSUhEUgAAAQAAAAEACAYAAABccqhmAAAABGdBTUEAALGPC/xhBQAAACBjSFJNAAB6JgAAgIQAAPoAAACA6AAAdTAAAOpgAAA6mAAAF3CculE8AAAABmJLR0QA/wD/AP+gvaeTAAAAB3RJTUUH4QMQATQMtSuaIwAAgABJREFUeNrsfXdgZFd1/nfufW36jHrX7nrXvTdcsDEdQkIwhBACpEAIEHoMMQYChEBCqIEEQyrpJJBAfiGU0I3BYGNjG5f12t6m1apL09+8du/5/fFmVHYlraTVFtv7ybK0o5n37rvv3XNP/Q7hFE56XNT726hOXYlZxehrvxcZziAEYFkMppA0A4I0Bewh0jWqh2Uer++CGzzCABiUArg+f7zb3sS48pMA7gD+6G0PJHfO3pEveVNtQVTvKgdT/aHyhhwjcx6zesg2UvemrMLegfQ5I3/8vF8u9Z0HffO/jeP1X9sKaB8AkEucKXqS51Da7GCDkkwQAIhDN4BIRShzCQmVwL1Tf3eip/IUDgGd6AE80fHc7W9EhTJgacGCC+0KMADBgGImjQjMGpojCrQPP6pSNZrhsj+CSmMXA2Ap81CqNH9M/UaG+MubAd6KTz39EutHY9/OVYPxfBDVCvWo2hOo2kCg/D7FQX+gGt2R9jtC3ejwo3p70iw4jpE2AAg/qqMaTnsJIztly8w+x0jts0RiV8LMP5C1u/a0232TL9r+a7O1wFQPl+7DB28/H5dt+RiK/gGMTP8TdacuoTZ7gBwjxVLYTCQhJTG0QEDteKj9DThr9qP48f53n+jb8ITFKQFwnHFJ3+8ix504iFF0yU5EiiGEIMU+NaI6/KiKajCLmcbP4atpvdwx9G7GVaftRBJn4bdfpM3vPfSd1ExjV76qZjv9sN4Varc70O5gqL3+UPldEfv9ofI7I+1lQx1kIu0ZkQ4Q6QCKIyjtg6HRkdiGvNOrptxHhdKRbk8M80jlLgMgSLJgCBuWTMCSqdCWyVlbJg/aRuoRW2Z2Okb6kZRR2N1pn77/6YMvmjvo2eHe8l1461mX4OL/NMBQAIC8da7oSZ+LjN0GS6bYZuZErgs1t4jSTAn31j5zom/REwqnBMBxwA68BQN9FrayhXtqNSTSJjRpKgcTdLD2M06aPSzIwMHKtwAAD3yIcfaN8Wc/8PTdzgPjP8pWwqmCG1Y6vLDaG+hGX6j8vlC5vaH2eiMddoW60RFqP6d0kIx0IELtQ3EIzREUh2DWABiARvwLcXz7FWyZ5970WZqh6GD1QSPSNUhKYEvukmis9pBsRHOIdRIGwBR/CxAkDGHDlDZMkYAlkzVHpsctmdxnG6ndCSP7QNLMPZKx2vdvyZ0/9ulPPLuKa8Gfu34cr/zvPvCXGKe/+iWiwxriyJX80/Kf4dqBG1Cci3Cf+8kTfdueEDglAI4RnjP8PkzWxpBzkoDhgBXI13Wa9vZgd+lrDM28Pf8MCAic1fFLnbVwpi/iqBAotzNQjX5fuUOhavREHPaGqtEVai8f6SAbaj8VaZ+UDqE4RPwzQrywW4t88QInBkDNW00AgUAU78iM9sQW3Z4Y0nPeqJxxdzf/boARYjBzYeQrV0y5DwmCBUbzUAAvnEfzglAgAiQkmYu0hURgyeSMY2RGbZF6xDHSjyTN/IOWkdxvSXv/yOx9k3PeXmRT3aIzeToc6eieZC8m6gewu1zESPmvT/StfFzjlADYJLyb3ovvDdagqAg7SEObSbBWVA1maF/pdpSDB/Vdv8G45J/iKX/pWZ/vOFC755KKN/FkxeoZoW4Mlv2JpNJhNtSeDHUApYP5Rc5LFjjFzr2FRd68j62frfvKy4yUAEQQZKEndYZKmlkeqz1kuOE0CCZ4/pEI0Z7YqtJWB/aX75SAXOXqW5/h5riYAU3xH5gACUEmLOk0NYVEmLW6inm7b69tpP7yjPyV/zNRdysz3kOYbdwjulKnI2HmtOWkUXdn4WiB74792Ym+xY9LnBIAR4GnOO+G2zeGaM/L4HR8GTAtgiDMNkbo0eIPmJHiXzrt3bi052XIm2PW10f+87SZ+r6ra+Hsk+th6VI3nNtRDWasrN2lDWFhvHZvc6fVrcXN8aJe2L2bWGWBrwRqvj9Cxurh7tQO1YgqYrz2oNAcNXd9XvReBdvI8ED6XDVSuccIdQOAWOcMLdYWeJEJEVF36hy2RAG1YI47kgO3553uf+vPbf/yD/beeVDpOtoTERWSA5QRfboQbcWYug92e4QfPPzRE33bH1c4JQDWge3b34jhRhqhFDg78RTsbHwPzLFqP1Xfjb2l7zHgxroxM15+zr+1j1bvv6gcTF5bD4pX1sK58+tBscuLqgh1A4wIQMQ5ezjKWF0Yrd5tEgzmDS3w1RAvaIJEd2qHSlsdPFl/RFaDcYp3drHCuRjD2YtVKRgXZW+UYg3haMbUetw0tuYuD4venCz5Y2RRilJmDvlE18Ntid5/6k4O//tXd9+4m4iwPX895Zw+KiQ7dMZpw6w7jjBo4Mdjp3wEm4FTAmANeNI5b4JTziBvbUUJB6CDhqiFRdpTuoNLf3qP/uw3qnjt/2WAt4N+9Sv/1HWwdt+ltXD2Ojecu7wWzF1YD+eyjaiKSHsAFMcONdG0xSNKmZ3ckRzG/vLPaHNvycKub8ss96bPVICg0ep9MtI1LNj1K302RGfydG0Ii8dr98nV379WMAxhYzh7iRqr7pO+cplArKFIkklZqx35RNeDBaf78z2pbf/ytd1f32chREc2SR3OEHUkevk7+7/IFw1cjAyG4Ng2vrn7fcf+IXic4pQAWBXvwxW5WcisCVNYiEJNs95uPH3re9hTo7h0+Bfg1setb+35t9Nm3L1X18LZa92wdHEtnN3RiMqWH9WhOADAOp5q0XSULV5EGo6RQ2/6DLW3dJfc7F0fYOSdId2V3KqL3piYdh8V8V/lERZz7CtImu3cndyh9pbvNI5+bPExU2YHdyXP0CPlh+TSv2mtoUmSSSkzh4LTvbvg9PxrZ2r4i//3qpseoHcTn9n5azCREHmrj88Z2sEPT+zEdK0EPd2LB/C+zbz5TwicEgAr4Olbb0S9QegWF0MZNYwHt4lysJ97Emdz2uzvn/X3X9CISld5kXtlPZw7rx7MdbZ2eUYIgHSsWtMyi34xNEyR5IHseeH+8t2W5hBHe1sIBEYEUyTRnTpdWTKBg9UHpa+KAEwsaAZHAkOQgeHcxdF47SHDi0oAjDV+dqVxhehIbFeWyNNY/VEhYR5yvAVBICApZeaQtTumC4nuL3cmh/7+qf0vuutJPedFb77lRWQbBcpa3WznEjw5uwc50Y1bD35o8x6CJwBOCYBlcO3QO/HDkQ+jkDwN2wvPpJo/SX949Rf0wRLMLz76lhc0wtn3Msvt4/WH7Wl3D+KdFtxc9M0FD1r7IjMxlL1AjdUekoGqYv3OthYWVP601c29qTOUG5bEeH3nMo6+tR4vQn/6fNVQVTHX2E1HZwbExxvIXKAaYShmvYNkrOhXIACsNRQIgpJGlgqJrsm83f319mT/P1zed/2PupPD0c0/ezmZskBdqW0cSZ+3nv4M7Hvo+0gZzinTYA2QR3+Ixw+uG3wb2p3LkBSdGMxeTqaREtPuTuScAd47N7btloOf+OBY9a73alZ9lWC/SJltoSUy3IgqxIiIYIjmbr8OwUpgMHJ2DzxVQahd2thtiRcXgdCZ3K47k1v1pLtbzjQeFXFoT2L9O3dsRhjkIGUWuBJMiKN/ZCTaE1t0xZ+TofZBq+9BRJBEAALtcS0opmtB6aJ6WP7lg5Wdpx2oPFi+ZujXx89suzLaW/4RpmujIiyWUT2QxG0978V3rQClxmnw9b1HOebHL05pAAAuocvhdD8VZ6SeDTNk/NT/PCkOsL3wFGbS7SPlu145XX/wtZPuA9tCVect+WuD/eVbbYLkntT52jbaebK+T1aDMYp37/UuNoXB7CVhyTtoxJ55c52fB4AIjlHg3vQZSrOig9UHZKTrOHrHnYYlUzyQOU+NVO4xIu1j44+Nhi0z3J+5QB0o7zI0R+s4FgHNqggAIiHTyNrtjbzT9d32ZP/fndVx1Tdr/mz9/ulvE5OgnNXHnifZzmagoyISB9P4vv6jo5iHxyee0BrA07e9D4OJKzCSewCmlUEtHKPd4Q/FPZP/wBOvuoduvu/Lz9xd/O5nD1R+8qrpxs5CqGvaNnKUsXpF2T9Aka5TJTggAl2jntQOlTJ72FMVobgBgoG1PdzxLps2O5hZiUZUIlrzbWmp/BptiS26N32mLnpjcqLWUvmPNmwXn0NxSDm7VysOyVflo9BQFNJWJyyRRsmfFLR+U4cIRATikH2uhyWr5hdPrwelF0y5+58c6IY8rf3SfW3J7kbZG6ditEekRYKyIsEXtV0Jcrqxo/Na7C396Cjn5PGDJ6wAuCz1Toiki5RdQDufjWpjQlSCSXQkz+Jz268f/ujdf/3OA9Wf/PFY7WdnuuFkMwWPhSPzSJrtKPp7m2mzEoEqUyUYEykrz52J07RikKeKTR/AkaaYAGgkjAIJMlAPp9coAOIwnSQbvemzVdbu4tHaA0bVP0ix8Fkptr9exKaFY+TYkgnUgqmjEAAaBadfK81UC0skN/74NQWBYMUh16OKUQuK29yw+gsVb/YyrdnbWrhgtD04x6v5JX64+lMqypJI2R3cm21DV+ICOHgKZrxbN2F+Htt4wgmAczrfh+3ZyzDAv4B+4ynY63+bysF+ev7QJ3lr7tzE/sqdL99TuuWvD1Rvf/5s4+GkYp8BQxCIAI2k1cW2kdYlb69YcNZJaA5RDUaFp4rUmdyqctYA+6ohIl1rTvPy2gA1d8Z4gTlcDSYFHTHtdsHRN5i9QIXsidHKvTJQrdj+ZqJ5PhLI2d267E+JOCV5I2aAQEdyq64GFREodx2azsqDa2oEUBxyPSzLqj97Wi0svmDWHXt2aFSdwfZt+y2RrlW8WS75j1DdZ2GEST6ttw0dyXPREV2F8WAAwIObOmuPFTyhBMA1A2+HIUpImGnUrUdod/Df4u7Jv+fJr95H7//nP3naz2f++88PVH/8lkn3vq5AlZsefSEwXwSjkTZ7WJKJSjB6iENMABAIdZUq/gFhSpO7k6drQ6TghkVqZeIdCmoe15IpnTCzXPEnxZGEhSCJrtTpqiMxrCfqDxuzjd0UL/qNh+hWB0HpkApOv/ZUVYTaxfofHQ1LJlFwBnWxMSk1qyM5ANc1wFgQSCiO2I0qsurP9dfC0nNL3tSzDGm29ee2Td5+8DOzY7U7mK0s+SGLFBX4ki2vhzAfxdbU5Rip/vgYzN3JjSeEE/B5w3+ESTWLjuRZMFSAA7WfirI3y2e2/xZ3WFbhodLXXzdR//lbpxu7Ovyo2Izftxb+4qmK0J06nwkSE/W7afkF19qhFWxZ4L7MxQrs0Hj9YelFswAMEMQhefdxckxnchv2l39GvOIxI1gyy/2ZsxVAdLB6nwxUdRMcfWuBwkDmAuWrGk27j4j1nTM2V7J2n+5MbNf7Sg8ax3asxAzNDE0GWZSx2pB3uh5qS/T9bW9y+xe+suctBwCgO3U1dSfPpPZkH2cTW3h87l7YiRTk/h/j+/j+MZ7PkwOPaw1gO96I0/uehO+N/hnGwtuRo34qBqP0ou2f5bM6rrUfnvvyr+wqfeMvR6o//o1pd2dS6YYGDMKygfh4p847W1SgqtSIZmn1eL2E4gaVvf2CBKM7dYayjTzcsEiMAIdOvRAm5eweVfEnRVyqu7iwT8Xntod0X/osXfIn5HjtAaE43CRH35EQj0EKG2mzncv+hFjf3tGau34NNkQpmCZxbB+9lkZAGko3VBXVYLazFhafVQmmn78ld23/Rd0vPnjP1OemJ927WVCK6n5RZJ1O/GDkHuRxB04buhHZchemH+emweNWA7hu4J1woxoyVi80PCr5I3Tv5D+yhOanbPnARWPVu9856T74gpK3z1Dc4KadfoTkHY3h3LVh0dsrK/6IOHJizYI2YIgkupPnKsfs5hl3vyz7Y/NORIaGIWzekr04HKneawWqjgUBEWf09abPjAxh01htp/SiOawvo28zoGHJFAYz50UjlXs3UB2oMZy7NKr5dbl6AtCxwNLswqSZRc7uGm9LdH+5Pdn3+Yu6nnl7ykyHX9z5frKMArU7g2wm+nlm7h5kkjl0jezBF/HF4zTW44vHnQYg6X24duAy9CTORNrsxVjjp6Lo7aFtuev0uZ0vbktY/a87UP3Jxw5Wf3p1JRihuPRWCqxBGBIE8s4WqofTFKgqrX0BSGgOUA0OCs0+ulOn64TRjnpUIs0emiYH5ZweNKKyCHWjaR9HSJodPJi9QPnaFaPVn8uwGds//iAoDpG1u3Wo/eb1r/XxYUhho80Z1kVvWkY63Ez7f63jJ4IkANrXLteDYtYNy5e5YfWXJ2q7txS9ybF3XvWZyT//5Av0e//uo+QGUyKf6kY1kcALX/9pVPeFGCk//qIGjysN4LqeP8D3U/+I7vAcbIvOI1fN4t7Jf2FmxlMH3/u0g/W73jPd2PmUin8AmsOmur/WrD2GJAvDuSfr8do9ohHNNFNr14Z5ygxEMEQCncmzVNoc5OnGAVnyRikukX2SnvMOUtnfR4IcdCS2qZzTw1P1R2XZP3iE0t1jjdiO70qergSZNFG/f41+gJaPo527k2fpkcouybzYxDkRaKUZaxCIkkaG8k7XVN7p+kZ7ov+fnj3wG7c8qfOM6I9/dhMm3L2iIznMKjA4xzlU5SwMJ4Fb9j0+kooeFwLgyv4bIVkjbXQg4ghTwS4xVrmfc3ILb+u88PyJ2s43Trk7f3W28Ug20nVu7bhrW0jUVLQVTJnmocxV4f7KD6xIN7B+FXxBDABAwujg7tR5itnCeH2X0Z3aEdbDOVn1Z8RQ9oIo1D6N1x+S4XFz9B1p7BGSRgd3p07Te8t3rmn7XygA2qYd2cGjtYel3FCm4zEDtwSBI5PI2O1uW6LnG+2Jvn/pyWz7LodcHqvdR8VgmtoSWxkH63z7R2/GZX92AwzLwA8PPraZih7TAuBZW96NOnsYKlwOqRR2zdwivLCKq7v+UCt5MPnzmf/+jQn33hun3V1b3HCqSVclBVYsPlm8pFsEmjz/qm3keTBzhTpYvdNQHIA2vBvH59IcQZCBjuQOnTb7NcNAqDwCNFeDWTnT2NOkAjpS6e7xQlwdGJOF7mxWB64l0SnEQObCyA+VnPYOHGf7f+0XF0cOmByZppzdHuScrlvbE/2fPb39Sd+o6+na3eP/SwmjkwpWPxNpDtiFCpK4Y/KxW4H4mBQAA3grhvoAn+dgGWkItmnO20c7Z76kAeC6ofdeM+Xe//uT9QeeV/T2mJoDDchFZbmLL7spF3AoA7eEIRzYMsO2kWFJNjJWF6fNPlkLp8GLeHs2CgKBmaGhYJDFGauHpXB4vLaTxmr3NhONjOYuejIsmNZiviiqh0VZ9PauuTpwa+4yNeNOylpYhDhm+QqbgnlBYIsk5ZzORlui5wd5p/tf+9On/4/P9fJMfYQIAgohEwFFl7Br7i9O9Lg3hMecALiw8DZk0hG6nDNQDcqYDR4Ro6V7uSDP4DN7nzqwt/yDt0zW7/+dOW93LlBlBiQIohlbX36xC7JgihRsmdaWkYEjc9oQNgkyOdK+UOxzxuplU2S4GkwZB6r30GY6sZg1TJnA1tyVKtIKgWpACsFFb1SW/THSHOD4e/0PR0udLzjDOm228YHqPfLIGoCGJdMYyFwYHSjvMhRHJ8ABuKGrXZRLYFLGatedyaG7OlL9/96dG/irtuRA/ZGJO0mzx4IIY0XgkdrHT/Sg13+VJ3oAa8V1uA564CrccuCDICI8qf/1oupP4qr+12hwmL5/5hu/PuU++KYpd+c5tWCsudIFAWrRNYomO22aHSPHjsyyJdNsCIcAINI+QuXCUxURqBq8qESARl/m0khpCF812DbSGKv+TG5W1l28qAJ0Jc/WpsizIWzMeZMCzOhIDihBwKw3IkveQYrzAU60RhBX9A1kztMj1btlqFYLBy4kABXsLTxSeUiKDXMdHE8QGBoMDUkGJ82cytodsIVjRByi4HT/xeUDz7lpe9eV9a888AlRV2VNECgYeXx75LFlDjwmBMBTt/wB3CCEY+QAhDTX2EPjtbt5OPtk7kqee/aB6m3vnqjf9ytz3qNm7N0HAUSCLFgyzbZMw5Y5bcsMTJnUBBKaQ/ZVTfiqAi8qCS+qQLGPhTx3hhQJDGWvipQGjVTukO2J05QtMxir3b1J/HjxeQiEbfmro9HqLpm1O9kUKR6rPSgFbGTtTt2e6NeafZpt7BeVYILiMZ5YQbA1f2k01zggy/7BVchCYwHQnTpTC6QwXt8tTlL7H617oaHBYJhkI2MVdN7p0lIYqAUlUWyMw9cN6kgM0FD2zA9/4MrPvPM5X4a6euBtYszdqwUZGE5sw/ceQ6xEJ70A2EFvRFtP/NAYZKESHCDHyHEhMdg7Ubvvd2Ybu393zts9ECpX20aWE0YelsyQJZJaCpM0Myv2RRBV4akq+apCoW5A6QYOT/UVzTTdEEmjk/syl0Vlf0ZOuzsFoNGVPFcTEU/W798UAdDa/bPWILcltql95TsNxyigP312tL/8gKE4bO1CyFqdOu90aUDRbGO/qAaTzeYerbLj45lUE6IndbaSwsTB6j1HmAvGcPbiqOxVZCmYpJMsAoBWlmIzEoCEkeG806kTZpYjFVDJmxK1sEgRhxCQaBKYos3po6Hs2R+/uv9X3v3k/qc3/vLum8iTLgshgGkPd9Q/e6IvbE046ROBzt3ydAjJMIVDF3e/BSGKWT+ae8mU+9Cnvaj0Us1hJmv3hwVnC5JmOwhCBKqGWjghi94+Mdd4VJT9/VQPJ8lXJYp0A8wRWsQd1CziabL0ghGh4GzTfenL9LS715jzHhZEFgBGxuqG5ojccGYzKtmaIHSnztRlf1Z4qkKRDpC1u5iZ4akqyWa2YUOVqeLPCAahPTmkC06f1gD5UaVpGqwpl2lTxhtXBxLl7B5d8qcEr1gdqGGKZgGQt+kFQEd9HQwGQ0GSgZzTpbtTW1TWbocfNWjGPShnvYOioWpEEFhUukwEATeqwI/cq0r++OAB99HbetPb62VvUsxGE+wnGedmn439lZOfd+AYF2UcHa5pewdC5SNJGfrOyB/xJbkXGMXGo++vhONvaoRzFGkvDHRdlPwRy48qiKvUDvXmtzzpMXjR/zG/b1Hzd4U2Z4fuTJ6jD1TvM9xwEgQ77ncDQJDBgXI3yYhtZfq1wZQprgaPNP0KIWrBLGWsNi75E/MjlE3VueRPiGowI3J2l+5MbFcFu49m3H2iFk4fJ9OAAQg0wgoBgCNTaCxLFtoKnSaZQQiVjw0QgGwyFtR8gGGJBLJ2u87aHZpAqPgzsuRNUcAeCAICAkYzBHvIfJKA5KI/oVHBb4BID/af+4ZXnPWH9X9+4I/FbaOf1w9jDNduuRE/2Hdy5wmctBpAZ/JVyOUNvPyCj+Obj35U9Kcu46lgz6+OVG57/4HKj82St19XggOGG06LQFURs+kevqsfGc2mGSTQm75IZe1h3l/5meFFc1jaD4+RdwYiLyoLf11psKuftyd1tvKVT5VgYp4HQHFI7YkBXQ8rIs43oEWfiunG3KhCZX9aCLLQnhjSObubQx2JUNdx7DWCOBqQMAosSKIRzS2jEcXXl7V6tSCLSsGMOMYFQEcYL6NVZJUyctyVHNLtiT4thESxMSGn6vtlLSoSgyGbQvRIByUINFSVvbB+UTmY6o1A3zu77WovVFocDEd4ikZxsfMyHGz85ARd95Fx0gqAJ3U9CwYT7p74qjir8/k6ZXVs2V363l+N1e7sU+xpgMTSxb6Rhz3ehQ2RwFD2ykhSmg5U7zLifPvDnVUFe1DXwlkR6vomCAANW2bQntiuJup7pOKQWkJLsYe01c6SLNRXoAiLX9NwoxJVvBlBkOhIDquc3c2amWIhpbEaGcnG0eIlMJGxOlatDuxIbuVG1BBuVDkaBqANjhHz3nyTLBScbt2dGlZpu429qC6m6wfknDcmfOUequav+SQEAU/V4Ef1i9yoeEZDV+4oOB3FvNEv9pW/wgfNn+DKtrdhtHrbcbz2teOkFADPHnw/vj36AWzJ/yJ+OPondP/0FzlhdPzhaPX25/uqpGP23aMDzS/+FIazV0e+isRo9S6pOVajl6vzzzsDXAtmRbRh5t6l525LbNUakore6Dy7UIsghEhS3u7RZX9arHYk0VRRXVWmij8rJFnoSA6rjNWBQHki0nW0BMFm29+aNRWcPl0JZsTh+f1x7UR7YkiX/RkRap+OhwnQukYNBQbDkSluS/Rzd2pI2TKBsjctJ939shrOkuYIosnPcDSnJEh4qsZeVD8bwOndqS3f7s+fUXO4Xzy35085Y3Uha2/DSOWHx/z614uTUgAUsufgYPvt+Gjj0+Lsjuv11uxTnzFSvfVP5rxHE80hH3UOXmx/d/FQ9uqoHMzJyfp9Aity6TEIEnmnj2rhFMXMuEf3MBMMdKfOVDONUXk4FTghVB4VnF4dKJ98fWT6LNEsK65HZar4M9IQDjqTW1TG6uBQByLUNcSCYLNMA4LmEFmrR0c6oEBVFl1DrCEkzBynrW6ea0xsYsejlREr+REEBNJmgbtSw7rg9GiAabZxUEy5B4SrKhSTpK+VtHVtkxELgTo3wtrpoQp2ZI2O7/ald9QfnPmOgG7npNGOrHUaxuonF+vQSScALu/+A0ht4u/0/4rh7NVakrFtX/nWm8dqd27XHOmYqedooZB3tune9MV6yt1rzHmPijjTbpWJIhM5u48rwTipo+jeQ80wWs7uZ9so8Iy7Vx4qTAgCGj5smUHCyHA1mBFrJQolSGgo1KMiVfziIo2gkxUrClR9U0yDlhZjywzbMoVaODUvpFrUZVm7h02RoqI/eYx2/9ZuH6v5lnDQ5vTqrtSQSpk5uGGVptwROeePU6A9EhtT89c8GIIkX7u6EdXOCnTjQpJ0p5TGdNF/RDh8Gvv1LAbz52K0fvJoAieVAHhG9x9AJcpwrC788MCfYufM/6MPf+DTfzxavf36RjSrAUNsfCdpPewKHYmzVHvybB6t3GvUwnE6cn09wxA255xeVfIOSt4wKWZrHBrdyTN1NZgTcbbhcg40huKICk6frvpzIu6Qs7Zz0iJB4EYlqvpzwhRJtCeGddpq59g0aEVMNioIWrkHAjm7S5f8KbH0bxptiWEdKEW1sLip9v9iNR8AkkaGO5NDuiPZryUZmGtMGFPuiKhFRWLWTafe8YlAiFgIqEZY3a5ZX9qR6L816eRnpvyfyeF8DztWEt2pczFSOTl8AieNAHCslyGfdzCi7gf5gdzR9hz9j5+45Tkjlds+OOc9Yh2d6t9qj03oS1+iMvYQj1TuMnxVXmOZLcMUDjJWty56B45izuJdM2EUkHeG9KS7VzKvdG6BSPvIWd2sWMFTtXXnHtC8j0ChFs1R1Z8TlkygM7lNpcwCAu1TzFrcoi9f7/QSNBS1OQO6EVVEXCLdaooi0J4Y1tWgJAPV2IQFuODUU83YfdZq567UsM47XTrUvph2D8iZxkHhaxcbdOptCghSBLqhGmFtkFmf3+0Mfz/rtBcP1ncJk8FSCAymr8B0dS9CVE/IGFs4aQTApZ3PhaEN5KmXLu35Xe3IfMdDs//z2bH6z047OtU/XnRSOBjMXhUJStFI5S4j0o018um1WHvTSFltXPIPHsWTPB/6074KUA3GxUqpGC1TQQqb0lY7V4JpsXEn3oJGUAvnqBYUhSmT3JHYolJmG4fa36BGQGAOkTLbtRQmFhKkNCyZ5JzVj7nGpGDoozI2gJZTD7BlAu2JftWdGtK2kUYtLIqp+n5Z8qco0iEEBDYvSWvjELEQ0G5Y2RJq/4qUmbszUGKiGE2LglngRqDQlTkXtrBQ9PedwHGeBHhq3/ugkw/ClDZuO/hRfOZnF2Pn7H/fMOnef2WkXb1yDf/qWLBTc9iSvTbywkCMVG6Xccvu9TXKFGSQZiUOTzRaDxQsmUHCaFMlf1ysNv3c3JUrwTRZ0mFbJI8yuYebGoGJUAeYcveKkfIDRqAU9afPj4ayF6uE0QYgBOZJSY+0bGMzoB7OiZRZ0Av7iYYjM1CsEPER+/+tcORW0k4EAMiYbTyUOTMazJ4ZWdLBZH2/sb98v5xpjFKkQxgwsVBodOJTjZv5BKIRVfVI5cEr9pZ+/vmkJa5OmQk95o3IZNKBY1nozV+OJ5/+jhM2zhMuKtPpN6EjGWCqthOKSZzZ9nz+h0987xkHqrf/6UzjoeRGVf9WWm/K7Oah7JOjsj8jp9wHms6+9RB5tDzaebZlmirz/f/WPx4gQiGxRROZNNcYEUc+joBmHxmrgwGBRlTelBTklmmgoFAP56gaFIUtUtyV2qZtmUGgGqS4Pj+Glad/4fW808vVYEbEDlJGzu7VzIKq4dw67P+lar5BFnJ2l+5ODauc08GNqComa/tl0Z8QgfZwjJ16mwIBSSEHyg0rXcTi8r709h9lrOzEdH2fTNndbAgTOgowWhkA44HjPr4TPnuXtl0Dgy2krEHa0fYctmSyd3fpuzeP1e48Q3GwAdV/wdmXs7fqntRFesJ91Jjzdgs6gqd/5eMpJM0ObUibY7V9Y9NGZKAndZaaaRyQoTpyLkHLm04kKWd364o/u6ka27yzkCPUwjlR84uUMHLckRjWCTMPXzVIsYvVW5wRIh1QxurUEQfkN8OB7Ykt7IZ14anaGijAlzr1HJnmjkS/7kwNaVNaqAQzcrK+X5aDGdKsNiN2f1xBECLiQNXDck+kgydnrM67degfmHMPiITMcRT66E9msb1uYx/2HdexnVAB8JThd2Mq/Bnyzjb84MCf0P3T/wFLZt93oPKTlzSimQ14/ZtJNCB0Jc9TbYkdfKDyc8Ntevo3Rt7VamrZzQSBWjguaJ0lFAuhvz52jAJPLxP6W+3TofKpPTGgAuWJteQEbOQa4646AVXDWVELSsKWGe5KbVFJq40XEoqAw8cdazamSCJhZFENJsgQSbQ5Q7roTcvVOwAvpOgKksha7dyd2qJyTgcrHYqZxkE50xgVjahKwKbH7o8rBIQIOdD1oNyjOHxmPtWz22s0dpWiadmRHoAkA1G2GyPHuYDohAmA525/HzxVRdJshxvOiXM6foW35J5y9UjlRx+ebezaQMJPy9Mv0Je5VGWsAR6p3GkEqhIX9BxV+DAWAIBGPZxatwBoCaau5Bm6FpRFIyquI5NQgBEgYRZgiiTXwtk15gRs5EpbgiBCLZylelgRjsxyV2qbskSSPFUnzS0y1MWmQTMc6PTqkjcubJnmtNmFYmO5FOGF2L2Ggkk22hI9uju1VaWtPNeCopys75elYIoiHTwm1PyVZnPpd0xHozhS9bBcAOjJA4Wz7k5Yib1lb0YmrTwDjOHctdhfOX704ydsZrutSxApBQGbnrPlYyxhZB+Y+c9PHazddf76Vf94FxJkYyh3VQTYYn/lThln7B0tc0+8eDNWD2kdkRvN0PoEQMsRmUfeGdZT7t5muvF6Ps/QrETB6WuaAUeTh7CWM7YEQYhqOCvqQVmkzAJ3Jrdo28jCj1qCAE1VPG4hXnD6dD0siqSRZVOkUQqmFgmrxQU5QMrIcUdiQHckB7QUBkrepJys75fVcG49BTnH5OqXW7wrYenGws1XeL4GYfF308QREfu6GhTzofKuTRn5B2d5bvdsfZQKRgduOfhTXND2fEwepwKiE6JPnW+8B7khDyY7+O7e94P/k+nSN7z6vY8Wv/3esr+Pm3z9a7yA2NnnGG08kLlcVYOymKw/IBaqATeDtSdCX/oC7UUVMeftXmPuwOLPh+hLX6g1S56o75TYECmGxnD2YlXyZqgcTIrjSazJTZYcW6TQluhVKTPL9WhWzDUOiDiXIq5HGMicr+phUThGWislaaoxIgyY85l6prCRNvM6Z3dqQQa5UYXK3rRoqCoWL/q1hWZXH/Fqf+Nl3suHfI6bUZPF51zgjW4JyWZvYhLN3wULiPjfFJcTCxIgkiRIaEmSiQQTCJqZLWmbbYneWsZuf7cf1j6pOBTt6R06DOdAfg3fn/r0Mb+3x10AnHPO+5CrlhGKBkLPE2mzRwsSz9hT/N4XRqu3FwA6lLZ3lcHHiz9t9XB/+opotnHAmGnsos0n0FQYzF4aVfwJWfZH1syEG4NhCBtbcldEB6u7ZCMq0Xq1khZzUHtim07KAh+o7ZTHv7SWwFDgZoivIzmgUmZWl/0xOdPYLyJdRs7eqvN2LxMJnnVnjGo4AwEJUyRQcDp11m5XmlmUvClR9qco5KBZdS+bM7V0Nz10oS5enotfWU1TaC3U+d/mFytxc5ESUbxQBUkmktz6XUBSvICp+R6pJRlakODmcZpM05AEYgJpEHH8DDMAkGYtNGuhOILWiiVJTpgZtmVCK47Yi+p2xmo7UHB6nyYFPepGNQFJGgyYbT6+f8+fH9O7etwJQTpLAQAHBifoRWd+UI+W78t8c/+7bpxyHywArA/vyrv8bY1vf4ScvYW7k+er8dpDRiUYXbQ4N3N3JAhIVjquAVj73h/XzeftbTpQARpRq2BmfWNr5QTUglmRz/RFJjmIDuEJOPZgUDPJxld1jFZ3yYRMi/Zkv96SuyyqBJOiFkyTJROaIeBFVaSMPOecTnZkin3l0sHqo6YbVcCI0KpObBXwLFmkSxZqLCJauyqRYEGCBUkICBYUL2AiGS9jklqQ0PFiFvN7NEACBBCEIoDjhRrfJmYWDBYMBpg5pmrXzGAwa2jWpLSmkH2h2RWaFWvWYGhiZjAzaWjieLHHn0Hrp4KAhGOkOGMVYBoWGlGVZhpjZsWbJSGE2pI9ZxA8cePPpm5+NRHpawbfTdIImCvH/v4eVw3ggp53QPMo2p2z8fPJvxW2SOm+7BU3PVr81p+sXfVf8PR3ps5RWWuID1bvM+JWXUfj7FvtjITh3GXhlPuw4YYztB4VPib8vCqacg/IajC57t1/6XVHGMpeqGpBhea8seNqBiyHlmmQNHJccHq1YzhsGykiSHKDik5aOR0oT1T9WeErlwRJSGGQIEMLCC1aCxoiXqcg0Vz0urmjLixSMAEsmBkMaIbm+HcGsyYNbi1A1qyxaJGCWRMzk2YF3VyUmlXc26Fls/OCVtG6rpXvw6ELZ8E8aH1eQMCWSc7YBZ0280wguFFNVP050Yhq8yFPWyS4L7Nda6W5OzPwu1Nz+z9HUogtvefrKHKhXR8/nP7kMbuHx1EDeB8ydh1+pFHxdovLen5PRxxcvmvuf95U9kewtp2x5emXGMheHpmiQPvLPzVC7R6zxR9vFgYAkpoVrSdNFgiRsftZM6EWzG5o9198NAajEkyLnNWnS97kho+1WYg1AqARVcitlaQjs7wlfx4njAQFMiQ3qErNim0jrW0jA2YlNGvSrEizkqEOOF6IurWLovl3yayhWn9rOddaCx4sF2i6+PBhLf25qi1/6N9bDtDVtKvDW8ssCA2TLKTtvM7abdoUNvyoIWbcMemGFUQIQfNGT5yJqjgigFHzy4YUxnu39Z63C5F5W7kyK4JGSqezhO70OzFZ+5Njcg+PmwC4rKuMyDfhGEN06fDv6vHq3YX7pv/9ppnGrh5AryHmv8jTn70yUixob/k2yayBY0w1LUiCQKTnSS/Wfq6c1afLwbRghNiY8y/GghkwR52JrewYaXajCp0MPPsCMmYaIAFT2DxSfljMeROyxVGwYK3PX3tza1/cmJWWWZKLX1n8/4WvI8/byv868nyvBGou+WbvABhImTnO2u06YaRZs6JqMCcrfpEC3Zifo8WU6K2fmhU4Zp1Uc/XJ4aSZfvdFg1f+2gXpJ1Xu2v9dEsR8dpvCZO19AN636ffuuAiAc9KvQiZrw0QnvvXoO+nW0Q/xxT2/88bx2t0v8KIiH2nxt5x9CaOD+zOXRbWgLCfq94sWB+Cx3QkZggwGQSmO1jFfCrbMwZIZHqvtkZszToFIu/CiCuXsDu1GpU067tHOUOwf6EoNK2YtW+nArfqDw910dNhvhzr41nreE3Gt3Mw3SRppTlsFnTIzDBLUCKo0Udsn3ag6b/uL+eIqXna8GgylIxjColpY5pna+HN3jt/7poOlf/2ArxVd1Pcc/va+d+Lpbe/Ed4qbfz3HRQC0t7cjQhnl+pR46tZ3aa31k3fNfvXNc94eHOkBbi3+rDWge9IX6Rl3xJjzdh8DT//yZ4+prQwQwFqvjQiEmh7zgjOo62GFFDdwNLv/oUcv+mOyO3l6ZJCNE99qi6ARoT0xoJlBZX+WDGHO/235a97Icj9x17fAJAzYwkHayum03caSDPYjV8w2xkUtKFPszGyxCS/WSlcPS0Y6kKawICBQ9YuYro3dsKPrytvA9N3Zxqjo73yVrqc94BgIgGOuPz55+B0gSoAbHXTnS/5OP7fvD62J2s/fNtN4uA3QqhlGWWHi0fT0b+Xe9GVqrPqQMec9uojA4/g8PoLkvP25FgEQN/NIIGm260qwMmHm+tEyA4rQHCJp5vTRkZNsxoiaTDyJPjXbONjsEbB4vI9FLGQrKoQgAGkjx/3p09RQ7owo63Toml8UB8oPGaO1R0QlmCMASyoS16adxOdRHLEQsvVw6VJjJj9TH393IdPTdVH/NXqr00EmLFwzcOOmX+kxFQCXDL8Gggk2JfDA3H/Q4N8/GV/c++ZXTtbv+6VAlbGy6h97+gFGT+pC1ZU8V41U7jZr4fgxdPatMklkNkuBj3ze+ao/Z4AVa7hh+aicf8sfP0QtnBVZq/0Er7C4h15HckgFkSdqYZFkU1g+VtEKSzIYCZnmnuQWNZQ/O+pKDahIhzRa3W3sKz1ozHhjFHHUXPTG/Gc3dD4dshRSxzMqRKB9nqmPP3VkdueNrzj718StBz7EFgzyx+dwVe61m3q9x8wE2LLlt+B4BYg5jen8Q+LCrl/XisNr95ZueVfR2ysAwUudQC20KKcN9GcujwSStLd8e5PAYzP68a0XDEOYvCAAjpwaSmQh5wyoGXdUxLX1m9cOq+UMLPtTYjDTE5nCQaSPd04A0GQDQsrMc8rI84HqQ8Zjs1DncBU/Y7fptJXXkgQaYV1M10dlI6wu8eK3VPzNaA8X6pCIBMVt6RgCAjW/hOna2Bve+b0b7nO7Gv/gqwZdtuUsftifwzPbfh/f2rs5nYiPmQbQXRsGzz4F3G3RW6/4nD6v+/rUVP3BG6fcBwcYkY479x4+GS2e/uHctRHYpv2VO5o5/SeuqaQUlo5ZiY6kbsfjz5gdDBaoBjPi2DjpJAJVQ6g9SpsFzTiUkvt4IHbydSQGVdmfEZ6q42SISKwFdJiKT8habTyQ2a6G8meGaSvHZW9ajpR3GQfru0UtLILBG1Dx1zKHBMWRIKLFLecJIF1uzFiz9ckbB3Jbt57dfbHe400LgzW80MCL8eJNmYtjogE8qf2NcBJTSKZGcX/pG/T+H97ObfaO35qs3/cLXjS3bMLPgqe/nfszlzc9/Q+IhcqzE6VWMiSZHDfu4DW5HbNOny75U0JzgM3c/RfmKn4Aq8G0yNhduuRPHOf5iR1/GbOdTeHgoPeokDDmd9GTE61Z01DQEJBIGhnOWAWdNLMMaHLDKs01Jk03qs7vxPFOD2ATdvuVRqV0BCKKCGQuSm8WEUd6zp08c6y856Y/u+Yzr3vmf0FdN/Au0mDe1zMETBz9+Y+JyDaSWRh2AbPh3eLCzlfobdmnnz9eu/sdc95eAHJZ1Z8RIWMN6IHMVWrGHTUm6j/fxIKeowFBkjlPTbU6FGyZhy2zXPLGj9Huv2AGVJt0YQkjy3xcF5+GJBNdqWE12zgoF9KST17bXzftelsm0Jno18O5M6Oe9LAWQtK0Oyr3lx+SE+5+4UbV+USdhcKkYxtp0qyYwRBCLhEyAoLcsIap2sHfeu9Pbnh1lp6BB6buQsJ0kHAIF6Vef9Rn3/SKkmsG3g8BC1pF9NHrPsbTjULi7ql/++ho9Y6rFvj9Fi4+hkJbYofuSV2kDtbuN6vBASLYx3DS1wNGzu7nUPvkhrMrknG0nHPtiW1aMVAJxsSxjbLGdGEps41N6RxTnoBDr1RDoTM5pCyRoMn6XrG4mCdndyKue6jhRLH2LFbxGRqCJDJWgbtTg6ot0aclSZS8GTntHhDlYIZC7c23BjvevpRYyICydjuFoU8Rh4vHQATSgfIMIeSFZ/Scd0d3emCk4s8JzcR20sFp9jOxz/3+hs+/qU9oP14ISRU41oW4b/Ij9PKvfo+7kpe9fLJ+3wu9aA5LVf+lnv6MNcQjlZ+ZjWjuhHj6VwZBkBSao1WfjPhBc5C2OvVEfZ88XjZ5OZgUnYltSpJ5XLzvDAVLJDhvd/N4bY+xUDZ7ou/X8ip+zm7XCTPNDKZaUBJT9VHhK7ep4stjruKvaU5ZA8wshGRWh8XFhWatZ+uTA7ZMvOvyrc/81aHC2bXv7voPMrTBbHhHde5N3TLO63s+GnoW9WC/GMhcrQuJHZeMlH/06Yn6vW280JcKiz39A5krIlPmaX/lLiNQNRwLm1kIASLa4AIhtDmDyg2LwlcVLL/Lxrt/W2ILmzLT7PZzPHZjgUA3KGd3c6SjDfUOWO9cMDR6U9u1rzwx6x0kY9H9OlEawGKiEVsmuc3p5s7UgMrYBYQ6oDlvQs64Y6IWlkhzNF/VeLJAQyNntSmltAhU47AuSgSiUAesdLTDC+ret3b96w8m6vtFb2aIvzd4EFf6T8WouzECkU2bhWu23ghDEmzK0W03fYK9iWutb41+8lOj1TuuCHVdAbLJ8RV7yi2Z5aHsk1XETAcqd8m4ueSxqG4jMLtg1pDSXufx456AbcnhqOJPrtoVmGCgN32eKnoTwlNlOh4CoMUTYAgbKatNx70DjtV5m2E/I8dtiX49Xtt9WFOT4yUADlXxTTKRszu4M9Wv2xLdGiAqe9Ni2j0oKsEMhdrHQqOQky1UGQvVlJWDgEFeVF+hGzTBVx4R0QU7Os//aVe2f2/ZnxUe38E92I5cfRhTfP+6z74pJsBzBt6N6foM2sUv4ED0N/SkD72SDS68ZKr+4PObqr9o5YW32HsGM1dF1WC26enffGdfvOOHyGYLePvb34nPfe5fsGfPPSDKQkoLWus1aQRxTblAbAIs9/DEu3/K6uHYMXesQn+HY8EZOCtydq82yIFaakNu6tkIQEdyUJf9aRFo75B012ONpSq+hIGUkeWM3aZTZpaZFVXDkpisHSBfuwBw0qj4R55ZQOlI2JQ80gToYmO6LVXLvHdL+1mPdCeHRhPlnNAkdbbvNODA+s+9KSK6wh4CFaKIr4uzCi/SHc5F28frd7+j6O2RgJgPnsee/n4ezF6tpty9xkT9vuaOdWxtyNe85rdwzz234u1vfw/S6TSUmgORghBH2i0ZgiTiOvTVvex5e0CX/Smh+Og7B68PAr6qINQeZaxjlRMQ7/45u0ubIsFzjXEh19lY5WgQL/uWFz+JrsSgHs6dGXWnhzURaKK219hbflBOuQco0I1mEc7i7LyTc+HHMxuPMuJQCyHV6u8lEShfT9fGn3KwvOemL7zydeK2gx/WScMiJX8ZF7fftO7zH/WTelXhBiS2mMgl2unFZ9ysk1Y+PVK57b2T7v1naw40zXf10ehMnqN605eqg9UHjLK/b8NU3euZXmaG7/vIZNL48If/CPfffzte//obYFkGtC5DSgGxCv+oJAPMLNU8vfWhI46r/myZ4aLX6vZz/B44ajpTq8GUyNgdTMfg/C0+v87koJ5tjMromGkZC1cFtJiDNQxhouB066HsGao/c1pkG0nMuuNyf+lBOVbbI+pRBQSCAXOR2XHyLvrFiFOBCJEOIITEke6fgKBaUMJMbfx3r/rE215+Sc/rMVHbT33hKBLJKp4xtL4uQ0clAJ6V+13onEb/5DUYq99N/3D/i/Fo8bsvnarf/1I3nAbBpHhHUuhNX6xy9jbeX77TiP92PDz98fFlM/IYRREGB/vxl3/5YXz/+9/AFVc8FUpVwFyDlPIQQRAvdkEGM1gvx2/f8mdk7V7diOrNJhrHN/QVz6GBajBLlrTZlmlsZk5Aq7KxLdGvQh1SyZ+mY7P7L+4KFAIA0mZcgLMld3ZUsDu5GhTFSHmXMVp9WFSa7MFxdt5ynIKPFTSzAXUkBAm5hmxKIghdaswas7WJm3ozW4fP6rpMT+LHgjmBhl7fvT+qp9XN5yBY4eHG18XFXS/Tp+Wfdtp4/ec3zDQekYDUjIgEGRjMXBXZsh17Sz8xfFXF2ppybj6kjAtVlFJ40pMuxQ9+8L/493//d5x99kVQagbMjfmIQevmCGEwWC8rAOIQmI202aVL/mZW/a0XMU+Ar2qUtdvVZlYIaihYIsVZq4On6wfk2noGrg8LBTgajkxzd3JID+XOjDpTg0pxSGO1Pcbe8oNy1pugiEMIGEdVgHNyodl6hiMiIkUkFr264ieEbmYJjpYefXdvaovzh8/6sDaFTWmq47TCm9Z89g0LgEsGbsJTBn4HhkrSTw7+hb7hst+Ue8q3/OFU/f4zNPsaUMI2crwld12k2KD95Ts21JRzsyGEgJQSWmtIKfGSl7wQP/3p9/CJT9yMwcFt0LoMIg0jDlpAktHsTHuoeRbv/nmnnzUYbji3qVV/G0HZnxBpq8CSLBxdE9MFMICu1JCuBSVRj8pNT/pmUK0vqPiWsLnD6dVD2TNVb2arMoWNucaEHCntNMbr+0Q9LDdV/FavgJPJrqc1fi83ty0qMSDSIROgBQmo5lfs7lz4WugvoAEQuWEN07WDv/2jka/d8JzPEW4Z+QAayGB7eu3LekOiPGsP4PzO6zGceBbuLP6tyFiDOiFSv7Jr7qv/MuXebwPghNGOoezV0aw3Zsy4Dx0nAo9FF9aMAmQyeezadQd6e3vAzIt2d4CZobUGEUEIgXK5jA984OP45Cc/iTCsAZREW2KrThmdfKDy02Vi+4xt+aujojcpit4BcSxyGNaO2GG5JXdJNOOOikowc5SkoQthv/7MGWpv+X5D6dVtfw2FoexZqAVVzHkTWExd3kqrbT3ABplIGBnOOx06YWQ40j6V/VlR8ecobHYUFvPMwdikeaUjvrryuVaiKV+NdGwxbTkt+Yr/i+nIAUCSRH/mdOX6NRlEnpbCiJ/LmDi1+bXAeNwiVAXDSFrpIJsovADA/0UqlIaRUj/cz1B4/xFnZENhwLOyv47AZ+zW3xRntT1Ph9rdsWv2G++Y83bbAHTGGqDe9EVqsr7HKM07+04mqR2DiJaYBdlsFh/5yB/hhS/8RfzJn3wCX/36lxEEdUoZ7TGzNLcEWDP0Z3axIJMrxzH0t+K1QEBzADcsiozVzpVg+iiPyBAgdCYHVcmbEuEGwn4Liz5W8QUkHJlCM3SniQhuWBUHq4/KRlSLsymboTtgoc9O62jLjXGlsR/eQ+Dw9y/HS7SUwuxQmvJWo49YPAkhuUlNDiIJETcJIQGJhYUq48/Ex2jSH5OmuLcAa60hhUG2kYAlHOmIlA4ijwnE80zFHDMeM4NYa6lYccQRwAyllZZsOJEZXKs0/58fNZAhgYt678Od40e+R+sWABd1vx6dvRq1okPf+9mH9d+8CuanfvRr7x6v3XtJpBu6K3Ue5+yt+mD1AVkPJ+jkSutdHosFgdYaV1xxKb7ylX/D9265BX/+gc/zLbfcRuAGpMxBa4VW+kBbYlCX/Smp9GZSfm0M8ZkFSv6E6E+f0+QJ2Ki3foHmyxA2ZhsPryvs19KydDMkaQkbGbug01aeJRnwIpdm3IPSjarzue/xbi+XqMXLXWHrt0N5fJcs2FYPgebvYlEvgdYibvYToLgByMJine8lQCSa71WEuJtP8yzErcaIDB0TejIzMyHuMQBmFpq1YNaslUbU7BHArEnHi1lq1oh0gISV4Y5kt9K+JjYZEoauuWXpRw1a0H6WuUFo5dNqGNJEKkpf3dnWa7dlOvx9449QGs9k4OtruNPrwLPPeR9q5Qp+5H4c58gXyaTVrizKvWzX7P/+40xjp+zPXB45spNGKj+Toa6dMGdf6yE8kgmwEpRS82YBa+A/v/C/eNd73otHHrkbQmQBkjApgYH0JdFI5X4j1N56p/IYQmE4e7Gq+EUq+mNCbEAwcVwCjW35C6LJ+ohRCWZwZAEQRwsGs2eiGlRQ9CaRMds4axe0Y6Q4UJ4oeTOiHpahEADzi35hR22qvLyw0wo0d1BqLmCWJLUgo/k6gSAEHaIet8QA4s6qLeYZzYwWsRuBNcWLlCnuJaBY65jau9lHoEVRjmafgfiTvND9L6aJ08tqt3zY7LR+UsuGR2eqV+ftTlWrlaQfNkRbtluzJrDQeroyZsQ7zcpmMxFBs+aUnaF8uqPkWKlnCBJ3MStRrtf1lgtMfO3W1duLrUsDqJerAAhXOTeIM9qep7yw0vPjiU/+ftkflYPZqwJJabmvfIdU7J/QxX+0kE0HYEsQvPjXfhFPe+ZV+PjHb8anPnkzavVx5FMX64AbFGoXJ7jL+jyomVZaDWdE2urQxQ3wBND87j+svMilShC39zryvYwDeMyMrNXGBadLJc2MVlqRG1ZEoDwkzTRn7AIkGUo0e+QtarEVr2fETUGA1npjQty5Z35RNvsIgOP2IGCOSHMgNbTUWnPcDCR+f6sxiGYWzGqRbrHETIh37/k5wJLflm8F0pqtQ+nJV/czKESwZRKdqT5lk8PF8pQZqgCGMEAkud6oimQiRblkQZXqM3K1dOpmYxOKdKS11vkw9K+t+6W7BAlkkt0oHzjy8l7ztnVR+5swvKMT1TGm74y8h/mtLM/7l5d+dKx651ty9nAQaCXHqvfIVnrqibb3j0YDWDrJAGsd96whwu7de/HRj/4lvvnFnWrf7P2CRUQEA1qfCFae5aBhigSGshdGo5VdRqDddeXkMzQsmeSh7DlqtLLL8NWRPk9ocf/n7W7dn9nBUtioeSUKVcCKVWxVE4E1Cw0d77g63lkX7aRN9Vmj1V7rUA59LPMKsPzSXPht+QYgK13L4pnYPNC8ppB3Org92a18zxM1tyRa1ZREhPZcr6rVakKpiAr59qjoTgvXr4hVhQAYprRUW6ZLCiG/vb3n/Bcm7ER17+QuimoG31H50zVf8Yq4DtchGrwMPzzwEWzLP1s0wpIeyF74iil312dNkbSL3jjNNh4R8a5/MpSGbp4AaEHr+OFs5QnsenAfv+WGP6RvfONrTXMhOe9DOLGCIHZQDmYuUF7k0XRjZF3RAIbGQOZMFemIxut7xGqOPwJBIYIlHHSntkaOTFHRnZDtyb5oqjYhG1GNWpltR1qwhy/bI1GvLT/6kw3xHCkYZKAz3a+SMs2V2pz0I29JU5emAIjcuiu80BWOlUQqnQ5nKmNGEPlEq1yzEAYX0p0EcLEt1/0iVvy9IPJFMp3SQnfj+/veuuL41rQ1lPJPh5o4F1f0vV5syV2uz+58ztZqMP52W2aS0+5+zDYeFbGn/+RY/McCQiyNGJxx9hb63//9B3z5y/+Gc8+9EErNgdmHlBIblDGbgtapK8G0SFsFFmvWxuKwX9pq44SR5dnGmFhZ9Y/PEiFExmrjLblzIwlDjJUfleVgBhV/TranupVE68uY/5LNJJ5W04xmE+1mia5YRqVeDrzC98mE1hxFSJkZDOS3RxYczJUnjSDyD+votFRACvhBA4EXyEKqUx1JGGqtCEAQRkGh4dWffsfY93H31I8YimGYs6uOck0CoPsSD2b3Tnrm8Af0xd2vNkve6J+EKjxvtHqfLvuPypYDaCGz+WRQhY8NFicSERFe8IJn4yc/+Qo+9rGPo7u7H0oVAUSQUpwQQbCokzBJEpwyc6zXVCAUE2R0JodV0ZuUgfZWIPmMBQWRQG9qq+pLbVfF+pQcr+4RmhUMWCg1pkgQkLJyOs7wW3CcnZyLdbPRaqXO6Ez26Z70cOS7rihVpyWzXn59tEJL1PohUHMrglhSLtWmVuNbbHY1FkpF8AL3Gb941ku7f/mcV7CKFM3Mrd5NZE3eq67iJYjMQO4p38IjlR8/j0EfDLUfgQSSRkczfEMUp8uGaDH9tKIlrdjqcb0FFBfJ2LaDN77x1chk0ote36zjA1prmKaJq666FK985a8hlWrD3Xffh0ZjFkLYcSSBj7dZIMDwYRtZJMycrgQzq9qRC46/AWXJBI3X9gixwqMRU4HneCBzhjLJoYnqXsONKiSx0A2o2X2XCsluXfcqa+qn8HiChoZjJNGbGVYJkeJSdcbwo0Zz11/5OUg6GRWFkYhUNK/yh2EgsqmCjjhEqIJlTQEGw7GSzKwRqqDbMO3bK27xoUZQF/l0gdvqV2Jc/2jZcx5RA7iu90YEloHx+gO8r3IHamHxrLI3CUfmlS3zIEpyV+pstSV3ebQtf6XqTV+g884w2zKHFk8eI8CCYABOlFDYbLTyB4jiiEGhkMN73vMW3Hnn/+H6638VQAilKs1Co+N9rQJlf0I4MgWDrFULhOLMPBsFp5dn3FF5aC3B4iy+dqdfD2bOiupeWR6sPCojHcJYEmqMNYmaXyTNEWUTbVpj1SrXxwVac6SgkHfaeSB3WsiBprnKpKF0tCbK9EPNLYqLhFCr12Qh1aVMafLhJllsdisdkZSGCkLPcv3aM+4cuwV3z3yHWQBmZ23Fcx5xVCJtwzJAt7z42/rmp91melHtSVPuHgS6AUsk2Y9qYk/pp8b+ygNytjEumA3OWP26L31BNJx7kurPXKI7kmfotNUDU7QID4JVhMJjDy1BAMSC4LTTtuBLX/obfPOb/4Urr7wOSpXBXEecB3Y8RhSbAW5YRsgepVblCYg91O2Jfu1FLtXCEg51GipEMIXNg5kzVZvTqycq+8w5b5JE02Zf7qFkMIqNCZF18toUJ38y2NEhdoZKYaAnPaTbnR5VKc8a1UZRrLWLcTPBYJkjC/hBg0I/lPn0cv6AZjWhUkIKg0IVwvPq1/zSOb/Z8eLz38pREFK7tR1YoY/AEU2ALZmr4am6uPXgI3zX5K1nH6ztfPu0+2jOkkmWwhYJI6ttI42yPyZ8VaVaOCMq/pSoBLPCi+rEINgiwxm7S+edfs7ZfZw022GKFAsyiaGhOQQQ4VBhcDRawrE2AVY6pxBinm3otNOG8Vu/9WKcfvqZeOSRUUxO7gORgJTHPmuwpX0JMilrdepyMCOWVx81kkaWu5LDery229DzzUYX0njzdpfuz5yuw8gXE7V9MtQ+jCOkkBAkfOVSwkyxY6a5HlTEY1XAHwkaChk7z72ZYSW1RKk6Y0Q6oPWFX4FkIqOjaKkJADTpwEKPknaKpWGwF9YPmUuGIMEJO63qflkKkh1SyB9XveIuL3RFba7CV+0Yxs6Z7x923lUFwLX9H4G0PUyU95CvGhxo9zmT9Ud/sxGVyI8aImd36xl3VGbsDl1w+rgSTIk4qinj7G/dIC8qUy2cFmV/SlSDOeFFDSIykTLbOGf364IzqLN2j3bMAgmyoFlRLBBCYJFjcb1C4UQIgMXnJqL5RKILLjgbv/M7L0V7ew9+/OM70WhMQwgr5oE/pky+BKVDak8M6HpQFst3Emb0pXeoRlQXJX+SWnz4GhEMYaA3vU21O308VT1gFP0panns1xpZ8FVDtCd7tBd5FC+Kx4cQaCVdAUBnqk+3J3pVvV42ao2S2Kg2m3TSWkVaRCvY+mEYimy6oEMV0KHvESQoYafQ8F1oVtK2EnN3THzza+P1B7Ct8zxUFXCg/MPDjrmqAMgkt8KiBN0z9Tc8Ub8Lefv0N0y7ey+JdKAVB0KQgZzdxQcqDxoZq03nnV6uBtNCI8QC1ZecP43mCKF2qREVqRJMi7I/LdywTIqZTJHgtNWp806/zlq9nDI72BQpIpLQ0MSHORgXhMJyAuFECoD5myJip4/WCkIIXHnlJXjBC56LalVh166HEQRFCOFACMKxkQOt3gHtTCTgRuVFhJNNmi+rU2ftLh6v7ZatNa2gkDZiR5+EQeOVfYav6vNFOms/u0DIAUxhImXluRaUHzdagIJa5OhLcqk6YwaRt65d/1AknYxWkRKRCg8TAASK05E1KJ3KKi9whW5GFFrvTNoZDkIPoQqEbTr2lcPP/vL5vdfUql6FEEY4UP/xYedcVQBc0PU8NKK6uKL/Vbyj7VmDI5X7bpzzRrtia0VQI6pQ3BeeadJ9VDoyx92pbdqNKiLSblMIHJoC0hIItEhLKFEtaGkJRREonwgGEmaes1YvF5wBnbV62DEKMGUSLZJORoQVTQcCTrQAiM+HeaYhZkZHRxuuv/45eP7zn4PR0SJ27drZzB9oMRavrQX5ms7dLBchIsrZPbrizy55OgUk+jKnqzlvXNbDMqGZmtuZGNDdqS263JiV0+6oYNZYez7BUggQvMiltkSXDlVEgfYfw1rAgllUSHRyd3pQRX4oyrU5qVmtK+NyOSTsjFZKiSgKl50jAiFSAVmGA8dJqoZfm6fZ19BIORkVqVD4qkGGMNulYfy0VJt7sOZVRTab5bHKz6A4XHLMFQXAVrwPyYyPij9JvqpzI6pcN1575LX1cNZohvcIUAh1gK7UNl3x50QlnBIEA/2ZMyNfucJXZaJVbcVYINASLSFEqOvUiIpUDaZE2Z8WtaAoQh2SIRykzA6dt/u5kBjUGasbjpFjgiS9xJfQ6q6g4TgJvOENJ04AzF9p0yyIswUZPT1deOlLX4BrrrkKjz56ECMjOxGzwbQW2maNkxBqn9oSgzpQDfK1SwJyvtrPEglM1PcJAHBkkoeyZylHpjFR2WvUo/K8SbDxswtECCEgKJ/oVDW//NjoIHrYdcQakylM9GaHVdYo6HJl1nCDGq3d0bc6kk5aK8UrCoDWOILAo6SdYWEIboSuEBBgaCTsFCmtKIg8BiAtM1G//rpXf/UVz/kd9YN7v02D2Wuwv3zLkuOtKABOSwzDdFK4b/q7VAtK7BjJV0y7e58azLf3iuP8gapT2mrXCSOLajhHXlSjUHmiJ71DRToiTxXX2aziUKHA0BwgUDWqh7NU9qdFJZgRXuQSA2yJDLJ2j847fZyxenXCKMAQDoiIIh3AsiTe+MbXnHABMH91RBCCoLWG1rGj8GUvux4dHb2488774br1piDYLCEgwAiQMgtsiaSuhnOCQDCEhd70aWrS3S8D7VLB7uG+9HblBXUxWd8vFUeQm9Q4SkDAVw3KOR0aTY3gRLUNWz/ie6CgkLZy3JvZoigiKlVn1hzeWyuSTkZrpUW4igAA4icjikKRTeV1EHoU6ZAYgGMmmYi0FzYEM5Nl2Km50uS3frrzRzMNryZMI+J95duWHGvFlWls+W3kdZ3+8Mn/zU/b8kr7u/v+4V0zjZEtDL3oyYxjkL6qU2dyi3ajqoh0AE/VqRHWqDe9Q0lhUz2cberkG52spb4EZtXSEkS1aTrUwzKFOhCGcDhptnPW7tUZ2cPt2X7+7de8SKTTcQjyRAuA+StqCgKlNIQgXHXVpXDdBm655VuQMgFmXtTR6KjOBIChWFOb089Vf04oBOhNnaZCHVLZnxYDmTNU3u7S07WDsuRPiVZ4bxOvFhoRNGtqS/aoul+WGnqTz7E+xCFZsaoTtkWISkRNR1+PdutVeTSOvtWQdNKslaYwWt1ZSiAoVoAmyqRzygtcoTiCbThsSpMbQV0CmgXJDtO0dpbqsz+tNsqUdvIsahejxLfPH2tZEX8JfheJ6kPwpEFf2PlRVjo6ox6Wzmty3i8aWRxv9qIyzXmjois5rPZX7pcSBtyoTPvL9xsD2bMix0jRaPU+GWfEbZS2+lBfgoFWqwgGI1A1ClQF1WBcAhKCDAg2uSfRt6k3abMhpUAUxT6MFg8hNeketHYBEKRMzpe+rlcriOfIQD2co4h9SphZbWqbkkae57xxuS1/YRiEDTlaelgqjo5Rs484Oajqz1LGyot8okPNuOOSjkknqCPMBxGkEHCVBwWFxLJNaGPHskKEhJlGd3ogIiVQLE8ZkQ43ddc/ZJqw1vsrIOD6dTJNU7RluqLJ8qihVChsM9EUXGA/dMn1a7/w8l982193FvrDv//vD9Bwn8N7Dyw+zjIYet5VqDVMVPxJTNYfQckbu8SNym1xwvKhW2gsBOa8UWEIkzNWByuEkDARag8j5fsMgslD2YtVzH8WbZLkPLTTiwBggmABTZsoQoXK/jhpPrkz0ebTilkDUIjbpEV4wxteh/POuwBKTYPhgwQD847PtX0zIhAUAB9lf5Kydge3Of3akDY6Ev2qVJ8yxmv7mo6+Y0vYSiDMuRMyZWU4Tg46fi3NiQiGlIgoQknN4swdw7jp7a+ENJYWPLXCexoR8k4H92W2RmEjEOvJ6NsY5qlK1rw4BASq9YqQsCibyKsgCiCEVC2OhUhF8ILGJd/+4RdO//zXP4Yw8qgw/dRDjrEMxu+8G3bSwa7ZL/LPJv4a1WDuGi+qIeZM4GWHojnAbGNEdCYGdPwgxZ5jxQoHKg8akQqxJXeJinnrj137qqUPsATRsWzRvbmwjCSATqStDljI4eW//iu4865v4N3vej+62obB2kTSbEPW6ULa6kDK7EDaan13rvidsjqQMnsAsEibOSokergR1MR4ea9RCWYpTuo59pWcAhKeqqMRVUQ+0aGOV3agFAKaNEqqhFw6hXe89TX40c/+ES/9jedARRGAhW1NIYIhTPRlt+g2p0tVKrOy6pXWkdF3VKDlyEdWAzOjWivLtFNg07CYtRYy7nhFDGYvqHeX6tPXzsxOo1atYbTjv5d8ftnVYSZthEFELzvn8xxEtd7bx7/0pEA1sLINHzenKPljIu/0RJ3JIT3p7hES5vykHaztkl2JLXpL7pJotHq/rIczdDxYg45Hy+yjRzxHKdmGDuxAwcnA4wChB1imiT/+wNvxht97Ff7h5q/ic5/9HxSLFWSzacRmgj7kKLTiORgMx8gCDFI6ZIrpt0ijFcI6tkIgJr8QmHXHxUDu9CgZpLkR1o6ZQ1AIARCjompIm0m8+Xdfgbe98zcwMNgNAPD9cH7GWl0H01aeO1P9KgoCUaxOGZr1Mdz1D5uhdUsYAiFUATy3IXPJdsWsSQqpA+UJArHmiHQoX7nDeN6/mbZVPuDeSc/Fl/jreCGAFQSANoFaZZZGSvcyBM5zw/LWWKU0aOUHJJ7GKXevHEifG5X8SRGoxnxsVEBiqrFX+KpOg9nzorHqQ2YlGMMCY/ATGfH114ISZrAXQTUPN/IQcQAACIIQXb0F3PiBV+AXX3IFbrrhE/jat74HBpCS6ZhFRx+aQ7D0WdLQcGQSNqW4VJ8TKSfDA7lO5YYlKjemRSOqETdt9WMpCAQEAu2hGhRFW6pLHSzVN11FEyKm066pOhiM5153Nf7oz34Pl15+NpgZYRjBNA3IZn6GgoKERFe6X6fNvK7WytILXZJNWvLjCNpI5EdAoOHXyTBNkUgmQ+EJMykyyNu9IiN6ORH0XFqqF88miB/bold8HS9UC589BMPiX0ENgftnv8h3T30FVX/2ykZUTgBHajfTKkApUjWcFp2JIcWHeHoFTJSDaTpYecToSZ0edSS2a0YrMeHk8M6fSCzOalw8bzERCaCVxjnn7cCXv/4X+PKXPo3LLjgfVVWExx6kEGh1lYlxqNOUYRtJ1szsRXWarU2KmfK4IbRF3eltqi+7I8pYBQYw34jzWIDBkJAouZNCECFt57Q+0qO11vlrFmV57KOkijjvjB34j3//MP7n25/CpZefDaXiGo1Wq7jYoxLBkQn0Z7eqBKV1qTxt+KFLx2/XXzQ3rTYCG7l2CNTrVaGiyOpObhfb7KegRz8JGX+HlmEOzNTFzCBt4qn48vznDrvKM7f/AIpDeuWFn+dfPuvdhVo4+xRP1bB27z1hqr5HOmaS02YbKyxuqcWQMFANZ2mkslPm7F7dlz5Hx7LlRFNpnUw4fB6EIAgpmkQkAr90/dPwg9v/GZ/9yw/izG2noaorUKTiSML8x5fer4SZ0kHoi7hURyJUAebqsSCIAiU7EkN6IHd61Jbo0YYwmx2RjoUgEIg4xGx9TOaddr0Z3YaklNCkUVZlnDY0iL/4+Ltw652fw4te8oyYPVfrZRvBtjmd3JfZEkVeSMXqlBHpaF5rPf6aKR9VlFpIgYTupjb/Ijh+Hyi0YxOYFAjYBuKmGRgsuhOHwI864EdV2lf8GQ6WHzy3HhYvUDoA1ljIShBQ7GG2cUB0Jgc1HaJOclMI+KpG+0r3GpZI66HsRc2eaCcLseaJxirdYZu5AUopGKaJ17z+Jbj93v/Ah/74D+A4JiqqBNACs3GrM7MkA7ZMIs5Xb9njBAEDihUq3hxNlQ9K13VlxuzkwdyZUUdqQJnSnm9LFWNzIjgCEtWgSArhIs6A9R9bSgEShLIqQxiE99z4Wvzk3n/GG976a0gkHSi10PlpAfF5HNPhvNWhytU5WffLgubzHw6d/+MlCJgXkROvA3Hkoi3VjzY+FxwaYIpah2rpFVuAeBVHi6Z5iQBw8EwoL8J4/WGMVu9H1Z++rBFWVgj/rXAJ8w7BcUFEnLd7WB8S+mvZmhoaB6oPGgDxltwlyhAOcMwiBI8fUHOBt4hInISDG9/9O/jerf+EX7v++WCpUFWVJn1ZHBI1pQ1BBofKP8TOXBAEAFAPqzRdGZPlWtFIyQL6szuirvSQsmWS4/BYy3w82nsUf77oToq0ndMGmVhPP0Mh4t28qmoIyceLn/csfPuWv8Iffeh1yGSTzUpMrEDNFq+JKIqoVJ02IhWQoBPPZN1M81jnIOLFn3TSaJdnQ+os4kRSWnhDfPR+IRgi7i+0MI+LD/WU7usByTT2ie/pXX/6n6IazD7FjcpYOfy3yqA4wrS7V3Qk+5UpHBzKadbyCGvWOFDZabhBFVtzl0SOkT+GYcLHFxYzEmmtccFFZ+LzX/oYvvv9f8Kzrr0Grq7D1Q0IIqSsjNZaN7sFLYdWb6F4F3TDGqYqB+VcZcYwOUG9me2qL3uaylj5eT9BcxQbHH28CdTDEoXKpbZUt9JreMZa19zgBmq6hmsvvwRf/7/P4Av/+xFc9qRz56Mi8bysPrZmF58VSE2OLxb1JFjXQBgMw5DoSp6FRDSAZkv7RUecv0FD2hO29qRe3MZ6iQAo5v4dkQ7oVz7yGbzgY58arofFiwK1kZ73sUOwGkyJRlRGV3KLZqhla9Fb8dVJd7eccUflcPbCMGP1MCM4JQTWiIUuRs3WZlddgK9/72/w5S/djMsuOB91LsM0HFYcLuLnW52cs8XWGyq/6SeYMFQA0ZEc0oP5M6K806kFiUUOw43cK24mB43LpJXWjhFrGStdoyElFCmUVRHnn3U6/vMLH8O3fvRXuO7plzZrK/Qh7d0fW1iYx3X0XyRGW2oQOX0mYupJhhCtvI74Lc2fQ2wixwYvCTYuWtnvw9wj56MezWHcfRjT9ZEL3LDc33TObWBGY4/2tLvPSJlZnTAyUKvYeQImiv44TdT2yr70mVHBGW4KgVNYK0TTyaVUzJnw/Oufim/+4G/xwffdiEK6gPHqJCmKnWErOQoPxYKfIELZm6Xp8pj0PF8W7F7d33IYktEUBOvP7CNIeMpF1Z+VcXLQ4Wg5+EqqhFTCwbve9lp869bP4voXP21RPYWY9+4/ZrGuDrqx6p9O5tEuz4ZQSYA0wNSMBh22cnIk0E3Nou9fSH4RwCIB8JzOEtq6k/j55H/xPZNfQdWfuaYRVQUAvZEEhZYW4KsKiv4YdSaH1erXxs0w4ZQ4UHnI6EhsUV3JM3Vc87+Z5bGPf8hFgiCVSuKd730NvnLbh+Wb3/RichwLRVUBCIuISo/03LX8BDGDUewwHDNq9aqRMTu4P3dG1JUaVrZMcquX/doRm4JFd0JY0kTKzHDr80K0HHwVCAN482tegZ/c+8/4wEdej3wh03TwPQ4W/uK5WONey9AwTQvd9jlwoj4sRNF4vjkqFsKKDIIDxtbWa19zY47A+ZkrSYKgkN5++a38qrP/PlML5568MfV/6TABiRl3vzSEyTmrk/Wq9n0cIXCjMu0t3WukzDY9kLlAx5NyKkKwXrQcYEpp9A114IOffD1uvfvv8dLrn4MAIWq6Me9Fj7G2DahFGR77CcZkqTpnmEhQX3aH6sueFqWtXNNPsLbIQcwcFKLkTcl8skNJEjCkhKtdBAjwol94Bn54+z/izz/7dmzd1t/UcHDCei8cK/D8jzVQ3gmgI7UVGXU6oA99f9yufBF07GHkLbEDUNPzE99svrOJ0FcIuUE/n/4GHpj7/uluVN6hee3hv5UhwAgx1zgg2pMDWtDqBSetMKHiECOVBwxJlt6SuzQyhIXNKyR64iB2mgkwx4JgxxmD+If/eh++/NWP4slPugCzqgyP/eZiWq8giL8C1Zj3EyCSoiu5RfXndkQZ+9DEopXcj3FyUNWfJVMK2GZal9QsLj3/HPy///lzfPF/P4LzL9yxJJHnsWrnr47W2j9SF2aNTKKAdjoHpMxY9T8E4tAamNgi72+dyEfcMEQAwNP6boJhAJPePoy6O1EJJi93o3KhOaKjnOmFsKDmkDsSQ1ofYSHHEQIJzQoHqjsNL3RpOHtxZMrUqQjBBhG3NltgLH76cy7HV275c9z8yXdg62A/ZlUZAcJDdtW1CQKCgIBEpEMU3SkxXR4zAj+SHc6AHsidHhWO5CeguBQ6RIC9xV3yzG3b9cf/7CZ860efxbOfd9V8z8XlEnkeV5gvBlxtbcQ0d53W2bCiDjAtn0BHy80TY4AR91tuyQwBAAfcCkzHpo9c+3X92+d90q6Fc0/1wirWH/5bCTFB52T9UZl3OrUj0zhys4jY7gQD4/WHZdmbEVtyF0dpq5NPCYGNoxU/VyruaPS7b3ohfvjzv8PH/vStaCtkUVQVaOJD7Oq1PQMtP4FmhYo3S1PlMek2XJk1O3kgd2bUmRqczydoCYJWGLOiysimM3jnu19FX/3xh423/sHLkUol5h18j+uF38TiLsgrQUqBruTpyOodq+rRRPJQMwAABogZpPV8gxEBANva2xEoj/71wT/Ht/f8zXY3LF0aah9HZ/8vHRBgoBGVqOxPUGfy8DqB1SBgYsYbEdP1ETmQOS8qOIOnwoRHicX+gUw2iTe/46W49Z6/w2t/+1fAklFSNQhJEHJ9ZkGMRYlFQZWmKwdlqTZnOJSh/uzpqiezLUraGRaCUFUVaBHhlS97MX7ys//Au9//WmRycSJPa5xPFCyk263cwCWX7EKBzwGUhdUSp6hJ8NosMGgdsItNkWRTMov4NQEAbuCj1BjHeO0RlLzxi92wNNR0um3iCos5BGcaI9I2kpwyClhaJ7D6ZwVMlPxJOlDZaXQmtqr2xDY+VUh0dGj5B4BYEPQPdOFTf/92fO27n8Kzr70CFVVHVbkxfdY6HYVLE4sE/MjFTG1CzFYnDZMckUGvcnSHevqV1/D/fu2v8Hf/8gFsO21wkYPvyIk8jz+stqdrOLaDDvNsGCoL0JGc4tTUAJZIlC5SVCBFIG4KgIs6bwIz4+Hif+q7Jm5GxZ9+aj0sSRyD6hyCgNINzDUOiM7UkFp7g4l4CgQM1MMS7S8/YOTtPtWfPq/p/zxVSHQ0WHAUxozFVzz5PPy/738c//4ff4InXXguKroOn4MN+QdaECRhSROuqmNP5RGx5cw243NfeK/45q1/jac98wpozWDWj2MH39rAKzzHUgp0Jk9HKtoKXuPzHjsCl7yvjYCO1n27Et+AKGQ9aET08nP/FS8++2976lHxck/VsXHuvtUuLjYF5rxRIQjckRjgIzkEDz2ChAFfN7C/fL9hiITekrtYSZLAspmGzU89JkhBTjyEWCAqZWa84Fefim//9DP4u797D3q7OjCryphPJJrHkQWBlBJMGnOqjI58Hjd/6p34vzs+hV988ZUEYmoRoz4R7PzVscI8EqMt1Y8Cnw3otdYstPwAAmg54QCAeZDikiNKWiWIIEjCDSs0UnkAU7U9Z7lheStziM1V/5dcDQCNaXe/KDg9y9YJrH5Z3KQai3Cg8qARqABD2YuVIexlIwSLK8FOCYK1YXEikRCEl73yufjWT27G77/uZbATFuZUBRA4oqOwlWNQUhUIk/Dm1/wavnXHzXj1G18AwzAeh4k8R4fDA6Wx3Z9w0mg3zoFU2WbIb21LM+5FIVt+gNb/+ptEuvSd4NcgoobCgdq92F+5C2Vv6sluWE4C0MdOACzUCdTDOepMDK1QJ7D6MRZTjblhBVtzl0YJo+0QIUAIwxClUiX+VJNU4xTWhpY6rpXG4HA3Pnzzm3HLnX+DX3/BsxFwgLKqLesfIIp5+KqqjoADvOA51+E7P/4sPvLZt2DraX3QSq9SqXcKLcwX+iTOQrJZ6LM+EMRCJKD14cFW/c01xn9AwAzpc8+6Q3/o6m+YtXnyz81X/5cb3KS7WyatrE4a+XU4BJdCQGLS3Stn3FExlD0/ytl9zAiaGQwSjUYD1133K/j4x/8aURTNk2os5tI7hZVBFBORtITn6WcO4R+//H584/ufxi8+8xpUdB0e+813xxZsgBAlXcXTr7kcX//eX+A/vv6nOO+i7dBN00KcVHb+YgamEzymJR57ahb6DCGvzwTrjdG0xaS4YtFxsTVmHiNtUgShEdLf3vdp/NODnxh2o/K5alOy/9YwMAhE2kXFn6COxIA6GoEjYKDoT4ix6qOyJ7UjyjtDTSEQRx6mpsZwww2/jxc87zX8s588zADmVdxTgmBtWMxIpJXGVdeej//4+ofwmZtvwnBvDyIokCAoaPR1duATH30r/uvbH8ZVTzl//jPipEvkiYlAW/ULhyYpLQiFxd/HHi1q8lQii3axqNBn3efnZkLQoj4+wCAJAgmwBEHUoklMNnai6B+41A3Lvccr555bdQKNEWlKk3NWzxHqBFY/WotqLC4kGlbdqbM0N6nGiGwIWcBdt+xTz3rya/CS69+CB+9/dF7FbTm9TuHIEELEgkBpsNb47dc9Hzf98W+jgbiuwIWHt7/vN/F7N/wqhIjf1/rMyYP4GZPCRC7ZhbSdR8JKwTItCElx/wWKewPE36pJj6YOI57fTAHR6gvAYFimiS7nLDiqF3wUa5IQE6QuCi90KS8w0dAsQGQ8OP0fDADndLz8ukZUBiA0wMfpbsX9BGYa+0VXaruqh0Vj+R72a5u8uJCoQvvL9xv9mdOjwewFfLB6v9TaR87u1/lkB42WHqH//J+v45vf/BF+6zdfhLf8wW9g67YBaM3NNt7ylF26Bggpmp2KANNcaBtOAGzbXPK+kxUWZbHNfC6UFUCTD8U+FHxEaMS/s4+IPYTsQ+kAkQ6gdQilI2iOtUeGBrhV6bBYCCx+ipd7oA4lbUW8SBkcF/psQ1adAWixMZawRccmYYBVRDHZEHWSabQz0QTAZLzsnM+zryq9d0185bJAr8b9fywQhwXL/qTI2T26PTGgJ93dQmywX0BLCEQ6wEj5AaM/c0Y0mDlfHaw9KAt2ny67s5JZIyvzCIMQn/qrv8d/fvEbuOEPXonXvemlSCTspn/giZWBtlG0BOWh2lNLMJw8dv4KYAERpSCQnh/rfGt5YhAxtIh3flCECB4UvFhAwEPILiLtxUJCe4i0B8VNAaEjKK3AvKBd8sIZcCj7c3xeAsCUSbShnc6BUA74iAk/R4YgufgIBRAKDEwABONg9T5o1me5YfkM5iNx/x8LxGHBKXePHMycp0r+xJJ+Auu+pwBa7a8PVB8welLb1fbCk1QQBqLijxJBIFIRBAlkZR6zxRJueMcH8V9f+Cb+4F2vwi/80lNgmsa8b+DksllPUtCq/zyJwfOVdNz0sTEEiJs7OUsIjlvNCQDmPO16HEhnaIAUtIjARgiNAApBU0A0ELGPiF2E3GgKCh+RjrWJWIuIoHXsg2CtoHUIYRC1ybNgRh1rTvg54u2JMwJpEetgL4CdICbj1tF/xbkdz7zODcspgDQB4vhaw60GoyWqBFPUmRxWo9UHpYBcpxYQ38FWkZEtEsjaHSohM7AoTabBuj3ZyxVvVoY6gGBCpABTGLBEDrfffTde8KLX4alXXIk//vCbcfU1F4OZ52PhJ/1udgobBB3+r8UvUcyuxItyaQA0JQYBbEKwCUISC309mu05KX4imRRgKGgKodESFLGpEaGBiD1E3IAmj2yRQSY4rXUSHL0AWCAIYSgNggTTcHOcZLzukr/Ofu2Rm690wzlgSUOIpc6NpTyyC//fHMRCYNrdL7fmLokyZgeq4WyzoOTIlFUttloCIWXmuM3pVSmzABUy1d2ybLhj6MoM6Lzso1y2M6oEs1TypmSkg2ZmlUZSxu3Dv/+Tn+BZT78Hv/yLz8RN7/1dnHfB6acEwRMaS+36w7Gw0A95daHbL4tYm4AdU6kc+gyRBoihdQBLJRExQ3EISevdBFe+BkEGlFbcNG8GW38x7pu45SJD2BcUnCEoDhHpAKH2oHQExSE0h1hourlYOIhFv2+GkBDQ7KHkH6TO5KCqlYvySG3IuBm+MchC1urQObubEzLHURCJcqUk/MhtjoLhRS7pAFBRaOSS3SqVzUUlb0rU/KJQHAEqLpxIywy00vj8l/8fvv2d2/C2P3gVXvvGlyCbTTcdhTpuKXVKDpzCEhzhgYiZeJZ/opnAGhBIoCe/HYojTJb3I1T+ppmgJOSCAsMYIEkgAhuBbnQ1okpOkFS2TEIKQ0thRgSSmpkArZSORKgDEWmPIw4p0h4FyofmCIojxL4DvWjR07Lfi/PFDv2t5RCcaxyUWasrak/065nGiJBLHIItNT+OFNgyyTm7k7NWl5ZsUcN3xaw/RREHzVwn2VTcFOp+RbQlulWx7IpytSRt0+GOxJDO291R2Z8UFb8oNCtAxbxsGZlDtVrDje/+EP7ms1/AW274TbzyNS+adxSCT/kHTmG9WIXogzVyqS44VgJgwmD7GZitjaPSmEVM9S2OShsQJJteWQaItjJJsCBtkJCqHs7qucYeCzAZEEQQliADhrDYEKY0hE2msNmUjnYoLSSZWgpTAZAMBrPWiiMRaV8EqsGRDijUHgWqAc0KmhWA8BBaqMPjpwQBRoRJd48cyJwTVfwZEWofAqKZqKEgIJG12rnN6VMJmUMYRqJWqxl+NIOYY0DMc9YBLXEk0QjqFCVCJOyUbviu8EOP/NCTtmGjPTGkcnZXVPKnRNUvCsUKrBiSDGRkDvsPHsQb3voe/P1f/xfe84Hfw/Ovf9p8/gDRKUFwCkcPQ1jIJTtivZY1DGGgJzeElJ3DdOVAUxvYaPOSuDBIQJLmCAAG/KhuC0jf0FrZgBCAFfsHml+KAyjlk6+YFowZCECAICFISilMmMJhS9qQZAlD2Dpl5pUgKYkkCQilWQnFEUU60IpDEemQ4pBJANX8PRYQGtxsNuGGU1TxO0V7ol+P13cJBQmTbGTtDp2zu9iiFAdBIOdqMxRovylC4nEtj7jxgxtURNbp0J7fmNfh/chHUPWlY6e4wxlWGbtNF90J6YZV0qzBimELG45wcO/OnXjxr7wZ1//SM/GuP3otzr/wjFP+gSVzrEHgUwJxXSBorZBN5mAZDjRHICIwAwyFjJOHZdiYroyi7pebc7uRtGACkSTEAqDNhN0F4IDBrC2wFoe3Qlwpu6klIEIoFSBQNaqH3Fp5EiAJCAgyIIVJBplkCItN6ZBBNmyZ4KaQiJcMiUizkpqViLSvQ+2TH7nCjcqiJ7VDNaI+YcukytndTEpSw3NFJZgkxWFzt1/Lw9bsQuPVRMZp17aV0F7gCmqSWAGMhl8jzxeGYye4J3Wa9nQNJW9KuEGFVLNhZFIkoMH4wv98Fd/45g/w6le/BG+98bfQ39/1xBYEHJtZtukgowaRkV0ATrlJ1gaGFAbyzd3/kBAEFEewDBv9hdNQcmcwWxuD0tGGtIG4LsAHgE4CegAcMABt8qq8/6s54hZs+0Ptes0RtAopjJ2HcVB14TOiqUVAkDQFGWQIi22ZQsrKo+D0hZJMbcuksS13sSrX56haqUhfNZrlwEvV/LVCsULNK8qM0678oCEWWkJRU3tguH6d/EBKx0pwT2Kb9pwqFxuTshHWKNKqmT+QRRhE+Nhf/A3++R/+H179ul/F297xSuQLmWYiET9BEomaKbVSohODGHYuQuTmIFVqyd9PYSXEu38u2QbbTCFWz1t5+9xs8rGQaFVIdSFhpTFdGYUbVNapaTGEkARFGoAgoj6AITRrixdSfzfUAGQhQnBoeqMEwQDBBMEGYKJVacgIodiHZk2mdDhp5jhl5mFSkv3QF3PulNkIXIImjlSIhnIhIJuhwY09WAICNa9CEBqW4XCrQ+7i8uFW84u6X6NqpSqNMCn7UjtUb2ZrZBsJVhwhVBEEC2RlDuVaDR/88F/guitfgX//l68iChWkbBYaPUFKj1OyA314EpxGH3jd+RtPZMR+plxiud1//i3zUBzBNhPobzsNHZn+OHGJGWtNnW/mAzSJfrkfAAwGW+B5O3+TsODvj+OjLeEgYQgbCSPDSTOvHZmBIWxmBoUqoEZQF3NRkQLVgBQGClZ3VCxPG/l0e6RZo+aXxUZ2/sXjUqxQD6oi4WR0UPPlQuMUmh/xEkHQqJL0DcOxM9yXzqpaNEvlxozwVYO00jBIwpZ5PPDwI/j1V9yAp332Srz/T9+Eq665aJ7OGqBFXXgeT2hqAFESAulF9/oUjox4988n25GwUtC83GaxtFcggcAcpwa3p3vhmElMV0bhR401agMEIsnNY/QBDAPM5tFL7JYZ0FroCq0Fb8okJ4w0J408O0aWJVnQWpMf+VTz6tSIJinUPlr94QXidtZZu00LNsgNZ6CrkVHIdEaRCsmPXNpomnBrode8kkhlc5EhTY5USHToJC+afIKE1gq1RoUM3zSSTpvOZNp1NSqi1JiUgfKglYYjHICA7/7oNvzwujvxohc8Bzfc9Nu4+NKz1+wfWBrufCwhjnE/Nsd+oqBhCBOFVPfKGtOyvr4mCyZHSNlZ2O2nY642iZI7hbWEC4UwSOsAAA+zIhga2mReb8rh4Quem1n4hkjAMVKcNHI6aeZhkM2agTDyRdWrikZYm1/wNP8lYCCuIGsdJ2XmdOD7UkDAjzzUGxXZnulRU+UDRqQ33iGIIBDqAJ6qU8JJ6mq9LBdP7ELd5OKW0bGrUekIVbciDM9EKlHQ6UwuqgQzVPZmZag9CMg4kYg1/u1L/42vfPW7eP3rX4a33fRKtHfk54lIpFxei7Gkg+NDxnIscGrhrxUEgtIa2WR+3vO/4vzF9UHLVAQSNCsIkujKDiBhpTBdGT1iuFCQbOUrDyeSLA3NuqUB8OqjaL1l6YKXwoZjpDlhZDlhZNkSCQYkwsinmlcTXjRFgfKgmsk71Ow/b8Bcki3Ii35a0oEj06iFFWppBXWvQoZhio5sfzRVPmBoXntfgaVoagGNkuzKDIayIaXWiyuuaMn7Fo8tHnssCCr1srAMW2QTPTqdbY/K/qSoenMiVEGcqyDziMIIH/r4Z/DfX/oObrjxt/Hrv/GLSCadZneexRWH8XnSTl6l0E6aG08ED+ITFgyGIIlcsn1l23/Ru1f+ezMxjiNknAJsw8F0dQw1r9TkAzxUheBFnYN5wAtkSjCrZUyAxeE/BhABiFOCDWEjY3Xp7tTpejh7UbQle3HUnThdJ6gNru+LieqocaD0sHGwtkcW/UnyVZyOK2FCwDhkUR1+XoZG2sppUoIiHczrGgICldqcYKVFe6YnOpobEPPUN+ArVySclOIV3rW4ZHNpdXcchQijAJVqUfjV0CjIfh7InRm1JXuVIIFA+SAGsjKH3fv349WvuwlPvvTX8T9f/u48DXcrYtBC3a/IrGjXCSvukHuq8cnjEQStNTJOAY6Zbtr0a8CqDbrjcKFp2OgrbEN3bhiSZDO/5rDGodTUEAqSuNdgZqtlAiyo9S0bPt7hk02nXcLIskEJ0qzhRx7V/YZshNMUaG+RDd9qENVqTnjkdkeLrjJWo60CB74nGHzIwiOUqtOiPdfNhVSnmqtPybXlASyPcmNOdqUHQulJuTI12FL/wFJLPVbXQxUgrAXSMizknV6dzXVEJW9SVP2iCFQIW9hICAc/37kTL3rhG/D0p1yNd/zhq3Hd0y8HMyOK4shBI6yiqCfl1tR2VW6UDOYnRhThiYXW7t+xht2/iWZIcNW3gJrhQkY+2YGElcR05eByyUMUlweHOQ0eMBjaiHP544i9JAuWTHLSzHHSyLElk0yQCFQgXL8uGuEM+aqxSKVfsOGXFgBthNBDwzYSbIsEV4MyrbQDlqqzsi3XHYUq0FWvJDYiBAgCfthAoD1hW452vZpY2bm4WBs6XAy0XgkiH0HNF46VoI7EoMrYHbrkTci6X6IIjIRIAkT4v1t+gFtv+yle99pfx9vf+Up0dbcDAARLeJilSA2KNrNXMfhoQh6ncNKhmfWXaIdjJXGsBHycPJRAX2Eb5mqTKNYn4yzNpgNakNQqrr7rNTQrxzbSSJg5lTILZIq4GCFQATWCmihFJQq0h4gjtFTxeIdv0T4tteGPZnIYjJSVZyhBkV6eHzB2oIQo12aMQqYz1DoO6wmsPzOKwag0iqI90aManrsGKbKyf2BxMpEXNMgPPMMyHe5KbNGB7XLJmxL1oCwYGhmZgVIKH/uLv8G//cv/4pW/80L88Z+9GU7CBgBM10dFwRyIklaGcTwYWk/hOCHO+iukurHudN6WFrAGerBYG4iFS0emD0k7janKKPzQbTZaNWJ+ANbbjKSR7+hJnYGKNwfXbwgvmqVA+U2abp5Pt5UwDtn5NttTHZ8rbea17zXkoer/0gsU8EMP5eqs2ZbpjqJKSEHkrTs8KCDQCGoUJQJy7IRu+HF68BruxqIxrywI/LBBQehJx0pwV2KrDhJuVGyMy3pQISD2D8yVSvjgRz6Jr37lFnR0FGAiiSD0MRMcNFifYip9/ICgdYRcsgOOmVjBPt98KI6QtDIYbDsdc/UplOoT8VNLEsz6HIPIuJO0fFHRmzI8VYOE2XyED1/wx/JpbHr/2UIC1aBER1qIAhJeWIfZsGR7ukdNlg80beb1hTMZCnW/TFm7Qzf8tWgBSz/fGv1CWvHiv8aHawQueUFDJpwU9yRPU65dRtGbko2wSpIEsrID9z/0MBgMB078GdQQaI+AmGPvVFhgE3FC0i0YggzkEm3zHqWNHWZtWkAL1AwXEhE6M31wTAczlTGEUR1aq35B4FuJaKovvQ0GLF5ctX/8UjqbPOhWlqHRLPQ50gTFDsNqo0Q6UqIj0xtthDddQKLuVwWEhm06vLFrXi5asLTMGSDUvRpVyhXDjFKyL7Vd9WS2KksmOFABbLKQEIklc95oePO/P1HSio819KKYj/IIxHHizLGVBbHnP+3kkLBSG7f9N8wOvJA8lHEKGGjfQdlEF9JO+4AY6tixO1ThHrBEe7JPqXW36doMtNT/gg4Df12chAICpdqMkDCoPdMdrX8BxyGUWlAWiURqjTGZlSZ5qSA4tLGEgACzRq1RpVq5athRRvSnz9C9mW2RKRMc6QVKNgMGXvvK9+FjH/ocgiA81dHoKME67nwsJEErxrf+dhyfefWjyFqFOHvumO51sec/n+w8wbMQawOGNHmg7XRs6brofvGFn79+yjLshyreHHJ2h04ZGajj1BxkYXoYlrTZFkn4oXdE9X85lKrT0pFJ5JJtSq+LTTUWPnWvIoQELNPeoBawMMmLz730WhYEgWaNWqNCtXJN2lFG9qd3qK70oLKkw4ojCBDGpqbwtps+gOdc+xrc8n/3nOpotAGwjnd9aqZh//w7RXzohQ/gb9/4KKZHGrAtG2kjewy13ebub+fgrJjzv57DHTkkeKTxMMet2MF8n9iRezmSZvrnDEa5UZRdqeFIHNd01Jb6n2NorOj9X/0IBM0axeq0kXEKnLIy3GIHXuvnQx2iFpSF4yQ2aWWtlEi0WCOQUKxQbZSpXnGNFNqpP3O66kgNaEESEgI5sw0/uusOvOSX386/99KPqZ/fu2tJ085THY2WBzPiJCsChCRM7G7g07+zCx/+lQfx4A/KSBUMmI4As4JjJpE00li/D2lNI4nj/qnOY3DsDaOZDsw/F4P5rUha6XsSZqpa8mYkseDu9LA+fqZAbIdnrDYd+L7YqCQmCIQqQKU6J9tS3coxk+vayQmEaqMohBRsSPMotYClR15NELTSpiIdoVIrC7fSMDLoxFD+7Kgt0atroY+EdFCPZsWXvvBt/OLVb1W/9+r34dGHR+abdsatzY7ZDXrMQStucjYSpvd7+Kcb9+Dd192LW/9tCqZNcFISWjEWNmONtJlFwkxhgYt/9b4+a8NC1l/CSm9u3H/jWkAr+6gGwgOikOxExsnvto3EiIDAdG1Mps2Czlh5biX7HEvEyT9JdkSKg7CxIfW/daQ4MuCS26jIzkxvZEprzQu5VSTUiKoi4ST15quES82CpY9XSxAIRDpCtV4S9ZJrfPwvbsQf/v5bIlNn/3977x0n6VXdeX/PvU+q3Hl6ZqQREgIJEY2xwYsDNgZsbDBmLWOwwbbI0XiXNWAbBGZ3vQSTFmy/JngdMAaBFy1gMMFkMEhCQhEEEspIk6enU1U9zz3vH/d5qqu7q3NVd4+kM5+ame6qep5773PPuSf8zjluPmuTxsdtJWroe997sT7yEb/BG/74/2N+poW1xqceZ/dsKeCZ2tv5rXnH/3vrbbz2sd/hE++4jXbTURkOFjSDpSSOWjhEbEuouiUiYLOU2/6VPtv+hTNwc4+7+NbtovZG8/RHvIz/dOavH4xsdH1gQppunuOzh81E+UC28eYcG55JDv6pOTLMVrL8irkVRT+azXk7Wt2Trf96PpQ3Mz9lgjBQK4MA4S3tHbfUP+ALtxqxzOs8p581ai78iwuCiy5+qz7+kY9Pm03cXTO323PGH5jNz6e89X990D3l517pPvSPn/aZYVZ86fJ7mCBQ509zY317rUs+cYT//itX8U+v+SGzJ1JqoyFiWHNdRKAaNghM0LM818bIn/6VuE4cDgL1t+mmIQVLX+vaOm1e8tEnmr/5jz9pxUH58tBGGISp5lGTZY7xyulusFpAx/uv8825Tav/S8lgODFzxOAwo7XJbCNawHw6R8vNSSmpDEALWLjTimaBFhqBIUv9pvmFX/kxe/FX3hxc9OF36oPv90B35PBJxqPTs32j+/Tyq66Vlz/rr3nBY/+ey79wR97G2wuCu7t/oDjN83bXfP9bU7zxqdfw1qdfyw3fPkm5EWADIUt1zdOygHMHxlIPR3xBmOKZbG50GDEMVcY7ULG+0pZYUgCukkAxe6sHZF/1DJKwckVkE6dgBNHDMz8K6tGIa8RjAzMFCvU/IqHZmhXTx3sYDMdPHjaRSRipjK9bCACcnD9u4iTOfNbUIGmlaEH+u7yKUJY5bCA88fxH2k9+/W3mwjc9R846cF+dPyFy39qPy4Pqj+PqL83y0sdfzB8/5dNc962DnQpELtO7nX9AdeE0N0a49ZoZ3nXBd3nDE6/iis8cpVQNSMp2XXNfHq5VIhvTiEe6Cs5u9vRvUIpqued/QIfoxn0BRfezaxAwcVDWemmEalT/QWTjI4U12nZNjs8dNRPl0zMrIY5+qzC5+h/WVTMkW60owmbXBuXE9GFbjRtaTRpuPeFBg2G+NSuptiSJEqd9n/fydVg93xvfiQjfh6BSjeX5r3iS/YdPvzp41rPON/H0fTlxQqkmMXEQ8LmLv89LfuFjvO/CS5mZanu1OPcPbJcgGJjXSLscfFZozmR84p238YYnXsVXPngIGwjlRpB3cFqrpRyLNa/0lsAlAABBXklEQVTOz74dd2xLVMMGm67Dj6FeGh3M6d+ZxIav61N8Pbj0RhRMIKLnjD2Qs0fPuyUOkhuM70emBsvU/FHTbDdlT/VApn3PT/c2dzUacq32xsA/614fhDRrcXTqUDBUGnOlsKJuHRgHh+PE3BEbJ4nbfPmxzY13xfckLyAiHhW4/8AEF773Kfzvzz+JxzzxLGaaLWabLRqlEllb+es/+wa/99AP889/8R2a89mCIHCDlwKDEDTqvAAzVsgy5XPv+xF//DNX8I+v/iHzs9mCg28d/o+lAK1OeXjx4VX/zB3lsEIlqG3Qfi9Qf0NU4vpgT/+ue653GfN/bxaV74sKJsusvv0/flv+8tJXzkRB6arQhHS3JT48c6ct27rWo9G+mgKKEtuSxlKi2dqK93+tpbG00nlOTh+zo9XJLLKxrnWqGwyzzWlpa1OSuLQNWkD3eNd4XyQP/3lmfsjP7OFNn3wib/vkk3jgwyc5MTdPljmGyyXuvPUkb3nFl3jeT36Uz3/oB6SpYox0vOWDmoHpowO1G8iTZcolnzjCn/3SlbznJd/n4E1z3s7P0X3rGZv0Ynx899wi07X4JF5DJQkqG3CGe8//cHVie/I4ZW3/xqLBefoeRk9gVExb2ty/8avy0LHHkITJVYGNKPqdCoZMU47NHjLj5dOyoG+mgAf/lKNGrv5vHPyzfvLhwbn2tDSbs2a8vi+zZq3oRt5JqDll4jhxuwjA0SFjpMPMzimP+uUDvOtLv8YfvvmnGZ0oc3R2ljAwjJTL/ODaI/zJb32aV/7qv/K9yw51vOX9FASCL1EdkZBElS1fr3Oa50Ce2787yzuf9V3e+vRr+cElJ6kMh4SJ2ZCdv5j5C8YXTOfU7zYFiqiMUo+GiEy8DqeqP/3LcZ0k3ALmf3BUtAC52mOBxBgX+gSBRmmcUlS7OrLJbAETKsJqJ1snTDtrs6d6Rtaf07AA/wy71gax/1u538nZ4yZrp2a0ujddXeD4ec80T4oaRxRsFR48ODJ2QRDEJcvTX/Ew3vft8/mdlzwcscLR2TmSKKBaivn6Z2/iBT/9L7z1xV/hrltOLhYEW5xeUVWyFo2yFedpd5zeWOHIbU0+8Kc/5MLHfYdvffywd/AtA/L0puV2fpcoyGvmFYKArneXCnwRqEfD2E54cOVVEDEMlccGa/v3Wv31OQNzB6BcU/xsLr/1XcRBSceqkwyXxq5PwuS2vPa+LnxLODx9Z1CyNR1O9uhWUYKKIwkrWjIVmlsC/2yMBPGJQ2pkpDqxhjDzSUIzrSlTKld2nShfSt3MPLKnzMv/90/zvkvP5zcueDCpOqbnWlRLMTjhn/7ycn7vYRfxV3/0DaaOzGOsbBlIpDhKcZ1SXNt0noJzCwi+uZMZ//eNt/Cnj7mCi99yK+2mUq6vz8G3oOoXp3o343t1Xzrqfq/EreWzs8bSiIZXaUWXe/6jOuVts/07t14v5YytV/umvurMgyeehzHCkx/xO/zqI55xMAqS7wd2saQTDKm2OTJz0I6V92eRSbZgCnj1uhoNOZch2Saw/1tdq+PTh20pqGi9NLKKfZ8nCTWnjLXidrMW0Jlbri4XXv/7PGCYV73vMbz900/mx35qH9NzTVppykilzNx0m/e++RKe98iP8on3XkcrdxS6bHOCQLDUSiObGncBXjJGyNqOr/7zQV7/+O/wwQtv6gB5zDqAPH4ci0/xxQ6+xYxfvL96JKYzSiIbUYuGVnjfO7Ub5QF7/lej1bWAYkBHjDO3GDWIipqrDv4NkQT6on94snnNR57bToLylaGNl6g6uUrcnpLZ5ozsqZye6YYy7lh2rUrQ0GZzbhvU/6XkE4eOTx8OGqXRrBzVVgwPCkI7azHbPmn7lyS0DTPMwUDFqf7wn9/HO77wZF77t7/IafdpcGRmFocyWi5z+81T/NlzP8/LH/txLv/SHd6kKIBE6/QPOHWUqROFiYfRrnNbqPPMb8Tf84bLTvLmp13Lu57zPW7/3izVkbAD5NlYPL/4TbeDT7pO/C7BsIE9rDiSoEQ1XJ496NSj/rb99O8swJrPqgMBDv5g4qA97Lt2GYC2OM4aOZczRu5HElYuj2zSpkeHCoPh6MxdNrZVHUomNGPjp3cB/gklln6Df9a9VhhaaZMTJ4+Eo9U9zicOZSt8Vjgxd9TYQPqcJDR46kYFhqHhib93Lu+//Hxe9oZHMzxa4ujsHKE1NEoxV/zHHbzksR/jNb/xGa795l0eSLSGf6B4cqFNqCdj60YeLsrUM8LNV03z7ud8j9f/0pV853PHKNeCDTv4Fof18pNeBCOmyxzYyIm/EjnKYZXykvCgwTJcncTIDtdu0jXeUa5qv/tO0j1q2031TUGtWipRjZHSONWwfl0clm7LbZ0llxMyMo7M3GnHy6dlpaDKRtJuF9T/YefamaQDAP+sd5XyxCGmZ07YsepkFpiop4PHZxk2mU1nTCkpu1Oxa083M5drIb/7pz/O+799Phe84ieQQJiaa1ItRSRhyKc/+j1e+LP/lzc+54scum16sX9ghalHYYnAhGuHynRxpt7UwTb/8Oobef0TruRLH7gLY6Vj56/tQF/q1e+y5hc5+Bb7ALbG/AsTqYV1kqCMol2ov+rW8/23QrJqfoCiggrfwQEOOZbGnsuDUAmDUM8aO5f9QwduiWxyYw4IWnYNg2G2PS1zrVnZUzmwQWvR29WVsK6tdnOHY2uFp39KWq2mGa1NrhAZKAqGnDBBGGg/Y9yrUbGR+3a9wj+AZ8LRvWVe9OZH8fbPPImf+vkDzMx5INFQuYQVw0Xvu4oXPPr/ctE7rur4B1Z2FK6tFxWnubFCljo++/47eN0TvsMn3n47LoPqcLggIFZdl+40qiUIPjbj4NsMKYhSCxuEJtp52399VKgm13v+Rz9wcMz/craV4dTpu7/1VPnbK140FQfJ5YENV5yMwXBk5k5riXS0NLlugJDiiG1JIynRas/viPq/fC6WqZmjRlRkrN6745AgXUlC5cECg8T7KMq2RhSUB3B5WeQofMij9/LWzz2Jt/3rk3jgj+3h+OwczXbKcLnEoTumedPLv8hzf+KjfOEjN3YYeCP+gY6dnwuQy/7tMH/6hMv4m5dcz+FbmlSGA1hPph4rI/iksPNl0Iy/aGZYY6kGdSrxUNfpv8N7WujlDCwgwC2B6/IV0efuOeoFwNdvfTPz88qDxn5fHrnvOSRB+dtREKOrdKp0mnFo+kd2ONmblWyVtSG2ufofD6lL3Q6q/71GJhw/echGkshwdXzF8ODJ+WMmjhNnJNjgHdZPqkoYhUyUHkCktc4I+z7nwj+Q+YKYj/rlA/zl136d173vcZx5zgjHZ+cIrGGoXOIH1x3m1ed/ipf87Mf4+idv9l2Ozdrouw6QxwhXf/kor3/yt/nz87/DDy6dojoUEcRmVdOi+/n0hO4WJ/62Mr6/iyqkWUo1qXFg9EzfiisXdt2+kO3f4braL28Uo7eJUUTQ99z1zk7/LsRCSSrUomEy574X2eSEQGPlRbA0s1mZbZ6Uicrp2S1T37Oy6pP0dnclbLjWfHPXdbxRVY6dPGhHG5NpM553080Ti5qN+B4Cs5KWW8RR4uaaM+vsIbBBEsdw6XRq7bNRN3iHUrdZEESGX7ngXH7uqWfyt6+/lH/566s5PjtHLY4xRvj21+/giif/iKdc8EAueP0jGNvnEX+6BCtZxOmDyHDsziYXv+NmPv2e22jNO0o13x/St8Rb69RfXk+xo/RLtzEgSz4/QMZHSV2GNQF7RyYZq48Th5ZMU+bbKXOtFvOtNq00JVNH0dpBhNwv4WmwhoIuLRdQIABvcqmZBYwEmYPXLaAapufmsSbSfY37sqd24KbYJrcsBQQtvYnBcnTukA0k0fHy/lVrBxTgn8RUaG2y8OcgyXccSjl+8nAwXBlzpR6RAUU5OX/MJqXE9X/8eWPU8jBj9sGYrASyfQ4lYyWvM6hUGhEvfdujec83f4Nf+50H0nbOOwqTiFIU8uH3foeX/tS/84ELbyTLlLhkOqeeKsQlL98//Oc38kc/+y0ufsfNHQefOoVs9bVbjuAzWwTy9Icyl4EaauVxzpo8h30jk1hjyRSiMKBRTpgcqnNgfJQzJsY4fXSE8XqdWlIitCGokDklc8pAe75I56+ldK2IIsZ7AyFHBgE84fRfY6rd5hM/eAVXH/r43L7KT/70dPPEgzPNVFaJ7CqOVtaUscq+bD6dMS3Xq0OP39wjpUkXa1lmmic31c9v0CQYUtdGncpQdTydb8+ZzKXSde7QTltSSWrOqKWdtfsmyBQlSUrsLT2McnqALEt53DMPMHmfCqoLtQEGOn9ZuI8qjOwp83NPPZNHPu50jtwyyw+vP0aaZoxUh4jdKJd/7jCXffowx+5scddNc51TTh187G038/l/uAPnIKkGKF5TQMFIwEr+n97q/s4yvlOHIlRKI4wOncF4fZRqHJBbOF5EGX9SFmwdWEMcBFSTiFq5RKNcplpKKIURobUYjBcErqjnuMBl/ZmJLElGEgHeg3AFYCVuuW8cfvuCALj62CgTcZkw3Gv2Vn9ck6B6znTzxGNbrrmqAMhrB4hgZag05k7MH+65VQXDROV012q2bDtr7ToNYGGcQitrihVrauWhdKY5Zbv1qbxtt1TiuptvzvXNDLBWmKyey5B7AKq+4u/jnnkGk/cpb5sA6KxBHkZT9eG4PQeqPO4Z9+OMc4b54VVHmb2rQqVSoToccPRHTW65dpoo8QVKrRV+eNVJThxsUR0OEWFJSE8IsMsiHMuTdZbY+UuAO4Nn/KJ8thKHFUbrpzNc20McBJSChSaxfr3A9jBqFSh8pSJCFFhKcUgtSaiXy9RKCUkUEVi/xZzm/QtUFwmFTc2ycAZK4QCUtgh/jnAHAuNHTtPPz71+4RhWLuLgkVlGS5OMlfdRiipXhTbOWMURWHzTYDkxd9iIGkZLe5eZAg5HEpY1JKLVmtsV3v/VyGCYmj0mWTu1vqTY4vdmmlN9TBLy2tFQeZIhPQ9ctJlCD4NZhy5HIQKPe8b9eN+lv8Hz3vgwkqrh+MEWQWi8al/UqVRIKgFRyfZE8C0Nb64E5CnsfJ+ptxjII9vA+JnLsDZmrHEGe8fuT6XU8HMLwCwRXqqsCZYCz+CZWxAKcRgwXC2xb7jBGeOjnDE+yr6RYUZrNSpxQmAs6iDNzYZNlnjrIADVcWOOAdDbR64DukwAgPHRUWrhfhmu7NHQxtnx2UPnz7ZO1mUVo6L7Ps10XsYr+1wzmzVNN995kIpjuDTpIpeY2dbMhpt47gQJwnxrVqpxXcMw0bnWtCk2X0aKNQHlqKbN1vyWtABFqZRq7I0fSZyOA2kO2tk5DWDZWuQzd6qEccB5jx7m0f95D6VKwA+/c5KZqZQw6nqm3brw4sn6VrOyoMJ3n2/dCL4Fz/52qft5+TWXEdiYodpexuqnUUqqqHqvfzmCKOg9NWvXl/6/9CNa+OtECKzxmZtJTKNcolYuUU0SkjAkMBafcLRcQ1jjjs4vpHzFWt5vLOIc+r9vOAtgMSeOnl0iMKE+/LSf4aH7f+qOOCjdkFdIXVP0GCzNbE6m5o/LZPXM1FfV9TvBYKkEDW21mqdcq+tj04dtOaxqozziigSoAhhkrGi4BXiwgg/5JQ+glO5Ht7kj04YoD+dBDiTan/CMC+/L//jsI3jIz4/QbjrWRsEKpsuhtzxhZwHBtxTFN2h137kMVaFenmDv2DkM1yYwJkclqmf82K580vfDp+ch0l5LUIXQGqpJxHi9wv7RIc4YH+XA+CiTQ0MMlcskYYhgVg4/FkuW1wDI/PUNXdGlRQHtK7/Z5CcOGH3Dvz9e4LS5h4799LWBiX42de01F187psARWwor2Vh5v7tz5iZjsCQe+89sevSUOP0XFtFvjONTh4Lh+njaTlvMtE4aKzbvITAtpaTs2jMnNhXWNEYZK9+Hut6f3YAhWdeaCIj1jr607Tjt3Aq/+Kz9XPG5o0Sl5R2Sl81ZuhNwFphbZKlQKP4e5KJ40BWqlJMhGpVJktiDrzJXdHwWrIFSsHrorp9O/U6oMNcOtHA2ipBEIaUoBMpkTmmlGfPtNvOtFvPtNq00I3Ou0/BUcgEgwlWFgOjWWBcJgDn+DXUP4ZyhJ0sprGocJFfEQcJcOmNknYXIFeXQ9B12X+M+6UzrhJxoH5FqNORc6ozveXfqCIBisVpZkxPTR4OR6kSaura00qYIhpPzx+2eWr0dzIcm3VBEwLclb5T3MCYPw6RlVIrTf3fY/2vOwCxgCLJ0HWPO1f9uD34vxi/WvPjfgEaPqj/x46hKo7qHSlL3wyycdvm9DVCJoGCA1eY3KOpehUIoQCEQAkpxAFrCKbSzjFY7Za7VzgVC26qiRuR6AZyqfvXwJZ3rLYO0xSainoxQT4Zx6q6Mg+SwIGPrH6yvKHxs9rCZqBzI5k/MBNVwSFtz8ztoxW6NfOLQDMFcYMdr+7K7pm4LsqxNK51nLp22paTsTs4ct+vdsIqjlJTZEz2UsD2CUqAiTw3mX0rrUf0RMASLHHwLLFZ8avAnPqo4zYjCMo3qJJWkgRGhF7JZgXII1qx9wu/Uk9M8elCsWhRY4sBSK8eokqWZs1nmPn6i3b7MobK3VHJV93C+MeU/v+zRNTGENtJGMkI9GbkpCpIf5imO656jwTLVPGraaVv218/ODAHN9pywSLIPPn7bx2XGYJmen5J2u2XGapOpiEGBk3PHTRBtrJOQtcJo6WzK2enohrIpT0XKLX41C/b/Nnv2C1GTuQzE0KhOMjl6P2rlIcidm0tJFSLrX+tR73ey98JSDSGPNqgqNrCmXS4Fb5islthbLcsj69fxrltHO59fJgC+cdubsNby0Q/9AR+78A/vioPy1Sulyi5aABSHw+F73FsJmGvPmGo0pLEp2yAICQKLGEUlw5HiyFCyHtfenULBYDgxfcTgxIzkbcea6SzNbE6SeJ1JQqKMVE9nRM+DLGALLZ5OKRIMRuy24/bBM76qUK9MsG/sXEbr+zBiu0qLLQnrAYFd2+5f9qVdpMAJfjOq8q4s5dJ2qnaigvvXg/fhUDvqfG6ZCZC6Jharpz3qKaaWDLl63LgsCuLfb2ZzYjCLmFXzP4JgJSAOE03CiktsSQMTEYg15XRvUGrvZbTUpi0zpMzRcjO0dYa2myd1TdpZk8ylqHNd+dSr4bt3bqUF4fjUITPS2JMNV8ayIzN32en5Y2a0vC+bnZ8xq31TyaiXx5gwP0aQNrrs/rsrLTC4EUsOLd8GGz934Oae1UpplEZlgiQqLQLnrHR/I171X9Pu76KC/3fJ03T4EP+3RHmd8ZNyt5+EPe3FGaY909oqmTBW20s9GUaUq0Mbz4KWfWqDExCsWEIbaymoaDmsaBQkaghwaSrtVtPOtI/LcPk0Su0DmHaFIAiJxedRIxnOtNGgTSZzXjDoLC2mvXDI5rxwyFpkLs3hkq7TsFF2WDgoyomTh+3I0J60lbbcdPO4aZTbkkQlnWvN9nQGKkoYhozHDyBu72HzJdVORfICYCn2bzB38oyfqSMOywzX9lNOfFalV/XXimZBOVif3d/zy7vjkUo+nNcgTGVgRby++ewrFw+wpwC4Q++iEgzpRGUf7ax1Q2zj260E9wtt7JKgJElY0cjGarCimSNtt2Rm/qRN0zZOMxwZtWSYIT0bacdkNMFlWJPXGFBBshghxlIjEkAUFYeaFGdbuKBJKnOkzNDWOdo6Q8vNkrp52lmT1LVwLvM4bV1Q5ZYLh0GsrpC6NidOHrUjtYk0zVpycu6oGS5NZvOtuZ5rKkYZq5xFLbvvgDsu7x5aHOVfHP4bBKlCphlRUKJeGadaGsYau+aJ3/39OFi/3b/s+wOb2YYow5/+fyeGzwDWzZDZCrzgy8tH13Oz1uNRWk3HfcbOA+Wum49+75bQxPez2Mw5F7TbLTM3NyNp1sZp2pm45E6eJCwxHp9LMDuCbylmcJqCCpYg1wKKEmX5SajkgiHCEhNQI+pkRzgwGU5SXNDChfO0ZZZUZ2kzR8tN09Y50lxrSF3bAzucdjGbLBEKW0vMFAzz7Vkx0yYcq+1LD528PXDSJolLbq45uwQdqAxXJhmTh2LSBJXdUwthO6iA/yxG0PeXnHNYGzFUnqBWGSOwOUBmnY+3Y/eHm9chd0ETVsUz/53An+R2iaqAtnp/oacAOC/bxyXzN+sXv/sRk8SldiVqfGJ+duaxx2aPhoqTxQy/GNkvBoZLp1FqnrYAbslhi861QcCaoAvvvmRDiAJu8UNQgdTkGkNCQKOjNSAOlQw1LTI7TxbP0cYLhJab8cJhiWBwznVJ682bEwbLbOskQRCa4cp4OtOcstV4OJtrzpriWoqjXKowHj6YsD18j2N+vwodSFqf5+6BWiI+RbdR3UMURh1k3EbuZfB2/1aCsbtAAGR4nn4LcDtKYCA1CcysEGzqKQD+zx3f5AHpmcT7rTZq42TOfeT4yYMvAu4nGCf0QvPkTq7SOA13P2iHPZJaBKepP9AXCYHl1+r9qyXCQQvNwSKUCagQCiS5hqGS4kwbZ5tkHa1hhrbO0tJZ2m6WNGvRdk2yLPV+hg6wVxapsIvHpZ1/i45DQ9UxjaOyU3ESBbF6sBAEgWEiOZdyevo9zO5fWKr+V8oVnGagQimuM1TdSxL74iQLjL/+de7E+zfg9Ot5nZ0VAAXzfyW0vDsSmMvIHHDpnfC+7/dej54CYC79IEOn/Tc0jPTb133JxEHltj2jey+aa8788Xxrlt5OLkcclRi15xDMDqGrZLRlmnbywje+5KsJB+20qPKvEEOIpUIoQkKBqcw6voYsaJIxR5sZ2sx64eBmabs5Mtcizdo+QqG6pNfbYn/D1MxRO1Qbz4IwdHHsaKUtiyijlTMZ0geCs96U2QBa8O5C/cv+lI6QTuI69coE5bi2BMizsXspHuMfBX3C8294BH2hQvWfVviv7ZT5tmCM99ivyPywggAAuO2u40yc1uDMyXOplRtkLvvw9OzU7zRbcwd6zdMYYTS5D0lzn3fKrbEKnqnA2s0IgXXSIj9DsVTiX1mEIcZSB4FSXunV+xrauKBFZuZImfXCQWd9hMLN0nbNRREKcufTsamDdqSxhyQpudm5GVtOaozZh2DapU2o/rsssLwJ8onoZsvVjQXBoajLCGxCo7qHWnkUI97G32x/UwUCk9v9fUrm2SEJkAGBwputcAlCEFnSZgZPvxResMoXVxQA17ffwz73pxC09TM3Xojerlc+4mEv+dTM/NTzW+35RUVCFEe9NE4tOwtNTe+TrsfCeHNAvCYw0PJXvbSGQmPoevIdX0PS8TXEnQhFhhovGJw0vbZAHr7UGVrZLO1sjrnmSRtFMdVaRUfkXInaY94BypLi2Z1CEXTe6/ZG+LDZKa4F5Pj/zXLE0hp8jeok9coYgQ1yxt8atxk88/cThK26vrTgPpLD8/H3A3i785ZRZqug09CYW30wq5a3bWdzmMToT+75A/Pz/+m1rlpu/MPs3Mmnttrz437NRHxTyCqj9lzsbC1X/de/Aplrg/EOtZ0phCE9fuwVoTBIlmApEQhExWfF5b6GltcamKednrS1MGQ4PQ8rCWJ9bwFjTOdENNJVyrpIg82rOIlA2nKEQdxziKcOba23QeYyjATUyiM0KnuIw3jJib+1hSlFEGzR7t9F9JoMpjBYJ2QnTsBLv772+qwqAL5221/w6MYriKqxfvHmN3D9/9JvPP0tL/74zNzUBe2spQISWMtYcjbJ3N41VP+V5WyWRweMteyux7FGhKLjhAwxRFiEACiLYaJ2BuVqDRXnT0FZuGZvmFD+R50XPDY9dfm+a/U2nv1Z2PlQSUZoVCdJomQJgm9rpPjKPpuN96967e3dvkXM/yOB8iEHpiVkEfD9m9Z3gTWfTjhepnks0Z+YeIl5zrtf5cpJ46IkKrcAozhtlCapts9AM7My86/jZM/Uh+jW2ed8B6kHdj0PRzpSBMdoZS9xkFB0jM1bMXcciU6dB0xplv9/8UvXVYJl91OBC1nfZxdKcYW2xMTwmUyM3Ic4SnytvD4yf2C8ABjEGm/jcyscf4dEeG0m4AR+NOkF5VvuWN+6rykAbjn5DWqnTROFZf2x836B+x4470ulpPpVI5ZSXNFhuT/SKvfFhs9ce3d0V9kw+c1rJWS8ejqlsErq2j77bGWp2PVed8DxVJt7b1ItavutRX7tvJ0fM9Y4wN6x+1MtDa1aa2+zZPBJPgOb9+Au3fNWAq9V5ToFS4o7cCe88Kvr30NrLsWNd32WSX00YdzSL15ykREjc6Wk9neVSvUxDXOGieYnVNWtpzjZuihzLSDEmN1mDqxEXmUNTcJ49TQiG+M0o6gmZM26ywTcrcg7MteeuMtr8DXKY9TLowRBsCEE30apHHoNYGA7a3u2bKH6f+Gqp/PX9/04UjlBlhpoxhu70Lpk4W2HruPs086hHu73Di01XxsNy8fj+X0jmknfnXeZa1PUgt8tFXJ7k2f+wERMVE8nsBFZzvwAqh51uPt8G9uzNmYV7cfl2lG1NMpwfR9hEG4KwbdeUoUkhHBAqn/nPoO7dDcVqtXrHvxBH2xRS2aB//L5ja3dujw0t+iHaOkc4dR+Z+74SbE/evwNpZmzvmraZRA3kPhd6loeeLNrfQJ+E4cmYaLimV+7mL/4TObSex7vU4B/lj47LzCdc5STISZHz2Z8+AwCG66Ym98PKnD+g7L7l95swPco7Mr3KHxZwUhGhsALNqD6F7RuF+1Xb7sJM3o7IkcFbkRbwX9D5UfAwI63jhDYdTq0Z/5SWGNP7QzCIEG1t73vtYDN5f2fso5AXX7+qyrOKVFYZWLkvuwZOYtyXOuy8wf3jIv8/u3aRQN8bkWe/7UivCa3sJQEwls2uTbr/+hFpNN1mLzJEbatMXI9Km/IT+j1aQGbWJjUtVC3e4SAdDH/ePV0rNgVmb/4xqa0AIEgzJ/w9rUI3BwtAy1Kbv/7CEjmMqyJvINv9GyqST0vXbU9Eq7UB5z/LqM/UuUuFIui2oZn37w5/thQkDaY3YM5eBbiApdQIpDo/cDlKJb1CoFNUEcI7Lg5IGQuoxxWGavsz1Nc1xZOXu1dvxYg+BZRh2/1OZzGCM7tXo3AmACRokHoQluvzGUIlkZlkr2j96deGQNMF+MP9nl28vsH6fRb4b4DoKJL18dU+CQGo45MLISlzV90Q/Xsb8z+hbP0KYgKbdOyjrStyC2C/Pai3NqelNuEm3zmTh3G2C3jyjdPgnOOajTMWHU/RmynQtF6SNE8DXrlTxSfA8UY+M5nT3DnjfMceFCJ6rD316p6bMFuUIhUBTFw5/ccV32qDUGbNPMOXEtIrTzGWOMMauUxjLGL4M4DHxsQWq/6bzeJ8c1C+zwdA5xQ4bdQjqCIvRnVEjz/K1uDQ2+IbuY4BIK6NEOMAfkU8AFUBAZZ4lZJs5ZvL73tu9+r/bXYM3+h2m5o9BvUAhDfgeeLf3+I1//idXzsTXcwfTTFGN+mymW7SR1QQpvQKE1QjupU4gZ7Rs5mrOH9Iz51d/uYHxZw/ju0HP2mQrt+iyjfMxDsCXD2LJja4hw33NHmKJ9iQn+VagiZ84qfCNeBPA2hyqr5UFs/uZy6hUSZbZIDzjlq8TAj5X1s5emurgUs1gBAEYG4bGg3HVd/YYrLP3Wc2mjIaQ8oeUHgco1gh7Qi37MQbv9ui0s/PkW1VqZRnaCajBAFpU76tCnafcn2lYEvhxDuYA8au6leUT2pU+DTBLzIGFqq6JzA90/A6y/Z2npuapi3cTFn8JswOqTMNS3IQZRpkF9BcPTSLCT/qw/PX9Uh22QOqFMayTgj5T39uBpifBJQr+VZUJEXahuoKsYIUcly8nDKty4+xve/OU19LGDPWQmSCwLY9iy0BQFwXYvLPzlDrV5lAdVoO0xf+AS2QwAU8f5kC6W9tkortQvfzHTwvNQGnuEcN6jDKN4l9idbZH7YhAlQ0Iz9IemxI6A4rcwy7Sp/DXwZL1QG2u1CUbKstdl2yeu/j4Ph8h5GypN920xZtnJEoDcMeEHlDxMhqVqu+eIUf/G07/PO3/0Bt1w12+nM47KdyyGIo3IOeHLsFOsVdn9pO+L9q42jf1iAQvV/B8LXBGzrhP/dK7/Vn7FuWgD8R+s1RKnBOFRmyrZqZxXkz3JP/cCVL819AkUx0X6Tc46h0jiNZNzbsP0at7rV8x1yTalXVoA6r5GU6pa4Yrj0E8f5H7/6Xf7x1bdw8nDa6dXnMt1WHrQ2IAwjujucLmgz20dGtlbUs6+09UEUqv+tanijA1RwL7vKoxmn2/1Z3S0pKgd4BtZmOBFFM6PqbhQx5wIPRjphiy7qv92uuLy0WJ+urT6Hb7Q8ST0ZZV3dfjZxD7NCjsCCCdD985LONbmbICoZ1MF3v3aSyz55nCAy7D+nRBibzmcGaRYUJsBd33dc9W9Nwli6mmvaPA16+0yAcrSzdn83GbPltXd498mrcF6zbma4b5/Zu7z3pse5lS9/kd/keOYo4R1RYg2grwW5kwEiBLvJZ5K1tn6hDgljlX3Uk7GB1e8v0oAXM0NXmywxC0zTVXlwKfO4zNdfqAwFHLujxftffhNv+KXr+OoHD5Nlipi8b/wOAIkGIjhXvFdXfv/2T7X3mLY2kCLZ5+IHfYW/zgLEKFkUwIFNIv5Woi27Ku7gYZxuhgFUVCzIYeAEyJOXOwRlQEeSLmgCW7i+KoyV91ONh8g0HWxq7qpaQC/BwIqCQBVsIMRly7Eftbnk/x3jhktnOO3chOG9vg9cET7t5/IXGsCd12dc+ekuDUAKKHAwcCeg4k/98m5R/XMS2TQWoBPzR/mdu87goFGMDVAj8Izv9Hf9+qAwvY5A8z5qijvqKqiTvwO+BksQgv0svrZ01dR5TWATPgEPrrGMV06jEjd8rcIBW7BOsx55Dl3MnpcMW2ihaVhcX3cxMxWOwqgkVIYCrvvyFP/rKdfzf/7LzRy+pen9A5Jn220Lp2wPO+4qu78/0y/45Y0YrjZgq76jOc//Uv/3ZF8sps9kz6KlQmrQETtjxWob5FWoFBrA9mw5zbxjcEPfASshE9XTqUSNbUw+Ul8KbdnKLGlvJgXjFyZBt1kAywSB84IgqVqyVPnc+w7y+sd5INHxu1oLQKKBaujShWcY7FoW9fx3G22ypnPh+LvUGt6Sn5cujeD43GDG2Te4wjn6674DoRgVnFX0ZkHuA/JjCw7B/EkN7IEJRc0+I2sV4iiq+ASMVw+QBOVFufyDJ8lj/L3wDIU3oNAGJHemFe8tNQuWL2qhnsdlS2teufJzJ7jk4mOEieU+Dy1jbAEk2rzVtKIJkI/eYLu0mP6aAIoP98W7yO5fSnbjjsBCYj5blesBq+DSDP7wm4PZl33zmX6GZzHt2hibAkZ9MQ95I3AUX3hkm3RP8ZqAay/0AOj5GUcgEeOV04mDUqeKz3aTzxTsPUb/dxfby4IGQK4NsJqjMDcLrIXqaMDJIyl//99u4u2/dTPf/cqcL8RqivBiv2emA3OiFnZ/HOxe5ocNOwKLqNmHWxmfzhzGGF/k4+iJwY2xf4BF4Db+H/flfNrhiJps1gKHQGaBJy44BLcLwruSJrBQwmuidnoOWd1cvn4/SFVzVGMvWbygB3SYvNAGRBa9s7S64DKNwIG1QhAbDv1AuORjM9xy1TyTZ0c09uSFoZb0Klh77KtoAEKuAdi+awBGoBptP/JxoyTGj3UdVKj+Nzt4pjEcN4K0chnyiksHN9G+CgCAYX0CFZmDLFBqbTFzwaUq+lMI9wOyPMa1DeTNAegWAl47iGyJidoBwryKz25IrVvdZFlgnMUawaIrLGL7lQSBqJCUS9hQuPXqJt/86EmO3tZm/zkxlWGvT6vLmWuNZVndBPBGgBmAAKhEvq7fbiez/kiAAqLK843hayLYwOICBy/aRJWfDY2x3xe8jOejLkQMyHRo1OIQeR0qRWxzG7U230TSO9sMqo7IlhmvnE5ggl3D/M5l63Q+dp/4+f8XRQsKk8CwOJhYMJ4iYlEnqFPKDf/4v/R3J3jTk2/lc39znLStmLxe/tYdhf191IpX+8Ntzu/f9HjXN8hC9f/MvOXDGRjjyLJtglH0XQMAeGjwQlo6D25OnTEW9BZBTgN+HMSxvnrRm6MeXnVfj99X8ZmoHvDMv6s69fpB+0rI66Fu08D/vOAoXCokFmapgDWh78wMnZh9VBKaM44rPzPDtV+aJUyEfedEWCurIgrX0gD8uDwicKsagKpv4LljKb6boHVgAYqYfxPhmYFyh4CcmEGDEF70tcHvz4Ew4sfaj6edHScJKr6tnn/obwC5g61oAdr9kq5X4RwzGGOxJsDaEGtDgiB/2YiR8iRGgi33lOs/+XoDuuEjdzGzyxKNABbWpYMmKGDTXWvqMg8kKjcMt1zZ5L0vvJO3nX873/vanHc5GP+ZjaPb+hcKtObUYn5Y13oVD/ydolxiFDttcEMV0Lu2Z4wD0QAAqvwuMa08K0QtcDyv8f2EnnkCPRerQA6azuY2xiDGYozFWIM1Fmssxua/MyZPufWnojEG5xyNZIxqPOy794ig2h1a2w3kGWXt8GWPNerhHyjmJkt+b4OkK+y4PHQYREJUEg7e2OJb/3KS265r+YpEo/5xFZaKyHp8AIUGkPsBtqABlPM+fqcardIWonD8XSnCc0SYV/E9J5vAH1yxPZMdmAA4xEWM8JuUg8wzW2YRq5cDPwNyFpD67VOcWl0MLosZ3BiDtf5fY5Y21Fw9qqCqhDZmtDK5yPKQDipxaw0s+0c+OuHr623u+yvhBzrvSkBg4i4HXy+93jN2GBvEKLdfm3HtZ8GlsOdsS1yWzudgPQLA5AJgcyZAgfPfzfH+1WgVLEDx22cpXANYBy4EXjxgx183DdSXepk+nXbqcJqpCcSIBk3BPsea4IbARkEQhGkYdKnpQYC1wQKzdzH6ZkkwjJQmCUy0LEGlkB0+f3s3CAH1uIAt6SW9zQIwGAkXTuMuv0HPRCOniBiGx6q0ZuETb5zmHU89zpfeP0drzicarYkdED+nzTKu4hN8Srs83r/qHFboh5v/+14xfEYEiyPDwUu/sb3jG3gwZUJ/D2sCVJwzgTFBEP/AmPAJIuaHIhIgkg7mzoJTRyVqUI5qeU5/r8wbRSSvwFN0+90xEpxL+1T3cIkgEMGasAtMZFYVBKpKFMQYCRCrVIYNJ+5yfOzPpnn3bx3nui+2OoVIVrN1tQsUu5GlVTzEd1fi/Dc4j15TAw6ivI4MxKEvPBOiEJrZ9h5EAxcAFyFkaYpRcFnLqWtaI3qDiHsyKtegEjCICkJ5s856MtIpV70aeR7wZSy8NrBTGoHitqwFLJpZ/rfpZEvKIufgApqQLkFgbUAYJV5ryh2FQQiVYeHO76X83Yum+PuXTnH0towwZhWc5+bYV/DMfwqE+1en5dMv9Ka3ItyugjUG91c3wXMHkOyzFm3bHX/OfoBS5D3QLlOjDifCiBj9F+DnEE1ZZ6/C9UzLuYzh8iRDyThON8ZQCjk8V3cMbRYGvt5ff84/RSQgCqog2jmV/cld1B90LJzXSjmuEgQBvfL6xfhTf25KqY8Zxs+y3H5NygKYcUHo+IyAGEvYET7rWf9SCMkpavd3kzEQLOzqIjnu35OIXw4DWjPziDpU5uD5l92NBQDAE+IPdqCRTrHtLMiscRUjejHCY6E/QkBViWyJPbUztoTvL/wCsu0NShVrfBizP81RFWsSAlu0cV9cgbhbEDjNCIOIUlJFc8WsW43vJmMha0PaVsJ4cVqz/7sQACGWeF0CQPGNPCrRqc/84IVlGHSmJsA08Ci848+o4pDBI/5Wom3VsP6t+XSyzLeNMGKzyGbWmHRGRJ+G8qncHNiyT0AwDCXjPqS2levk/gFV2WYnYd49t4+VLWVReHFJXqEUjkLvJ0iiau54NZ1P9a5IBGI9kGg1KtyAa63g3cXuXzYpT4Uq9S6FaxTsUy/FGQPRDrZ+G1gYcCW6wX2ESvZ4akGcp40bc+KMO2ZLx4Y+hOgBkIfnOIFNGOK+e08tGaWRjHbq0m+VpBMy207sgAeJrR8duPq6BDZZEk1ZjB8o+iyUogphEHn4xrI05O7vLhnqkvt1X9f/CTpCZuVR+pPfnvKG/2IyBieCBa5L4XcdtAT4wSTYGJ7Txxp/Gx7bTtz0Cn0utEr+ZBB1QzefZjTInFrz+8BfolKUFt/QQVDE/BvJWN8bTxbaANsWMvRNRdVtfR4FOrD3cnpB4M2mhCgqgWgO3y2SeOyy6MHq8lm7b77kriu7CkuBb+N9tzn9l9NrAzgZgo0EdQLP+fedDT/vmKz9lHsyYRqACqrqcAbjWlIaecJLBN6RmwMbKDLvgTT1ZJTAhAyqV+n2mgX9iAj4cmdreTNFDHFUpijlUdjrXSDiFVKQewmCXrkIKzcELez+aIfr+Q+CVElRjAgfNTN8JG0iJiBLFW4YYJ7/emnbTYBuut5dxP2zp6BBAcex0p6/XjJpfcoQOJDHIqvsnC5SVUphheHS5Iaadm6WpMueHiSSULVoJ7b5e1gTY0zIiqevKklUJgrjztp55GB3gtECxHgho7tXxmGXA7C7pqEEvkz4Uvgx3u6vxLsrO2OrJKAiZCIEIhy0lmdKzBGxmHKItjP44wHm+W9gnDtPT+LjtJJZPxxFlMwIZIq8TOAdSMeYX1FjEQwT1QPEQblvtv96adDRAp/YlBdV2gSFQTXPAFz+fVUlDELKSX2FiENXxEC7QohFxR/trvyzIKuXVjASQixRz/FV8/z+U+3wL2RyAZ/o+jmTIhsLZlzK76twEYLNQrIw2zmv/1LaFe6Wj/MkIhHE556qwTgjEljRdwIvRjsR5p6c7Zt3jpAE5TzHf3upG0k4CBXWuRQ26QuQIsFoBfYSEeKwvEYxkuL0N0t8AWYh+7DXq3PR3ngGxffw2812f8HYxvh+f0EAYZi/8v8HgX/PGJwxZLnDzwAfUeFBJuQiG2DEkAUZJKWdntUC7QoBAPDxud/k1qbgFDJVTZ2mvpodfwn8NiqtXBAsEgJFzL8ej6zecmvAVCAJGQCS0LcT20zxEl8AZKXvqSpxmBAEK5sH+exYlGgk3d59s8Kru2BJ4QXQrpF5uz+2O2/3FynPxnhsgw2WMPpiJmcRcnphOsXms8C3gF9qGZ5WvYybXBtTa+BqNV/l84LP7o7TH3aJCbCUHh//E3mMEIMJgFThVwQ+hGgFFuoLqlPGq6dRieqbZJL+0yCQhCJCEMQbvF4OAArKLFeeFGMCqqVGJ2lngzNcYGhdWgB0oX5hRwtQgyFEMChe5a9E2/O0FqnqfnhLVfatULHpDPBD4E2Z8F6FNMgwaiBp4swhmDkA41+G39wFe7SgPkFv+0uhCfMS3QCkTgkE+STKU4CLEB0CyVQzW44alKP6jp7+S8lvsiKvwIuyrQ5N1eFctmFfgC8A0jv8l0RlXxthwxGTxZWGOly16BNLaw4soAm7cf59O/ylSHlemdH7TAXjW2Ae+HPX4i1qmTUGI4LVgEwdzMdgz4QXf2F37M8ly7Y76TH8LVGUMNVqUZKAKLIBSorwn4CPKjopSLqndoaJg5IZdKvwrVC/nIQiQhgkGzixhSioImaxD8Bn+iWUkkrfoMYr3X/RTxogBB7nv5mQXzdj09P5th3U7ZDOgM8Cr3OOb+LrzwjgTP7Yj5+AV/W5nVc/afeOLKfHRx+k1k4Ax8mobZ1LMyP2QcbYTzSS8TPq8Yhz6rTL67orqSMEYEtMt/6IgGIkJMwTgLrJiKFSqiNm25o25UOyJDakvEppr1XVdNnRDVvY+UUs89vAK1uGz7k2EhtfJMmU0HkH5Vn4g0thNt3dLLa7R5fTE5MP86tmDy8K/4OnZA+yk9Wzs2Y2u9eKvUBxzwdOp/OAVKQQBLtudl3tszcpBBa0gLUFgDUlgqBEt/2vKJWkRhjE29rBF0DU0IhDAiOLTnG2/xTfKHXb+begvMEpf6/QMl6eygPOI5trwq03gU7vTGbfZujUGCXwBPvPSJIX7MgwQ6VxKtGYwzGJcS8Dng1MsLiyfVcNMJBdFGzailkQ2CjvLLzad5XQVjF2wcPvY/4R5VKN7Q+8+Wc3Wg6JArOLnsSq1K3ut4G/BV4n8COK2uuOjBTvCSjBCz5/yrAUcAoJAIBfCD7IfUcfiNOM2fa0KQUVsSZ06lQRnVD0mcBLgPsIql0cb3rBdrc/zXcxFfXzNjoOEUMYrOVCF6KgtkTNFyqlOtZuU3uGrvqACgQiDJcjwl0c9+8aeVG00wH/KvDfW45vWoNYMOpwxqIItKbhpd8+pVipQ6fcqF+8/5ucmA/YU64TScjBuRPGJxTgUFFEqxieBbwYOE88uqgIEZhi2ssdULmHegdWZOPagGJtvAojFwVAah0tQVVJ4gpJVBqs6r+oLwAdh6WqUA9D4tB0F8jYbbR0r1wpyn8Nq3yODGnNYRDUhDgxkM5CGsDLvnLKsVGHTtmRX7DvUoQIuWsek0E2ERkQERHnVFTVVYzw26B/BNwX6VT8K2qyLSb1aTPLV0e3ZZEWNJT1YQe8FhCvCN+1JiawFRCHogQ2pJLUBvTEZYkcWhz2VIXQWOqR9/6F4a609bvt/LsQ3ojwPoEpFItCGJKphbQF8UH4/e/uvklslE75GTxv+FLaRgmCBACnmQhi1KoziDplGKdPA14IPMRvvLVzCxZrCF0pLxsGzWyMFrSBte8T2AjTUwtQAlvB2qjzXqVUJ7BBfzv2LjKrVsY6qAr1KCSyBqceQrvOnnnbQUvt/A+o8FqUW03u8W81fWmkIABCeNEO5u/3m+42M3lW7ZsEpZjAKKENmG9nIorRzLlQA8VI2LbZ+SB/CPrjIiospBuvIyuyt9nQAwPTB1pftGA1LcDb/xZVRxKVSeJyf1T/dTJ95xNLTn9YVidvp6jbzgf4GMLr1XGFNYiCcYqzuR9prg0v/4+7Dbt06O43I+DZ+y+HeYNVIQtVwFmnWZZR10A1QOZ/UdDXAY/MfQQrmwarkOZNz7qTjzuVdPpw0mquWq8mBHppASImt/+LmH9jawVGu8wTH07ZwHUUalFEZEyXK9KbATu0+5ba+dcjvCIs83FtQ7uFRdDAt7OnncKRCF77xbslq9w9BUBBzxu6jiyew9e1DkREjSBORBSVUkb6GyAvBB7lgUS69FTYGHVKYy9BwG3RbFgtWmDEECzSAhRjIsLAF/UsxzWiMNqE6t9t128OyqwKkbHUouXInzCgq4rwtlG3nX8EeCfwLoSjeXMOlQCXAcbB87+8uOLB3ZHu3rMDQPnt8Uto2Aa1wHKoNSuCGnAuDe5UKxWhVXuCiLwK+BnxnUYL02D1InbruftSr3g+pg07wTpOyuXfXawFKIEtY01EFMaUksr6mX9pqHSrYVIV6lFEaJYjMKzxWXfbRN2mXgv4J4XXqnKrKCbvcuSK8otpCi/5xj2ANbhHCIAF+r3xKwgNGCNkDlHnDIhrzwUahpnRgJ8U4ZWgvwYq0kdBUFAnU3CRRr5+X0KvkOFSX0BoKwRBTKVUy1X/tQZUwPA6v9j6PBViG1CLgp6YfxHfaGTAG3ApfPeTCq92jqucQUIP5nGS5Y8lhBfuQHOOnaR71mxzeu7+b5M1hSwD6zehFTE62kjcobmWSCt7IsrLgF9ACGTBNOibIFhE2v3PYmaUFT5fvFOYF4UWIAKBrVIp1fMSXz0cfxt05G1uTiuf/gUFg4sGLH1eNwP/M2nzPmfJWhaLopnFOQeJwo++Dhe6ex473PNmnNNj+AL7GuPUShkGQzPNEGMsqFaDhotsyNHmwUeBvBp4oqBBjiwcnCDIqdOnY5kvYUl93S7nnDWWIIgQYynHw5RLy5OAtoXx8ad/Yi3VMFxVnxhQNKA7rHcCeJOGvEtTpiwYBUhxxRNMm/DSS+6xbHDPFQAFnc+HGR1+KO14FmMt2lZU1Kpz2jAnnNXjHNMzH4LIS0CfCZrINgmCbtJFTjlPvmTKghAIg4g4qlKvjmNs3r9rAOr92oMVGlFEYNbIvhDfELNP1G3nN4EP4PgzZ7g5L+RsRHAFFOLwEXj1Nff47X+vAOimF+y9mmZ7nmZrjiSuIGIsIipR5hsYNM0jBX0V8MsI8cBNgzVowbYuzAHD6NB+Skktr43Y5WjYptGt9/QvqA9mwNJncJnCK3B8Ma9IZhBclvoesXEJnrfDtfh3E927Ej3oyXIpExMJVgytZgsTihEDzdm2a7aUaiN8CMrLBZ4ukCA7Kwg8CZlz1KujNKoTeUnv7U+5EQz1KCSQ9eVeWutfm6Cl8fybBN5ohL8VaDqwqqiJvJ1PE15wD/Hsb4TuXZFV6A/s5RwfFabaQqWVEVeMVUXDvB52JtxfxbwgNw3GdsI0KMg5JQwSatURwiAhDGM6MKVtPP3LQUg5tOuu9iOSg4I2ON38X4PH6r85y3ibCDPG+oqkWUpWCsEJ3DEPF37z3q3ei+5dlXXQ749cj41mCUMhSyHL1AKI4gTRDDlTxP0X4PeAau8MxEGR74cYhjGN+h6sCfzPQeSx/4v8AIPVCARv+5sNghw2kBzUbednwL+gvB7xnXbz4KoT6+381gy89BQpzLFTdO/qbIAewxe4755h5hrnMj91A8OubQRE2+3MKdgovl9eoegCYHjwgqBg/oRGfRxrCob3qngUxf5jA4r1d5M//QPKYbDhWn+B9eW4V7s8izWrKwX+KFP+zfhSXMY5X4dPxLeXfvEuabyx2+neVdoEvbRxLSdKbSZnUt508jDPnpg0quqbGqEqwj7x2Ye/C5w+KEHgnFJKatSqI3m57S7OUwiCon7gwu8GpQ1s9vQHf3QHK5sB3fDdHwBvVMM/oDRFfY3xeAzXEtC7wLROnXJcu4HuXakt0HP2XAmi2MDHllwrMyoiDnGSOVV02Bi5APQVoJNdPoItCwLnlFKpTr06ykoVkUUNYRQt713YndzThx3QOf2DYNO6RQ8zYGlY7y3O8SaUKcVjnoyQCb5pkgIvvPfU3zDdu2J9oBeWrqFdmcVFNd+DrzVtVFQQnMmsIux3uOfi6xae1pWBCJsQBM4p5VKdamWUVdV59VWEV+z80w+NQH1CUj0KN3X6F9QVDuxmfAU+gfAG2+YSZxC1GOMtH1UgNPDcu1F+/nbTvSvXR9of/hX/uf4L3FU+TCUuIyeMgBox6hDUZQyJyHOAFwFn5jDebhV3TVKFanmEcrnOunohqCHqpQUs+gwsauCxgV2hCpUwpBSs3/Pfi8SgYbDMzn9lc5hP04JwBiOgzqCpwpDCW66Fq47eu4W3Qveu3gDoeQ+/FO4ImZoVTFMoDzmjqJCJC9qBpkFaxvDriP4xcF5ewHRV06Bgrlp1LAf6rK+4hyoENiRYF+ZWunHI6yr2EYihHkcbkhlLXkV3HQ1DRISbgQud4Z8VmoFiVBEtk6UKQQue/k0Ynr936/aD7l3FgZLynPEr0ECwImSpCuIzEC1WnUoDyS5Q5dnAAxGK/sKLipMUKcW16gilpL7h9ueC5BGBdT7u7pyBVUwDVaEaBiTWrmSIFOp88fZKnUoVOBKEXByEXIjh9qyNEUVMSibqW+2EBp79tXu3bD/p3tXcBnoMyv3HrqRtIQ4P026OiQhGDM6JqFFJnMueAbwCeEBX3UJVVRGx1GvjxFFZejD/2s+wExFYqwvw8u+xAphoyelfXLR7cCuBoZrAbSjXI1yDcI3CNQZuOm+MQ1cfg9hiVXFFWEMsvPBeO38gdO+qbjM9c/QKapFBxDCXZmJQI6gTNYpKlIk+HtFXAj8NqsaE0qhNEIYR6lyvJ9Z9wvZ6Ly/ML0RhLGvWB+h5leX+AVW0GoaaWCva22xR4CC+Y+61wJXA1cAPbcodaplXIHQglXwCPjETtbhMIWrDcYFX3nvqD4zuXdkdoOedcS3tmRQbtb16nwWCqAFxqQZqxAZG559qxD6jXh0bj6NyJVNXF0iAKH+F+b+LmU80LziiS4sVYkxAGC5UCt4YLZzzii4t9dUCDgHfBa4ArgeuF+H6oRJ3PPMP4d3/E1rj8P03QPUK2P8ejKQ+PVc8YleN9eULFDAJvPgeVpxjJ+jeFd5h+p2hy6mUfcSr3VIxVkwY4n7uZxv6tHeewT+9YMZefsV0GNhSqOISEa2iUlWhjEpV0ApQQamrUBekBloHilfVv7RmTFAJgyjrw7DDShjemgTmGlUuQ7hWlBvSNod1GmcbYELAQiWBk9NYcXkncvUtXLSNEsMXgTMy+JkW/Oer7t2O203/P5MlAzx63geBAAAAJXRFWHRkYXRlOmNyZWF0ZQAyMDE3LTAzLTE2VDAxOjUyOjEyLTA0OjAwwvuFhgAAACV0RVh0ZGF0ZTptb2RpZnkAMjAxNy0wMy0xNlQwMTo1MjoxMi0wNDowMLOmPToAAAAASUVORK5CYII=;labelPosition=center;verticalLabelPosition=bottom;align=center;verticalAlign=top;" vertex="1" parent="758x6OaIiu2QK4r-ina4-1">
          <mxGeometry x="-2.5" y="528.5" width="80" height="80" as="geometry" />
        </mxCell>
      </root>
    </mxGraphModel>
  </diagram>
</mxfile>
